<svg width="16" height="16" viewBox="0 0 16 16" fill="none" xmlns="http://www.w3.org/2000/svg">
<g clip-path="url(#clip0_5_10623)">
<path d="M9 8.75C9.41421 8.75 9.75 8.41421 9.75 8C9.75 7.58579 9.41421 7.25 9 7.25C8.58579 7.25 8.25 7.58579 8.25 8C8.25 8.41421 8.58579 8.75 9 8.75Z" fill="black"/>
<path d="M6 8.75C6.41421 8.75 6.75 8.41421 6.75 8C6.75 7.58579 6.41421 7.25 6 7.25C5.58579 7.25 5.25 7.58579 5.25 8C5.25 8.41421 5.58579 8.75 6 8.75Z" fill="black"/>
<path d="M12 8.75C12.4142 8.75 12.75 8.41421 12.75 8C12.75 7.58579 12.4142 7.25 12 7.25C11.5858 7.25 11.25 7.58579 11.25 8C11.25 8.41421 11.5858 8.75 12 8.75Z" fill="black"/>
<path d="M3.83767 11.0616C3.09322 9.80558 2.83282 8.32104 3.10536 6.88666C3.3779 5.45229 4.16462 4.16671 5.31784 3.27128C6.47107 2.37584 7.91148 1.93214 9.36866 2.02346C10.8258 2.11478 12.1996 2.73485 13.232 3.76725C14.2644 4.79966 14.8845 6.1734 14.9758 7.63058C15.0671 9.08777 14.6234 10.5282 13.728 11.6814C12.8325 12.8346 11.547 13.6213 10.1126 13.8939C8.6782 14.1664 7.19366 13.906 5.93767 13.1616V13.1616L3.86267 13.7491C3.77765 13.7739 3.68752 13.7755 3.6017 13.7535C3.51589 13.7316 3.43756 13.6869 3.37493 13.6243C3.3123 13.5617 3.26767 13.4833 3.24572 13.3975C3.22377 13.3117 3.2253 13.2216 3.25017 13.1366L3.83767 11.0616Z" stroke="black" stroke-width="2" stroke-linecap="round" stroke-linejoin="round"/>
</g>
<defs>
<clipPath id="clip0_5_10623">
<rect width="16" height="16" fill="white"/>
</clipPath>
</defs>
</svg>
