<svg width="16" height="16" viewBox="0 0 16 16" fill="none" xmlns="http://www.w3.org/2000/svg">
<g clip-path="url(#clip0_5_10846)">
<path d="M7.99813 15.4923C11.958 15.4923 15.1681 12.2822 15.1681 8.32234C15.1681 4.36246 11.958 1.15234 7.99813 1.15234C4.03824 1.15234 0.828125 4.36246 0.828125 8.32234C0.828125 12.2822 4.03824 15.4923 7.99813 15.4923Z" fill="#D68F30"/>
<path d="M1.31641 10.1848V10.9173C1.39141 11.1111 1.47516 11.3023 1.56641 11.4873V10.1848H1.31641ZM2.13391 11.5636V12.4436C2.23391 12.5848 2.33766 12.7236 2.44641 12.8573V11.5636H2.13391ZM3.21641 12.7136V13.6623C3.33766 13.7711 3.46266 13.8748 3.59141 13.9748V12.7136H3.21641ZM4.54891 13.5873V14.6073C4.67141 14.6748 4.79641 14.7386 4.92391 14.7998V13.5873H4.54891ZM6.06016 14.1436V15.2236C6.18391 15.2586 6.30891 15.2898 6.43516 15.3186V14.1436H6.06016ZM7.82891 14.3361V15.4873C7.88516 15.4886 7.94141 15.4911 7.99891 15.4911C8.06766 15.4911 8.13641 15.4873 8.20391 15.4861V14.3361H7.82891ZM9.59766 14.1348V15.3098C9.72391 15.2811 9.84891 15.2486 9.97266 15.2136V14.1348H9.59766ZM11.1052 13.5711V14.7848C11.2327 14.7236 11.3577 14.6573 11.4802 14.5886V13.5711H11.1052ZM12.4339 12.6898V13.9523C12.5626 13.8518 12.6877 13.7467 12.8089 13.6373V12.6898H12.4339ZM13.8852 11.5361H13.5727V12.8298C13.6814 12.6948 13.7864 12.5561 13.8852 12.4136V11.5361ZM14.6977 10.1523H14.4477V11.4573C14.5389 11.2686 14.6227 11.0748 14.6977 10.8786V10.1523Z" fill="#BC6F00"/>
<path d="M7.99813 14.8478C11.958 14.8478 15.1681 11.6377 15.1681 7.67781C15.1681 3.71793 11.958 0.507812 7.99813 0.507812C4.03824 0.507812 0.828125 3.71793 0.828125 7.67781C0.828125 11.6377 4.03824 14.8478 7.99813 14.8478Z" fill="#FFF176"/>
<path d="M8 14.209C11.6071 14.209 14.5312 11.2848 14.5312 7.67773C14.5312 4.07062 11.6071 1.14648 8 1.14648C4.39289 1.14648 1.46875 4.07062 1.46875 7.67773C1.46875 11.2848 4.39289 14.209 8 14.209Z" fill="#F2BC1A"/>
<path d="M1.45752 7.92656C1.41127 7.06656 1.56002 6.19406 1.86002 5.37656C2.17252 4.56156 2.65127 3.80781 3.25502 3.16781C4.46752 1.88531 6.22752 1.14156 8.00127 1.13281C9.77502 1.14281 11.5363 1.88531 12.7463 3.16906C13.3513 3.80781 13.8288 4.56281 14.1413 5.37656C14.4425 6.19531 14.5913 7.06656 14.5438 7.92656H14.5188C14.5163 7.06864 14.3465 6.21944 14.0188 5.42656C13.6905 4.63458 13.2112 3.91409 12.6075 3.30531C12.0035 2.69713 11.2857 2.21378 10.495 1.88281C9.7046 1.55279 8.85657 1.38286 8.00002 1.38286C7.14347 1.38286 6.29544 1.55279 5.50502 1.88281C4.71434 2.21378 3.99653 2.69713 3.39252 3.30531C2.78847 3.91376 2.30908 4.63434 1.98127 5.42656C1.65357 6.21944 1.48373 7.06864 1.48127 7.92656H1.45752Z" fill="#E08F00"/>
<path d="M7.99813 0.507812C4.03813 0.507812 0.828125 3.71781 0.828125 7.67781C0.828125 11.6378 4.03813 14.8478 7.99813 14.8478C11.9581 14.8478 15.1681 11.6378 15.1681 7.67781C15.1681 3.71781 11.9581 0.507812 7.99813 0.507812ZM7.99813 14.2091C4.39062 14.2091 1.46688 11.2853 1.46688 7.67781C1.46688 4.06906 4.39062 1.14531 7.99813 1.14531C11.6056 1.14531 14.5294 4.06906 14.5294 7.67656C14.5294 11.2841 11.6056 14.2091 7.99813 14.2091Z" fill="#FFF176"/>
<path d="M4.74813 2.66797L4.90687 3.15922L5.42438 2.96172V3.15922L5.00563 3.46297L5.16563 3.75547V3.95422L4.74813 3.65047L4.32938 3.95422V3.75547L4.48937 3.46297L4.07188 3.15922V2.96172L4.58812 3.15922L4.74813 2.66797ZM2.75063 5.48797L2.91063 5.97922L3.42688 5.78172V5.97922L3.00938 6.28297L3.16938 6.57672V6.77422L2.75063 6.47047L2.33313 6.77422V6.57672L2.49313 6.28297L2.07438 5.97922V5.78172L2.59188 5.97922L2.75063 5.48797ZM2.69188 8.96422L2.85188 9.45547L3.36813 9.25797V9.45547L2.95063 9.75922L3.11063 10.053V10.2505L2.69188 9.94672L2.27438 10.2505V10.053L2.43438 9.75922L2.01562 9.45547V9.25797L2.53313 9.45547L2.69188 8.96422ZM4.82437 11.7242L4.98438 12.2155L5.50062 12.018V12.2155L5.08312 12.5192L5.24313 12.8117V13.0105L4.82437 12.7067L4.40687 13.0105V12.8117L4.56688 12.5192L4.14812 12.2155V12.018L4.66563 12.2155L4.82437 11.7242ZM11.2506 2.66797L11.0919 3.15922L10.5744 2.96172V3.15922L10.9931 3.46297L10.8331 3.75547V3.95422L11.2506 3.65047L11.6694 3.95422V3.75547L11.5094 3.46297L11.9269 3.15922V2.96172L11.4106 3.15922L11.2506 2.66797ZM13.2481 5.48797L13.0881 5.97922L12.5719 5.78172V5.97922L12.9894 6.28297L12.8294 6.57672V6.77422L13.2481 6.47047L13.6656 6.77422V6.57672L13.5056 6.28297L13.9244 5.97922V5.78172L13.4069 5.97922L13.2481 5.48797ZM13.3069 8.96422L13.1469 9.45547L12.6306 9.25797V9.45547L13.0481 9.75922L12.8881 10.053V10.2505L13.3069 9.94672L13.7244 10.2505V10.053L13.5644 9.75922L13.9831 9.45547V9.25797L13.4656 9.45547L13.3069 8.96422ZM11.1744 11.7242L11.0144 12.2155L10.4981 12.018V12.2155L10.9156 12.5192L10.7556 12.8117V13.0105L11.1744 12.7067L11.5919 13.0105V12.8117L11.4319 12.5192L11.8506 12.2155V12.018L11.3331 12.2155L11.1744 11.7242Z" fill="#D38200"/>
<path d="M11.1763 11.527L11.335 12.0182H11.8525L11.4338 12.322L11.5938 12.8132L11.1763 12.5095L10.7575 12.8132L10.9175 12.322L10.5 12.0182H11.0163L11.1763 11.527ZM13.3088 8.7682L13.4675 9.25945H13.985L13.5662 9.5632L13.7263 10.0545L13.3088 9.7507L12.89 10.0545L13.05 9.5632L12.6325 9.25945H13.1488L13.3088 8.7682ZM13.25 5.29195L13.4088 5.7832H13.9263L13.5075 6.08695L13.6675 6.5782L13.25 6.27445L12.8313 6.5782L12.9913 6.08695L12.5738 5.7832H13.09L13.25 5.29195ZM11.2525 2.4707L11.4125 2.96195H11.9288L11.5113 3.2657L11.6713 3.75695L11.2525 3.4532L10.835 3.75695L10.995 3.2657L10.5763 2.96195H11.0938L11.2525 2.4707Z" fill="#FFF176"/>
<path d="M8.00438 12.8125L8.16438 13.3038L8.68062 13.1062V13.3038L8.26313 13.6075L8.42313 13.9012V14.0988L8.00438 13.795L7.58687 14.0988V13.9012L7.74688 13.6075L7.32812 13.3038V13.1062L7.84562 13.3038L8.00438 12.8125Z" fill="#D38200"/>
<path d="M8.00438 12.5508L8.16438 13.042H8.68062L8.26313 13.3458L8.42313 13.837L8.00438 13.5333L7.58687 13.837L7.74688 13.3458L7.32812 13.042H7.84562L8.00438 12.5508Z" fill="#FFF176"/>
<path d="M8.00438 1.61133L8.16438 2.10258L8.68062 1.90508V2.10258L8.26313 2.40633L8.42313 2.70008V2.89758L8.00438 2.59383L7.58687 2.89758V2.70008L7.74688 2.40633L7.32812 2.10258V1.90508L7.84562 2.10258L8.00438 1.61133Z" fill="#D38200"/>
<path d="M8.00563 1.41406L8.16563 1.90531H8.68188L8.26438 2.20906L8.42438 2.70031L8.00563 2.39656L7.58813 2.70031L7.74813 2.20906L7.32938 1.90531H7.84688L8.00563 1.41406ZM4.82437 11.5266L4.66563 12.0178H4.14812L4.56688 12.3216L4.40687 12.8128L4.82437 12.5091L5.24313 12.8128L5.08312 12.3216L5.50062 12.0178H4.98438L4.82437 11.5266ZM2.69188 8.76781L2.53313 9.25906H2.01562L2.43438 9.56281L2.27438 10.0541L2.69188 9.75031L3.11063 10.0541L2.95063 9.56281L3.36813 9.25906H2.85188L2.69188 8.76781ZM2.75063 5.29156L2.59188 5.78281H2.07438L2.49313 6.08656L2.33313 6.57781L2.75063 6.27406L3.16938 6.57781L3.00938 6.08656L3.42688 5.78281H2.91063L2.75063 5.29156ZM4.74813 2.47031L4.58812 2.96156H4.07188L4.48937 3.26531L4.32938 3.75656L4.74813 3.45281L5.16563 3.75656L5.00563 3.26531L5.42438 2.96156H4.90687L4.74813 2.47031Z" fill="#FFF176"/>
<path d="M11.9022 6.0253C11.9022 5.98155 4.10469 6.0253 4.10469 6.0253L4.03469 6.2353V6.59405C4.03469 6.65905 4.08719 6.71155 4.15219 6.71155H11.8472C11.9122 6.71155 11.9647 6.65905 11.9647 6.59405V6.2453L11.9022 6.0253ZM11.9134 10.6878H4.13719L3.61719 10.9491L3.62344 11.2853C3.62469 11.3216 3.65469 11.3516 3.69219 11.3516H12.3084C12.3447 11.3516 12.3759 11.3228 12.3772 11.2853L12.3834 10.9553L11.9134 10.6878Z" fill="#D38200"/>
<path d="M5.39313 9.66422H4.94562C4.87187 9.66422 4.81187 9.43172 4.81187 9.35797L5.52562 9.33547C5.52562 9.40922 5.46563 9.66422 5.39313 9.66422ZM5.54562 7.25047H4.79187C4.73562 7.25047 4.68687 7.21297 4.67062 7.15922L4.61188 6.66797H5.71562L5.66563 7.15922C5.65063 7.21297 5.60187 7.25047 5.54562 7.25047ZM4.79187 9.81297H5.54562C5.60187 9.81297 5.71313 9.84797 5.72813 9.90172C5.72813 9.90172 5.72437 10.1355 5.72437 10.228C5.72437 10.3205 5.68688 10.388 5.60313 10.388H4.73438C4.65062 10.388 4.61312 10.313 4.61312 10.228C4.61312 10.143 4.60938 9.90422 4.60938 9.90422C4.62562 9.85047 4.73562 9.81297 4.79187 9.81297ZM11.2056 9.66422H10.7581C10.6844 9.66422 10.6244 9.43172 10.6244 9.35797L11.3381 9.33547C11.3381 9.40922 11.2794 9.66422 11.2056 9.66422ZM11.3581 7.25047H10.6044C10.5481 7.25047 10.4994 7.21297 10.4831 7.15922L10.4244 6.66797H11.5281L11.4781 7.15922C11.4631 7.21297 11.4144 7.25047 11.3581 7.25047ZM10.6044 9.81297H11.3581C11.4144 9.81297 11.5256 9.84797 11.5406 9.90172C11.5406 9.90172 11.5369 10.1355 11.5369 10.228C11.5369 10.3205 11.4994 10.388 11.4156 10.388H10.5469C10.4631 10.388 10.4256 10.313 10.4256 10.228C10.4256 10.143 10.4219 9.90422 10.4219 9.90422C10.4381 9.85047 10.5481 9.81297 10.6044 9.81297ZM9.26812 9.66422H8.82063C8.74688 9.66422 8.68688 9.43172 8.68688 9.35797L9.40063 9.33547C9.40063 9.40922 9.34187 9.66422 9.26812 9.66422ZM9.42062 7.25047H8.66687C8.61062 7.25047 8.56187 7.21297 8.54562 7.15922L8.48687 6.66797H9.59062L9.54062 7.15922C9.52562 7.21297 9.47687 7.25047 9.42062 7.25047ZM8.66687 9.81297H9.42062C9.47687 9.81297 9.58812 9.84797 9.60312 9.90172C9.60312 9.90172 9.59937 10.1355 9.59937 10.228C9.59937 10.3205 9.56187 10.388 9.47812 10.388H8.60938C8.52562 10.388 8.48812 10.313 8.48812 10.228C8.48812 10.143 8.48438 9.90422 8.48438 9.90422C8.50062 9.85047 8.61062 9.81297 8.66687 9.81297ZM7.33063 9.66422H6.88312C6.80937 9.66422 6.74937 9.43172 6.74937 9.35797L7.46312 9.33547C7.46312 9.40922 7.40438 9.66422 7.33063 9.66422ZM7.48312 7.25047H6.72937C6.67312 7.25047 6.62437 7.21297 6.60812 7.15922L6.54938 6.66797H7.65312L7.60313 7.15922C7.58812 7.21297 7.53937 7.25047 7.48312 7.25047ZM6.72937 9.81297H7.48312C7.53937 9.81297 7.65062 9.84797 7.66563 9.90172C7.66563 9.90172 7.66187 10.1355 7.66187 10.228C7.66187 10.3205 7.62438 10.388 7.54063 10.388H6.67188C6.58812 10.388 6.55062 10.313 6.55062 10.228C6.55062 10.143 6.54688 9.90422 6.54688 9.90422C6.56313 9.85047 6.67312 9.81297 6.72937 9.81297Z" fill="#D38200"/>
<path d="M11.9589 5.69055C11.9589 5.6468 11.9364 5.60555 11.9027 5.58555L8.00516 3.37305L4.10266 5.58305C4.06516 5.60555 4.04141 5.6468 4.04141 5.69055L4.03516 6.2368C4.03516 6.30555 4.09141 6.3618 4.16016 6.3618H11.8389C11.9077 6.3618 11.9639 6.30555 11.9639 6.2368L11.9589 5.69055Z" fill="#FFF176"/>
<path d="M10.9795 5.54086L7.99953 3.84961L5.01953 5.54086H10.9795Z" fill="#F2BC1A"/>
<path d="M9.88534 5.33563L8.00159 4.26562L6.11784 5.33563H9.88534ZM11.6753 10.2531H4.32784C4.25534 10.2531 4.18659 10.2844 4.13784 10.3381L3.63284 10.9019C3.59784 10.9406 3.62534 11.0019 3.67784 11.0019H12.3253C12.3766 11.0019 12.4041 10.9406 12.3703 10.9019L11.8641 10.3381C11.8166 10.2844 11.7466 10.2531 11.6753 10.2531ZM11.2053 9.43938H10.7578C10.6841 9.43938 10.6241 9.37938 10.6241 9.30563V7.30813C10.6241 7.23438 10.6841 7.17438 10.7578 7.17438H11.2053C11.2791 7.17438 11.3391 7.23438 11.3391 7.30813V9.30687C11.3391 9.38062 11.2791 9.43938 11.2053 9.43938ZM11.3591 7.02563H10.6053C10.5491 7.02563 10.5003 6.98813 10.4841 6.93438L10.4266 6.73563C10.4028 6.65563 10.4641 6.57562 10.5478 6.57562H11.4166C11.5003 6.57562 11.5603 6.65563 11.5378 6.73563L11.4803 6.93438C11.4641 6.98813 11.4141 7.02563 11.3591 7.02563ZM10.6041 9.58938H11.3578C11.4141 9.58938 11.4628 9.62688 11.4791 9.68063L11.5366 9.87937C11.5603 9.95937 11.4991 10.0394 11.4153 10.0394H10.5466C10.4628 10.0394 10.4028 9.95937 10.4253 9.87937L10.4828 9.68063C10.4991 9.62563 10.5491 9.58938 10.6041 9.58938ZM5.39284 9.43938H4.94534C4.87159 9.43938 4.81159 9.37938 4.81159 9.30563V7.30813C4.81159 7.23438 4.87159 7.17438 4.94534 7.17438H5.39284C5.46659 7.17438 5.52659 7.23438 5.52659 7.30813V9.30687C5.52534 9.38062 5.46534 9.43938 5.39284 9.43938ZM5.54534 7.02563H4.79159C4.73534 7.02563 4.68659 6.98813 4.67034 6.93438L4.61284 6.73563C4.58909 6.65563 4.65034 6.57562 4.73409 6.57562H5.60284C5.68659 6.57562 5.74659 6.65563 5.72409 6.73563L5.66659 6.93438C5.65034 6.98813 5.60159 7.02563 5.54534 7.02563ZM4.79159 9.58938H5.54534C5.60159 9.58938 5.65034 9.62688 5.66659 9.68063L5.72409 9.87937C5.74784 9.95937 5.68659 10.0394 5.60284 10.0394H4.73409C4.65034 10.0394 4.59034 9.95937 4.61284 9.87937L4.67034 9.68063C4.68659 9.62563 4.73534 9.58938 4.79159 9.58938ZM7.33034 9.43938H6.88284C6.80909 9.43938 6.74909 9.37938 6.74909 9.30563V7.30813C6.74909 7.23438 6.80909 7.17438 6.88284 7.17438H7.33034C7.40409 7.17438 7.46409 7.23438 7.46409 7.30813V9.30687C7.46376 9.34213 7.44952 9.37583 7.42447 9.40064C7.39943 9.42546 7.36559 9.43938 7.33034 9.43938ZM7.48284 7.02563H6.72909C6.67284 7.02563 6.62409 6.98813 6.60784 6.93438L6.55034 6.73563C6.52659 6.65563 6.58784 6.57562 6.67159 6.57562H7.54034C7.62409 6.57562 7.68409 6.65563 7.66159 6.73563L7.60409 6.93438C7.58784 6.98813 7.53909 7.02563 7.48284 7.02563ZM6.72909 9.58938H7.48284C7.53909 9.58938 7.58784 9.62688 7.60409 9.68063L7.66159 9.87937C7.68534 9.95937 7.62409 10.0394 7.54034 10.0394H6.67159C6.58784 10.0394 6.52784 9.95937 6.55034 9.87937L6.60784 9.68063C6.62409 9.62563 6.67284 9.58938 6.72909 9.58938ZM9.26784 9.43938H8.82034C8.74659 9.43938 8.68659 9.37938 8.68659 9.30563V7.30813C8.68659 7.23438 8.74659 7.17438 8.82034 7.17438H9.26784C9.34159 7.17438 9.40159 7.23438 9.40159 7.30813V9.30687C9.40126 9.34213 9.38702 9.37583 9.36197 9.40064C9.33693 9.42546 9.30309 9.43938 9.26784 9.43938ZM9.42034 7.02563H8.66659C8.61034 7.02563 8.56159 6.98813 8.54534 6.93438L8.48784 6.73563C8.46409 6.65563 8.52534 6.57562 8.60909 6.57562H9.47784C9.56159 6.57562 9.62159 6.65563 9.59909 6.73563L9.54159 6.93438C9.52534 6.98813 9.47659 7.02563 9.42034 7.02563ZM8.66659 9.58938H9.42034C9.47659 9.58938 9.52534 9.62688 9.54159 9.68063L9.59909 9.87937C9.62284 9.95937 9.56159 10.0394 9.47784 10.0394H8.60909C8.52534 10.0394 8.46534 9.95937 8.48784 9.87937L8.54534 9.68063C8.56159 9.62563 8.61159 9.58938 8.66659 9.58938Z" fill="#FFF176"/>
</g>
<defs>
<clipPath id="clip0_5_10846">
<rect width="16" height="16" fill="white"/>
</clipPath>
</defs>
</svg>
