<svg width="18" height="18" viewBox="0 0 18 18" fill="none" xmlns="http://www.w3.org/2000/svg">
<path d="M17 1H1V17H17V1Z" stroke="#161313" stroke-width="0.125"/>
<path d="M4 9.72461V13.9996C4 14.1322 4.05268 14.2594 4.14645 14.3532C4.24021 14.4469 4.36739 14.4996 4.5 14.4996H13.5C13.6326 14.4996 13.7598 14.4469 13.8536 14.3532C13.9473 14.2594 14 14.1322 14 13.9996V9.72461" stroke="#161313" stroke-width="2" stroke-linecap="round" stroke-linejoin="round"/>
<path d="M4.375 3.5H13.625C13.7335 3.50089 13.8388 3.5366 13.9254 3.60186C14.0121 3.66713 14.0755 3.75849 14.1062 3.8625L15 7H3L3.89375 3.8625C3.92455 3.75849 3.98794 3.66713 4.07458 3.60186C4.16122 3.5366 4.26653 3.50089 4.375 3.5V3.5Z" stroke="#161313" stroke-width="2" stroke-linecap="round" stroke-linejoin="round"/>
<path d="M7 7V8C7 8.53043 6.78929 9.03914 6.41421 9.41421C6.03914 9.78929 5.53043 10 5 10C4.46957 10 3.96086 9.78929 3.58579 9.41421C3.21071 9.03914 3 8.53043 3 8V7" stroke="#161313" stroke-width="2" stroke-linecap="round" stroke-linejoin="round"/>
<path d="M11 7V8C11 8.53043 10.7893 9.03914 10.4142 9.41421C10.0391 9.78929 9.53043 10 9 10C8.46957 10 7.96086 9.78929 7.58579 9.41421C7.21071 9.03914 7 8.53043 7 8V7" stroke="#161313" stroke-width="2" stroke-linecap="round" stroke-linejoin="round"/>
<path d="M15 7V8C15 8.53043 14.7893 9.03914 14.4142 9.41421C14.0391 9.78929 13.5304 10 13 10C12.4696 10 11.9609 9.78929 11.5858 9.41421C11.2107 9.03914 11 8.53043 11 8V7" stroke="#161313" stroke-width="2" stroke-linecap="round" stroke-linejoin="round"/>
</svg>
