<svg width="14" height="13" viewBox="0 0 14 13" fill="none" xmlns="http://www.w3.org/2000/svg">
<path d="M8.35625 10.2437L7.43125 11.7875C7.38595 11.8612 7.32253 11.922 7.24703 11.9642C7.17154 12.0064 7.08649 12.0286 7 12.0286C6.91351 12.0286 6.82846 12.0064 6.75297 11.9642C6.67747 11.922 6.61405 11.8612 6.56875 11.7875L5.64375 10.2437C5.60024 10.1697 5.53815 10.1082 5.46362 10.0654C5.38908 10.0227 5.30468 10.0001 5.21875 10H1.5C1.36739 10 1.24021 9.94732 1.14645 9.85355C1.05268 9.75979 1 9.63261 1 9.5V1.5C1 1.36739 1.05268 1.24021 1.14645 1.14645C1.24021 1.05268 1.36739 1 1.5 1H12.5C12.6326 1 12.7598 1.05268 12.8536 1.14645C12.9473 1.24021 13 1.36739 13 1.5V9.5C13 9.63261 12.9473 9.75979 12.8536 9.85355C12.7598 9.94732 12.6326 10 12.5 10H8.78125C8.69532 10.0001 8.61092 10.0227 8.53638 10.0654C8.46185 10.1082 8.39976 10.1697 8.35625 10.2437V10.2437Z" stroke="black" stroke-opacity="0.8" stroke-width="1.5" stroke-linecap="round" stroke-linejoin="round"/>
</svg>
