<svg width="12" height="12" viewBox="0 0 12 12" fill="none" xmlns="http://www.w3.org/2000/svg">
<path d="M11.5 0.25H3.5C3.4337 0.25 3.37011 0.276339 3.32322 0.323223C3.27634 0.370107 3.25 0.433696 3.25 0.5V3.25H0.5C0.433696 3.25 0.370107 3.27634 0.323223 3.32322C0.276339 3.37011 0.25 3.4337 0.25 3.5V11.5C0.25 11.5663 0.276339 11.6299 0.323223 11.6768C0.370107 11.7237 0.433696 11.75 0.5 11.75H8.5C8.5663 11.75 8.62989 11.7237 8.67678 11.6768C8.72366 11.6299 8.75 11.5663 8.75 11.5V8.75H11.5C11.5663 8.75 11.6299 8.72366 11.6768 8.67678C11.7237 8.62989 11.75 8.5663 11.75 8.5V0.5C11.75 0.433696 11.7237 0.370107 11.6768 0.323223C11.6299 0.276339 11.5663 0.25 11.5 0.25ZM8.25 11.25H0.75V3.75H8.25V11.25ZM11.25 8.25H8.75V3.5C8.75 3.4337 8.72366 3.37011 8.67678 3.32322C8.62989 3.27634 8.5663 3.25 8.5 3.25H3.75V0.75H11.25V8.25Z" fill="black"/>
</svg>
