<svg width="14" height="10" viewBox="0 0 14 10" fill="none" xmlns="http://www.w3.org/2000/svg">
<g clip-path="url(#clip0_5_11064)">
<path d="M7.68319 4.33546L4.99985 1.66602L2.31652 4.33546C2.28486 4.35957 2.25875 4.3902 2.23996 4.42527C2.22117 4.46035 2.21013 4.49906 2.20759 4.53877C2.20506 4.57848 2.21109 4.61828 2.22527 4.65546C2.23945 4.69264 2.26146 4.72634 2.2898 4.75427C2.31814 4.78221 2.35215 4.80373 2.38953 4.81738C2.42691 4.83103 2.46678 4.83649 2.50645 4.83339C2.54613 4.83029 2.58467 4.8187 2.61947 4.79941C2.65428 4.78012 2.68453 4.75357 2.70819 4.72157L4.72208 2.72435V8.03824C4.72208 8.11191 4.75134 8.18256 4.80343 8.23466C4.85553 8.28675 4.92618 8.31602 4.99985 8.31602C5.07352 8.31602 5.14418 8.28675 5.19627 8.23466C5.24837 8.18256 5.27763 8.11191 5.27763 8.03824V2.72435L7.29152 4.72157C7.34383 4.77351 7.41462 4.80254 7.48834 4.80228C7.56205 4.80202 7.63264 4.77249 7.68458 4.72018C7.73651 4.66788 7.76555 4.59708 7.76529 4.52337C7.76503 4.44965 7.73549 4.37907 7.68319 4.32713V4.33546Z" fill="#403F3F"/>
</g>
<g clip-path="url(#clip1_5_11064)">
<path d="M11.6832 5.66454L8.99985 8.33398L6.31652 5.66454C6.28486 5.64043 6.25875 5.6098 6.23996 5.57473C6.22117 5.53965 6.21013 5.50094 6.20759 5.46123C6.20506 5.42152 6.21109 5.38172 6.22527 5.34454C6.23945 5.30736 6.26146 5.27366 6.2898 5.24573C6.31814 5.21779 6.35215 5.19627 6.38953 5.18262C6.42691 5.16897 6.46678 5.16351 6.50645 5.16661C6.54613 5.16971 6.58467 5.1813 6.61947 5.20059C6.65428 5.21988 6.68453 5.24643 6.70819 5.27843L8.72208 7.27565V1.96176C8.72208 1.88809 8.75134 1.81744 8.80343 1.76534C8.85553 1.71325 8.92618 1.68398 8.99985 1.68398C9.07352 1.68398 9.14418 1.71325 9.19627 1.76534C9.24837 1.81744 9.27763 1.88809 9.27763 1.96176V7.27565L11.2915 5.27843C11.3438 5.22649 11.4146 5.19746 11.4883 5.19772C11.562 5.19798 11.6326 5.22751 11.6846 5.27982C11.7365 5.33212 11.7655 5.40292 11.7653 5.47663C11.765 5.55035 11.7355 5.62093 11.6832 5.67287V5.66454Z" fill="#403F3F"/>
</g>
<defs>
<clipPath id="clip0_5_11064">
<rect width="10" height="10" fill="white"/>
</clipPath>
<clipPath id="clip1_5_11064">
<rect width="10" height="10" fill="white" transform="matrix(1 0 0 -1 4 10)"/>
</clipPath>
</defs>
</svg>
