<svg width="24" height="24" viewBox="0 0 24 24" fill="none" xmlns="http://www.w3.org/2000/svg">
<path d="M3.00057 19.0006H21.0006C21.1828 19 21.3615 18.9498 21.5173 18.8552C21.673 18.7607 21.8001 18.6254 21.8848 18.464C21.9694 18.3027 22.0085 18.1212 21.9977 17.9393C21.9869 17.7574 21.9267 17.5819 21.8236 17.4316L12.8236 4.43159C12.4506 3.89259 11.5526 3.89259 11.1786 4.43159L2.17857 17.4316C2.0744 17.5815 2.01331 17.7572 2.00194 17.9394C1.99057 18.1216 2.02936 18.3035 2.11409 18.4652C2.19882 18.6269 2.32625 18.7623 2.48254 18.8567C2.63883 18.9511 2.81799 19.0009 3.00057 19.0006Z" fill="white"/>
</svg>
