<svg width="13" height="15" viewBox="0 0 13 15" fill="none" xmlns="http://www.w3.org/2000/svg">
<path d="M12.5154 9.84236L12.9854 7.12236C13.013 6.96294 13.0054 6.79942 12.9632 6.64323C12.921 6.48704 12.8452 6.34197 12.741 6.21815C12.6369 6.09432 12.507 5.99475 12.3603 5.92639C12.2137 5.85802 12.0539 5.82252 11.8921 5.82236H8.43809C8.35748 5.82238 8.27783 5.80485 8.20468 5.77099C8.13153 5.73712 8.06663 5.68774 8.01448 5.62627C7.96234 5.5648 7.9242 5.49272 7.90272 5.41502C7.88124 5.33733 7.87693 5.25589 7.89009 5.17636L8.33209 2.4797C8.40382 2.04185 8.38338 1.59386 8.27209 1.16436C8.22447 0.986897 8.13276 0.824349 8.00548 0.691827C7.8782 0.559304 7.71949 0.461107 7.54409 0.406362L7.44742 0.375029C7.22887 0.304822 6.99171 0.321046 6.78475 0.420362C6.55809 0.529696 6.39276 0.729029 6.33142 0.965696L6.01409 2.18836C5.91306 2.57745 5.76626 2.95318 5.57675 3.3077C5.30009 3.8257 4.87209 4.24103 4.42675 4.62436L3.46742 5.45103C3.33433 5.56604 3.23039 5.71094 3.16411 5.87387C3.09782 6.0368 3.07109 6.21311 3.08609 6.38836L3.62742 12.6504C3.65128 12.9273 3.77812 13.1852 3.98288 13.3732C4.18765 13.5612 4.45546 13.6656 4.73342 13.6657H7.83209C10.1534 13.6657 12.1341 12.0484 12.5154 9.84236Z" fill="#4F0DA3"/>
<path fill-rule="evenodd" clip-rule="evenodd" d="M0.978719 5.32274C1.10756 5.31711 1.23359 5.36148 1.33049 5.44658C1.42739 5.53167 1.48766 5.65092 1.49872 5.77941L2.14539 13.2701C2.15634 13.3816 2.14444 13.4942 2.11041 13.601C2.07639 13.7078 2.02095 13.8066 1.94748 13.8912C1.87401 13.9759 1.78406 14.0446 1.68312 14.0934C1.58218 14.1421 1.47237 14.1697 1.36039 14.1746C1.24841 14.1794 1.13661 14.1614 1.03183 14.1216C0.927055 14.0818 0.831488 14.0211 0.750971 13.9431C0.670454 13.8651 0.606678 13.7715 0.563536 13.6681C0.520394 13.5646 0.498793 13.4535 0.500052 13.3414V5.82208C0.500107 5.6932 0.549923 5.56932 0.639108 5.47628C0.728293 5.38325 0.849958 5.32824 0.978719 5.32274Z" fill="#4F0DA3"/>
</svg>
