<svg width="19" height="18" viewBox="0 0 19 18" fill="none" xmlns="http://www.w3.org/2000/svg">
<path d="M9.86573 0.0625C8.09806 0.0625 6.37008 0.586675 4.90032 1.56874C3.43055 2.55081 2.28501 3.94665 1.60855 5.57977C0.932095 7.21288 0.755103 9.00992 1.09996 10.7436C1.44481 12.4773 2.29603 14.0698 3.54596 15.3198C4.79589 16.5697 6.3884 17.4209 8.12211 17.7658C9.85581 18.1106 11.6528 17.9336 13.286 17.2572C14.9191 16.5807 16.3149 15.4352 17.297 13.9654C18.2791 12.4956 18.8032 10.7677 18.8032 9C18.7987 6.63102 17.8556 4.36037 16.1805 2.68525C14.5054 1.01013 12.2347 0.0670426 9.86573 0.0625ZM14.1196 7.43594L9.0837 12.2484C8.9535 12.3709 8.78119 12.4386 8.60245 12.4375C8.51508 12.4388 8.42833 12.4227 8.34721 12.3902C8.26608 12.3578 8.19219 12.3096 8.12979 12.2484L5.61182 9.84219C5.54198 9.78126 5.48518 9.70683 5.44484 9.62339C5.4045 9.53995 5.38144 9.44921 5.37706 9.35663C5.37268 9.26405 5.38707 9.17154 5.41935 9.08466C5.45164 8.99778 5.50115 8.91833 5.56493 8.85108C5.6287 8.78382 5.70542 8.73016 5.79046 8.69331C5.8755 8.65646 5.96712 8.63719 6.0598 8.63665C6.15248 8.63611 6.24432 8.65432 6.32978 8.69018C6.41525 8.72604 6.49258 8.7788 6.55713 8.84531L8.60245 10.7961L13.1743 6.43906C13.308 6.32244 13.4816 6.262 13.6588 6.27038C13.836 6.27876 14.0031 6.35532 14.1252 6.48405C14.2472 6.61278 14.3148 6.78371 14.3138 6.9611C14.3128 7.1385 14.2432 7.30864 14.1196 7.43594Z" fill="#74B208"/>
</svg>
