<svg width="14" height="13" viewBox="0 0 14 13" fill="none" xmlns="http://www.w3.org/2000/svg">
<g clip-path="url(#clip0_5_6952)">
<path d="M2.26631 2.23828C1.4824 2.23828 0.846191 2.87449 0.846191 3.6584V9.33887C0.846191 10.1228 1.4824 10.759 2.26631 10.759H11.7338C12.5177 10.759 13.1539 10.1228 13.1539 9.33887V3.6584C13.1539 2.87449 12.5177 2.23828 11.7338 2.23828H2.26631ZM2.26631 3.18503H11.7338C11.9946 3.18503 12.2071 3.39757 12.2071 3.6584V3.89509L7.00004 6.70597L1.79294 3.89509V3.6584C1.79294 3.39757 2.00548 3.18503 2.26631 3.18503ZM1.79294 4.0281L4.88453 6.43946L1.85211 9.54621L5.55057 6.91284L7.00004 7.84491L8.44998 6.91284L12.148 9.54621L9.11554 6.43946L12.2071 4.0281V9.33887C12.2045 9.41176 12.1842 9.48292 12.148 9.54621C12.0699 9.70006 11.9179 9.81225 11.7338 9.81225H2.26631C2.08217 9.81225 1.93022 9.70053 1.85211 9.54621C1.81594 9.48306 1.79563 9.4116 1.79294 9.33887V4.0281Z" fill="white"/>
</g>
<defs>
<clipPath id="clip0_5_6952">
<rect width="12.3077" height="12.3077" fill="white" transform="translate(0.846191 0.345703)"/>
</clipPath>
</defs>
</svg>
