<svg width="33" height="30" viewBox="0 0 33 30" fill="none" xmlns="http://www.w3.org/2000/svg">
<path d="M16.5498 25.9273C23.1772 25.9273 28.5498 21.1411 28.5498 15.237C28.5498 9.33295 23.1772 4.54675 16.5498 4.54675C9.92239 4.54675 4.5498 9.33295 4.5498 15.237C4.5498 21.1411 9.92239 25.9273 16.5498 25.9273Z" stroke="white" stroke-opacity="0.8" stroke-width="2" stroke-miterlimit="10"/>
<path d="M16.5498 16.5733C17.3782 16.5733 18.0498 15.975 18.0498 15.237C18.0498 14.499 17.3782 13.9007 16.5498 13.9007C15.7214 13.9007 15.0498 14.499 15.0498 15.237C15.0498 15.975 15.7214 16.5733 16.5498 16.5733Z" fill="white"/>
<path d="M22.5498 16.5733C23.3782 16.5733 24.0498 15.975 24.0498 15.237C24.0498 14.499 23.3782 13.9007 22.5498 13.9007C21.7214 13.9007 21.0498 14.499 21.0498 15.237C21.0498 15.975 21.7214 16.5733 22.5498 16.5733Z" fill="white"/>
<path d="M10.5498 16.5733C11.3782 16.5733 12.0498 15.975 12.0498 15.237C12.0498 14.499 11.3782 13.9007 10.5498 13.9007C9.72138 13.9007 9.0498 14.499 9.0498 15.237C9.0498 15.975 9.72138 16.5733 10.5498 16.5733Z" fill="white"/>
</svg>
