<svg width="16" height="16" viewBox="0 0 16 16" fill="none" xmlns="http://www.w3.org/2000/svg">
<mask id="mask0_5_10819" style="mask-type:luminance" maskUnits="userSpaceOnUse" x="2" y="0" width="13" height="16">
<path d="M10.0026 10.0007C11.0026 10.0007 11.6693 10.6273 11.6693 11.334H13.6693V1.33398H11.6693C11.6693 2.00065 11.0026 2.66732 10.0026 2.66732C9.0026 2.66732 8.33594 2.00065 8.33594 1.33398H6.33594V6.00065" stroke="white" stroke-width="1.33333" stroke-linecap="round" stroke-linejoin="round"/>
<path d="M10.0013 14.668H8.0013C8.0013 13.9613 7.33464 13.3346 6.33464 13.3346C5.33464 13.3346 4.66797 13.9613 4.66797 14.668H2.66797V4.66797H4.66797C4.66797 5.33464 5.33464 6.0013 6.33464 6.0013C7.33464 6.0013 8.0013 5.33464 8.0013 4.66797H10.0013V14.668Z" fill="white" stroke="white" stroke-width="1.33333" stroke-linecap="round" stroke-linejoin="round"/>
<path d="M4.66667 8.66732C5.03486 8.66732 5.33333 8.36884 5.33333 8.00065C5.33333 7.63246 5.03486 7.33398 4.66667 7.33398C4.29848 7.33398 4 7.63246 4 8.00065C4 8.36884 4.29848 8.66732 4.66667 8.66732Z" fill="black"/>
<path d="M6.33464 8.66732C6.70283 8.66732 7.0013 8.36884 7.0013 8.00065C7.0013 7.63246 6.70283 7.33398 6.33464 7.33398C5.96645 7.33398 5.66797 7.63246 5.66797 8.00065C5.66797 8.36884 5.96645 8.66732 6.33464 8.66732Z" fill="black"/>
<path d="M8.0026 8.66732C8.37079 8.66732 8.66927 8.36884 8.66927 8.00065C8.66927 7.63246 8.37079 7.33398 8.0026 7.33398C7.63441 7.33398 7.33594 7.63246 7.33594 8.00065C7.33594 8.36884 7.63441 8.66732 8.0026 8.66732Z" fill="black"/>
</mask>
<g mask="url(#mask0_5_10819)">
<path d="M0 0H16V16H0V0Z" fill="black"/>
</g>
</svg>
