<svg width="32" height="33" viewBox="0 0 32 33" fill="none" xmlns="http://www.w3.org/2000/svg">
<path d="M2 6.86426C3.77 6.12426 6.308 5.32626 8.776 5.07826C11.436 4.81026 13.692 5.20426 15 6.58226V26.0743C13.13 25.0143 10.76 24.8683 8.574 25.0883C6.214 25.3283 3.834 26.0103 2 26.7103V6.86426ZM17 6.58226C18.308 5.20426 20.564 4.81026 23.224 5.07826C25.692 5.32626 28.23 6.12426 30 6.86426V26.7103C28.164 26.0103 25.786 25.3263 23.426 25.0903C21.238 24.8683 18.87 25.0123 17 26.0743V6.58226ZM16 4.77426C14.03 3.08026 11.174 2.82826 8.574 3.08826C5.546 3.39426 2.49 4.43226 0.586 5.29826C0.411298 5.37771 0.263151 5.50576 0.159242 5.66712C0.0553334 5.82848 5.31428e-05 6.01634 0 6.20826L0 28.2083C4.6324e-05 28.3756 0.0420743 28.5402 0.122234 28.6871C0.202394 28.8339 0.318123 28.9583 0.458822 29.0489C0.59952 29.1394 0.760689 29.1932 0.927567 29.2054C1.09444 29.2175 1.2617 29.1875 1.414 29.1183C3.178 28.3183 6.02 27.3563 8.774 27.0783C11.592 26.7943 13.954 27.2523 15.22 28.8323C15.3137 28.9491 15.4324 29.0433 15.5674 29.1081C15.7024 29.1729 15.8503 29.2065 16 29.2065C16.1497 29.2065 16.2976 29.1729 16.4326 29.1081C16.5676 29.0433 16.6863 28.9491 16.78 28.8323C18.046 27.2523 20.408 26.7943 23.224 27.0783C25.98 27.3563 28.824 28.3183 30.586 29.1183C30.7383 29.1875 30.9056 29.2175 31.0724 29.2054C31.2393 29.1932 31.4005 29.1394 31.5412 29.0489C31.6819 28.9583 31.7976 28.8339 31.8778 28.6871C31.9579 28.5402 32 28.3756 32 28.2083V6.20826C31.9999 6.01634 31.9447 5.82848 31.8408 5.66712C31.7368 5.50576 31.5887 5.37771 31.414 5.29826C29.51 4.43226 26.454 3.39426 23.426 3.08826C20.826 2.82626 17.97 3.08026 16 4.77426Z" fill="#C47EFB"/>
</svg>
