<svg width="32" height="33" viewBox="0 0 32 33" fill="none" xmlns="http://www.w3.org/2000/svg">
<path d="M28.707 20.168L26 17.461V13.875C25.9969 11.3968 25.075 9.00785 23.4126 7.16998C21.7502 5.33212 19.4654 4.17593 17 3.925V1.875H15V3.925C12.5346 4.17593 10.2498 5.33212 8.58737 7.16998C6.92498 9.00785 6.0031 11.3968 6 13.875V17.461L3.293 20.168C3.10545 20.3555 3.00006 20.6098 3 20.875V23.875C3 24.1402 3.10536 24.3946 3.29289 24.5821C3.48043 24.7696 3.73478 24.875 4 24.875H11V25.652C10.9782 26.9206 11.4254 28.1527 12.2558 29.112C13.0862 30.0714 14.2414 30.6906 15.5 30.851C16.1952 30.9199 16.8971 30.8426 17.5606 30.624C18.2241 30.4054 18.8345 30.0503 19.3525 29.5816C19.8706 29.1129 20.2848 28.541 20.5685 27.9027C20.8522 27.2643 20.9992 26.5736 21 25.875V24.875H28C28.2652 24.875 28.5196 24.7696 28.7071 24.5821C28.8946 24.3946 29 24.1402 29 23.875V20.875C28.9999 20.6098 28.8946 20.3555 28.707 20.168ZM19 25.875C19 26.6706 18.6839 27.4337 18.1213 27.9963C17.5587 28.5589 16.7956 28.875 16 28.875C15.2044 28.875 14.4413 28.5589 13.8787 27.9963C13.3161 27.4337 13 26.6706 13 25.875V24.875H19V25.875ZM27 22.875H5V21.289L7.707 18.582C7.89455 18.3945 7.99994 18.1402 8 17.875V13.875C8 11.7533 8.84285 9.71844 10.3431 8.21815C11.8434 6.71785 13.8783 5.875 16 5.875C18.1217 5.875 20.1566 6.71785 21.6569 8.21815C23.1571 9.71844 24 11.7533 24 13.875V17.875C24.0001 18.1402 24.1054 18.3945 24.293 18.582L27 21.289V22.875Z" fill="black"/>
<rect x="19" y="1.875" width="13" height="13" rx="6.5" fill="#4F0DA3"/>
<path d="M24.9753 7.779C24.9753 7.923 24.9453 8.063 24.8853 8.199C24.8293 8.331 24.7533 8.463 24.6573 8.595C24.5613 8.723 24.4533 8.851 24.3333 8.979C24.2133 9.103 24.0933 9.225 23.9733 9.345C23.9053 9.413 23.8253 9.493 23.7333 9.585C23.6453 9.677 23.5613 9.773 23.4813 9.873C23.4013 9.973 23.3333 10.069 23.2773 10.161C23.2253 10.253 23.1993 10.333 23.1993 10.401H25.1133V10.875H22.5933C22.5893 10.851 22.5873 10.827 22.5873 10.803C22.5873 10.779 22.5873 10.757 22.5873 10.737C22.5873 10.549 22.6173 10.375 22.6773 10.215C22.7413 10.051 22.8233 9.897 22.9233 9.753C23.0233 9.609 23.1353 9.473 23.2593 9.345C23.3833 9.217 23.5053 9.093 23.6253 8.973C23.7253 8.877 23.8193 8.783 23.9073 8.691C23.9993 8.595 24.0793 8.501 24.1473 8.409C24.2193 8.313 24.2753 8.215 24.3153 8.115C24.3593 8.015 24.3813 7.909 24.3813 7.797C24.3813 7.677 24.3613 7.575 24.3213 7.491C24.2853 7.407 24.2353 7.337 24.1713 7.281C24.1073 7.225 24.0313 7.185 23.9433 7.161C23.8593 7.133 23.7693 7.119 23.6733 7.119C23.5573 7.119 23.4513 7.135 23.3553 7.167C23.2593 7.199 23.1733 7.237 23.0973 7.281C23.0213 7.321 22.9573 7.365 22.9053 7.413C22.8533 7.457 22.8133 7.491 22.7853 7.515L22.5093 7.119C22.5453 7.079 22.5993 7.031 22.6713 6.975C22.7433 6.915 22.8293 6.859 22.9293 6.807C23.0293 6.755 23.1413 6.711 23.2653 6.675C23.3893 6.639 23.5233 6.621 23.6673 6.621C24.1033 6.621 24.4293 6.723 24.6453 6.927C24.8653 7.127 24.9753 7.411 24.9753 7.779ZM25.74 8.793C25.74 8.097 25.862 7.561 26.106 7.185C26.354 6.809 26.696 6.621 27.132 6.621C27.568 6.621 27.908 6.809 28.152 7.185C28.4 7.561 28.524 8.097 28.524 8.793C28.524 9.489 28.4 10.025 28.152 10.401C27.908 10.777 27.568 10.965 27.132 10.965C26.696 10.965 26.354 10.777 26.106 10.401C25.862 10.025 25.74 9.489 25.74 8.793ZM27.936 8.793C27.936 8.565 27.922 8.349 27.894 8.145C27.87 7.941 27.826 7.763 27.762 7.611C27.702 7.459 27.62 7.339 27.516 7.251C27.412 7.159 27.284 7.113 27.132 7.113C26.98 7.113 26.852 7.159 26.748 7.251C26.644 7.339 26.56 7.459 26.496 7.611C26.436 7.763 26.392 7.941 26.364 8.145C26.34 8.349 26.328 8.565 26.328 8.793C26.328 9.021 26.34 9.237 26.364 9.441C26.392 9.645 26.436 9.823 26.496 9.975C26.56 10.127 26.644 10.249 26.748 10.341C26.852 10.429 26.98 10.473 27.132 10.473C27.284 10.473 27.412 10.429 27.516 10.341C27.62 10.249 27.702 10.127 27.762 9.975C27.826 9.823 27.87 9.645 27.894 9.441C27.922 9.237 27.936 9.021 27.936 8.793Z" fill="white"/>
</svg>
