<svg width="32" height="26" viewBox="0 0 32 26" fill="none" xmlns="http://www.w3.org/2000/svg">
<path d="M30.4 16.4H27.2V19.6H28.32C28.585 19.6 28.8 19.78 28.8 20V20.8C28.8 21.02 28.585 21.2 28.32 21.2H3.68C3.415 21.2 3.2 21.02 3.2 20.8V20C3.2 19.78 3.415 19.6 3.68 19.6H4.8V16.4H1.6C0.715 16.4 0 17.115 0 18V22.8C0 23.685 0.715 24.4 1.6 24.4H30.4C31.285 24.4 32 23.685 32 22.8V18C32 17.115 31.285 16.4 30.4 16.4ZM25.6 19.6V3.615C25.6 2.72 24.875 2 23.985 2H8.02C7.125 2 6.4 2.725 6.4 3.615V19.6H25.6ZM10.56 10.5L11.835 9.235C12.045 9.025 12.385 9.025 12.595 9.24L14.66 11.32L19.42 6.6C19.63 6.39 19.97 6.39 20.18 6.605L21.445 7.88C21.655 8.09 21.655 8.43 21.44 8.64L15.025 15C14.815 15.21 14.475 15.21 14.265 14.995L10.56 11.26C10.345 11.05 10.35 10.71 10.56 10.5Z" fill="#C47EFB"/>
</svg>
