<svg width="32" height="32" viewBox="0 0 32 32" fill="none" xmlns="http://www.w3.org/2000/svg">
<path d="M18 17.5C18.8284 17.5 19.5 16.8284 19.5 16C19.5 15.1716 18.8284 14.5 18 14.5C17.1716 14.5 16.5 15.1716 16.5 16C16.5 16.8284 17.1716 17.5 18 17.5Z" fill="#C47EFB"/>
<path d="M12 17.5C12.8284 17.5 13.5 16.8284 13.5 16C13.5 15.1716 12.8284 14.5 12 14.5C11.1716 14.5 10.5 15.1716 10.5 16C10.5 16.8284 11.1716 17.5 12 17.5Z" fill="#C47EFB"/>
<path d="M24 17.5C24.8284 17.5 25.5 16.8284 25.5 16C25.5 15.1716 24.8284 14.5 24 14.5C23.1716 14.5 22.5 15.1716 22.5 16C22.5 16.8284 23.1716 17.5 24 17.5Z" fill="#C47EFB"/>
<path d="M7.67534 22.0997C6.18645 19.5877 5.66565 16.6186 6.21072 13.7499C6.75579 10.8811 8.32925 8.30998 10.6357 6.51911C12.9421 4.72825 15.823 3.84084 18.7373 4.02349C21.6517 4.20613 24.3992 5.44626 26.464 7.51107C28.5288 9.57588 29.7689 12.3234 29.9516 15.2377C30.1342 18.1521 29.2468 21.0329 27.4559 23.3394C25.6651 25.6458 23.0939 27.2193 20.2252 27.7643C17.3564 28.3094 14.3873 27.7886 11.8753 26.2997V26.2997L7.72534 27.4747C7.55531 27.5244 7.37503 27.5275 7.20341 27.4836C7.03178 27.4397 6.87513 27.3504 6.74986 27.2252C6.6246 27.0999 6.53534 26.9433 6.49144 26.7716C6.44753 26.6 6.45061 26.4197 6.50034 26.2497L7.67534 22.0997Z" stroke="#C47EFB" stroke-width="2" stroke-linecap="round" stroke-linejoin="round"/>
</svg>
