<svg width="97" height="38" viewBox="0 0 97 38" fill="none" xmlns="http://www.w3.org/2000/svg">
<path d="M29.3027 22.1948C29.1257 21.8961 29.0638 21.5431 29.1286 21.2021C29.1934 20.861 29.3804 20.5554 29.6546 20.3425C29.9288 20.1295 30.2713 20.024 30.6178 20.0458C30.9643 20.0675 31.2909 20.2149 31.5364 20.4604C31.7819 20.7059 31.9293 21.0325 31.951 21.379C31.9727 21.7255 31.8672 22.0679 31.6543 22.3421C31.4414 22.6163 31.1357 22.8034 30.7947 22.8682C30.4536 22.933 30.1007 22.8711 29.802 22.6941V22.6941L29.3086 22.8338C29.2884 22.8397 29.267 22.8401 29.2466 22.8348C29.2262 22.8296 29.2076 22.819 29.1927 22.8041C29.1778 22.7892 29.1672 22.7706 29.1619 22.7502C29.1567 22.7298 29.1571 22.7084 29.163 22.6881L29.3027 22.1948Z" stroke="#4F0DA3" stroke-width="0.285326" stroke-linecap="round" stroke-linejoin="round"/>
<path d="M16.082 32.4604C15.905 32.1618 15.8431 31.8088 15.9079 31.4677C15.9727 31.1267 16.1597 30.821 16.4339 30.6081C16.7081 30.3952 17.0506 30.2897 17.3971 30.3114C17.7436 30.3331 18.0702 30.4805 18.3157 30.726C18.5612 30.9715 18.7086 31.2981 18.7303 31.6446C18.752 31.9911 18.6465 32.3336 18.4336 32.6078C18.2207 32.882 17.915 33.069 17.574 33.1338C17.2329 33.1986 16.8799 33.1367 16.5813 32.9597V32.9597L16.0879 33.0994C16.0677 33.1053 16.0463 33.1057 16.0259 33.1005C16.0055 33.0952 15.9869 33.0846 15.972 33.0697C15.9571 33.0548 15.9465 33.0362 15.9412 33.0158C15.936 32.9954 15.9364 32.974 15.9423 32.9538L16.082 32.4604Z" stroke="#4F0DA3" stroke-width="0.285326" stroke-linecap="round" stroke-linejoin="round"/>
<path d="M6.25391 20.6328H3.63842C3.57276 20.6328 3.51953 20.686 3.51953 20.7517V22.6539C3.51953 22.7195 3.57276 22.7728 3.63842 22.7728H6.25391C6.31957 22.7728 6.37279 22.7195 6.37279 22.6539V20.7517C6.37279 20.686 6.31957 20.6328 6.25391 20.6328Z" stroke="#4F0DA3" stroke-width="0.285326" stroke-linecap="round" stroke-linejoin="round"/>
<path d="M5.54042 22.7717V20.394C5.54042 20.331 5.51537 20.2705 5.47078 20.2259C5.42619 20.1813 5.36571 20.1562 5.30265 20.1562H4.58933C4.52627 20.1562 4.4658 20.1813 4.4212 20.2259C4.37661 20.2705 4.35156 20.331 4.35156 20.394V22.7717" stroke="#4F0DA3" stroke-width="0.285326" stroke-linecap="round" stroke-linejoin="round"/>
<path d="M31.8379 15.2109H29.2224C29.1567 15.2109 29.1035 15.2642 29.1035 15.3298V17.232C29.1035 17.2977 29.1567 17.3509 29.2224 17.3509H31.8379C31.9035 17.3509 31.9568 17.2977 31.9568 17.232V15.3298C31.9568 15.2642 31.9035 15.2109 31.8379 15.2109Z" stroke="#4F0DA3" stroke-width="0.285326" stroke-linecap="round" stroke-linejoin="round"/>
<path d="M31.1244 17.3499V14.9721C31.1244 14.9091 31.0994 14.8486 31.0548 14.804C31.0102 14.7594 30.9497 14.7344 30.8866 14.7344H30.1733C30.1103 14.7344 30.0498 14.7594 30.0052 14.804C29.9606 14.8486 29.9355 14.9091 29.9355 14.9721V17.3499" stroke="#4F0DA3" stroke-width="0.285326" stroke-linecap="round" stroke-linejoin="round"/>
<path d="M24.7878 5.41406H22.3863C22.3571 5.4142 22.3289 5.42499 22.307 5.4444C22.2851 5.46382 22.2711 5.49054 22.2674 5.51957L22.0564 7.42175C22.0545 7.43832 22.0562 7.4551 22.0612 7.47101C22.0662 7.48691 22.0746 7.50157 22.0856 7.51405C22.0967 7.52652 22.1103 7.53652 22.1255 7.54341C22.1407 7.55029 22.1571 7.55391 22.1738 7.55401H25.0003C25.017 7.55391 25.0335 7.55029 25.0487 7.54341C25.0639 7.53652 25.0774 7.52652 25.0885 7.51405C25.0996 7.50157 25.1079 7.48691 25.1129 7.47101C25.118 7.4551 25.1196 7.43832 25.1177 7.42175L24.9067 5.51957C24.9031 5.49054 24.889 5.46382 24.8672 5.4444C24.8453 5.42499 24.8171 5.4142 24.7878 5.41406V5.41406Z" stroke="#4F0DA3" stroke-width="0.285326" stroke-linecap="round" stroke-linejoin="round"/>
<path d="M22.9922 5.89029V5.41474C22.9922 5.25709 23.0548 5.10589 23.1663 4.99442C23.2778 4.88294 23.429 4.82031 23.5866 4.82031C23.7443 4.82031 23.8955 4.88294 24.0069 4.99442C24.1184 5.10589 24.181 5.25709 24.181 5.41474V5.89029" stroke="#4F0DA3" stroke-width="0.285326" stroke-linecap="round" stroke-linejoin="round"/>
<path d="M30.0437 25.6832C30.0039 25.6383 29.9548 25.6023 29.8999 25.5777C29.845 25.553 29.7855 25.5403 29.7252 25.5403H28.9365V25.3592C28.9363 25.1832 28.8659 25.0145 28.7407 24.89C28.6156 24.7655 28.446 24.6955 28.269 24.6953C28.2353 24.6953 28.2021 24.7047 28.1734 24.7223C28.1446 24.74 28.1214 24.7653 28.1063 24.7954L27.5498 25.9025H26.9342C26.8538 25.9025 26.7766 25.9343 26.7197 25.9909C26.6628 26.0474 26.6309 26.1242 26.6309 26.2042V27.5321C26.6309 27.6122 26.6628 27.6889 26.7197 27.7455C26.7766 27.8021 26.8538 27.8339 26.9342 27.8339H29.5432C29.6467 27.8339 29.7466 27.7963 29.8242 27.7281C29.9018 27.6599 29.9517 27.5659 29.9646 27.4638L30.1466 26.0152C30.1541 25.9558 30.1488 25.8954 30.131 25.8382C30.1133 25.781 30.0836 25.7281 30.0437 25.6832ZM26.9949 26.2646H27.4803V27.4718H26.9949V26.2646ZM29.7859 25.9704L29.6039 27.4189C29.602 27.4336 29.5948 27.4471 29.5836 27.4568C29.5724 27.4666 29.558 27.4719 29.5432 27.4718H27.8443V26.1262L28.3725 25.0756C28.4311 25.0967 28.4817 25.1353 28.5174 25.186C28.5532 25.2368 28.5724 25.2973 28.5724 25.3592V25.7214C28.5724 25.7694 28.5916 25.8155 28.6257 25.8494C28.6599 25.8834 28.7062 25.9025 28.7544 25.9025H29.7252C29.7339 25.9024 29.7424 25.9042 29.7503 25.9077C29.7582 25.9112 29.7653 25.9163 29.771 25.9227C29.7768 25.9291 29.7811 25.9367 29.7836 25.9449C29.7862 25.9532 29.787 25.9618 29.7859 25.9704Z" fill="#4F0DA3"/>
<path d="M16.3105 4.99219V6.00866C16.3105 6.04019 16.3231 6.07043 16.3454 6.09273C16.3677 6.11502 16.3979 6.12755 16.4294 6.12755H18.5694C18.6009 6.12755 18.6311 6.11502 18.6534 6.09273C18.6757 6.07043 18.6883 6.04019 18.6883 6.00866V4.99219" stroke="#4F0DA3" stroke-width="0.285326" stroke-linecap="round" stroke-linejoin="round"/>
<path d="M16.4002 3.51172H18.5996C18.6254 3.51193 18.6504 3.52042 18.671 3.53594C18.6916 3.55146 18.7067 3.57318 18.714 3.59791L18.9265 4.34392H16.0732L16.2858 3.59791C16.2931 3.57318 16.3081 3.55146 16.3287 3.53594C16.3493 3.52042 16.3744 3.51193 16.4002 3.51172V3.51172Z" stroke="#4F0DA3" stroke-width="0.285326" stroke-linecap="round" stroke-linejoin="round"/>
<path d="M17.0243 4.34375V4.58152C17.0243 4.70764 16.9742 4.8286 16.885 4.91778C16.7959 5.00696 16.6749 5.05707 16.5488 5.05707C16.4227 5.05707 16.3017 5.00696 16.2125 4.91778C16.1233 4.8286 16.0732 4.70764 16.0732 4.58152V4.34375" stroke="#4F0DA3" stroke-width="0.285326" stroke-linecap="round" stroke-linejoin="round"/>
<path d="M17.9755 4.34375V4.58152C17.9755 4.70764 17.9254 4.8286 17.8362 4.91778C17.747 5.00696 17.6261 5.05707 17.5 5.05707C17.3738 5.05707 17.2529 5.00696 17.1637 4.91778C17.0745 4.8286 17.0244 4.70764 17.0244 4.58152V4.34375" stroke="#4F0DA3" stroke-width="0.285326" stroke-linecap="round" stroke-linejoin="round"/>
<path d="M18.9267 4.34375V4.58152C18.9267 4.70764 18.8766 4.8286 18.7874 4.91778C18.6982 5.00696 18.5773 5.05707 18.4511 5.05707C18.325 5.05707 18.2041 5.00696 18.1149 4.91778C18.0257 4.8286 17.9756 4.70764 17.9756 4.58152V4.34375" stroke="#4F0DA3" stroke-width="0.285326" stroke-linecap="round" stroke-linejoin="round"/>
<path d="M23.3964 30.3339C23.6591 30.3339 23.872 30.121 23.872 29.8584C23.872 29.5957 23.6591 29.3828 23.3964 29.3828C23.1338 29.3828 22.9209 29.5957 22.9209 29.8584C22.9209 30.121 23.1338 30.3339 23.3964 30.3339Z" stroke="#4F0DA3" stroke-width="0.285326" stroke-linecap="round" stroke-linejoin="round"/>
<path d="M24.5847 29.8568C24.5847 30.9268 23.3959 31.759 23.3959 31.759C23.3959 31.759 22.207 30.9268 22.207 29.8568C22.207 29.5415 22.3323 29.2391 22.5552 29.0162C22.7782 28.7932 23.0806 28.668 23.3959 28.668C23.7112 28.668 24.0136 28.7932 24.2365 29.0162C24.4595 29.2391 24.5847 29.5415 24.5847 29.8568V29.8568Z" stroke="#4F0DA3" stroke-width="0.285326" stroke-linecap="round" stroke-linejoin="round"/>
<path d="M3.52528 14.8692L4.39612 17.3852C4.43327 17.4936 4.58782 17.4907 4.622 17.3807L4.97272 16.2424C4.97801 16.2238 4.98805 16.2069 5.00186 16.1933C5.01567 16.1798 5.03277 16.17 5.05148 16.1651L6.18832 15.8144C6.29829 15.7802 6.30126 15.6257 6.19278 15.5885L3.67686 14.7177C3.65572 14.7102 3.63291 14.7089 3.61107 14.7139C3.58922 14.7189 3.56922 14.7299 3.55338 14.7458C3.53753 14.7616 3.52649 14.7816 3.52152 14.8034C3.51655 14.8253 3.51785 14.8481 3.52528 14.8692V14.8692Z" stroke="#4F0DA3" stroke-width="0.285326" stroke-linecap="round" stroke-linejoin="round"/>
<path d="M11.9361 28.6172H9.55834C9.49268 28.6172 9.43945 28.6704 9.43945 28.7361V31.1138C9.43945 31.1794 9.49268 31.2327 9.55834 31.2327H11.9361C12.0017 31.2327 12.0549 31.1794 12.0549 31.1138V28.7361C12.0549 28.6704 12.0017 28.6172 11.9361 28.6172Z" stroke="#4F0DA3" stroke-width="0.285326" stroke-linecap="round" stroke-linejoin="round"/>
<path d="M12.0549 30.4024L11.4263 29.7737C11.4153 29.7625 11.4021 29.7536 11.3875 29.7475C11.373 29.7414 11.3574 29.7383 11.3416 29.7383C11.3259 29.7383 11.3103 29.7414 11.2957 29.7475C11.2812 29.7536 11.268 29.7625 11.2569 29.7737L10.5941 30.4365C10.5831 30.4478 10.5699 30.4567 10.5553 30.4628C10.5408 30.4689 10.5252 30.472 10.5094 30.472C10.4937 30.472 10.4781 30.4689 10.4635 30.4628C10.449 30.4567 10.4358 30.4478 10.4247 30.4365L10.1186 30.1304C10.1075 30.1192 10.0943 30.1103 10.0798 30.1042C10.0653 30.0981 10.0496 30.0949 10.0339 30.0949C10.0181 30.0949 10.0025 30.0981 9.98797 30.1042C9.97342 30.1103 9.96024 30.1192 9.94918 30.1304L9.43945 30.6401" stroke="#4F0DA3" stroke-width="0.285326" stroke-linecap="round" stroke-linejoin="round"/>
<path d="M8.73905 9.8004C8.69918 9.75547 8.65016 9.71949 8.59524 9.69485C8.54032 9.67022 8.48076 9.65749 8.42052 9.6575H7.63176V9.47643C7.63156 9.30041 7.56118 9.13165 7.43606 9.00718C7.31094 8.88271 7.1413 8.8127 6.96436 8.8125C6.93057 8.8125 6.89744 8.82186 6.8687 8.83953C6.83995 8.8572 6.81672 8.88248 6.8016 8.91254L6.24507 10.0196H5.62954C5.54908 10.0196 5.47192 10.0514 5.41503 10.108C5.35813 10.1646 5.32617 10.2414 5.32617 10.3214V11.6493C5.32617 11.7293 5.35813 11.8061 5.41503 11.8627C5.47192 11.9193 5.54908 11.9511 5.62954 11.9511H8.2385C8.34201 11.9511 8.44196 11.9134 8.51955 11.8453C8.59715 11.7771 8.64705 11.6831 8.65988 11.5809L8.8419 10.1324C8.84938 10.0729 8.84409 10.0126 8.82636 9.95538C8.80863 9.89815 8.77887 9.84532 8.73905 9.8004ZM5.69021 10.3818H6.1756V11.5889H5.69021V10.3818ZM8.48119 10.0876L8.29917 11.5361C8.29731 11.5508 8.29011 11.5643 8.27893 11.574C8.26774 11.5837 8.25336 11.5891 8.2385 11.5889H6.53964V10.2434L7.0678 9.19275C7.12638 9.21389 7.17699 9.25246 7.21276 9.30321C7.24853 9.35397 7.26772 9.41445 7.26772 9.47643V9.83858C7.26772 9.8866 7.2869 9.93266 7.32104 9.96661C7.35517 10.0006 7.40147 10.0196 7.44974 10.0196H8.42052C8.42917 10.0196 8.43773 10.0214 8.44563 10.0248C8.45354 10.0283 8.4606 10.0335 8.46634 10.0399C8.47209 10.0463 8.47639 10.0539 8.47895 10.0621C8.48151 10.0703 8.48227 10.079 8.48119 10.0876Z" fill="#4F0DA3"/>
<path d="M28.0575 12.24C28.8454 12.24 29.4841 11.6013 29.4841 10.8133C29.4841 10.0254 28.8454 9.38672 28.0575 9.38672C27.2696 9.38672 26.6309 10.0254 26.6309 10.8133C26.6309 11.6013 27.2696 12.24 28.0575 12.24Z" stroke="#4F0DA3" stroke-width="0.285326" stroke-linecap="round" stroke-linejoin="round"/>
<path d="M28.4141 10.5156H28.7707" stroke="#4F0DA3" stroke-width="0.285326" stroke-linecap="round" stroke-linejoin="round"/>
<path d="M28.6759 11.168C28.613 11.2762 28.5228 11.3661 28.4143 11.4286C28.3059 11.4911 28.1829 11.5239 28.0577 11.5239C27.9325 11.5239 27.8095 11.4911 27.701 11.4286C27.5925 11.3661 27.5023 11.2762 27.4395 11.168" stroke="#4F0DA3" stroke-width="0.285326" stroke-linecap="round" stroke-linejoin="round"/>
<circle cx="17.4999" cy="18.3261" r="9.70109" fill="#4F0DA3"/>
<path d="M12.6422 19.3657V19.9453H10.3774V19.4549L11.4206 18.3582C11.5127 18.2527 11.587 18.1583 11.6435 18.0751C11.7 17.9904 11.7409 17.9139 11.7661 17.8455C11.7929 17.7771 11.8062 17.7155 11.8062 17.6605C11.8062 17.5669 11.7921 17.4888 11.7639 17.4264C11.7371 17.3625 11.697 17.3142 11.6435 17.2815C11.5915 17.2488 11.5269 17.2325 11.4496 17.2325C11.3723 17.2325 11.3047 17.2548 11.2467 17.2994C11.1888 17.3439 11.1434 17.4049 11.1108 17.4821C11.0795 17.5594 11.0639 17.6464 11.0639 17.743H10.3105C10.3105 17.5438 10.3588 17.3618 10.4554 17.1968C10.5535 17.0319 10.6895 16.9003 10.8633 16.8023C11.0372 16.7027 11.2386 16.6529 11.4674 16.6529C11.7067 16.6529 11.9073 16.6901 12.0693 16.7644C12.2313 16.8387 12.3531 16.9464 12.4348 17.0876C12.5181 17.2273 12.5597 17.396 12.5597 17.5936C12.5597 17.7065 12.5418 17.815 12.5062 17.9191C12.4705 18.0231 12.4192 18.1264 12.3524 18.2289C12.2855 18.33 12.2038 18.434 12.1072 18.541C12.0121 18.648 11.9036 18.7617 11.7817 18.882L11.3626 19.3657H12.6422ZM15.7272 18.2111V19.5441C15.6723 19.605 15.5876 19.6704 15.4731 19.7402C15.3602 19.8086 15.2175 19.8673 15.0451 19.9163C14.8727 19.9654 14.6699 19.9899 14.4366 19.9899C14.2211 19.9899 14.0257 19.9557 13.8503 19.8874C13.675 19.8175 13.5241 19.7157 13.3978 19.582C13.273 19.4467 13.1764 19.2818 13.108 19.0871C13.0412 18.8909 13.0077 18.6665 13.0077 18.4139V18.2334C13.0077 17.9807 13.0419 17.7563 13.1103 17.5602C13.1786 17.364 13.2745 17.199 13.3978 17.0653C13.5227 16.9301 13.669 16.8275 13.837 16.7577C14.0064 16.6878 14.1921 16.6529 14.3942 16.6529C14.6929 16.6529 14.9359 16.7005 15.1232 16.7956C15.3104 16.8892 15.4523 17.0192 15.5489 17.1857C15.6455 17.3506 15.7042 17.5416 15.725 17.7586H14.9738C14.9589 17.6516 14.9307 17.5609 14.8891 17.4866C14.849 17.4108 14.791 17.3536 14.7152 17.315C14.6394 17.2748 14.5414 17.2548 14.421 17.2548C14.3274 17.2548 14.2419 17.2748 14.1646 17.315C14.0888 17.3551 14.0242 17.416 13.9707 17.4977C13.9172 17.578 13.8756 17.6791 13.8459 17.8009C13.8176 17.9228 13.8035 18.0654 13.8035 18.2289V18.4139C13.8035 18.5759 13.8169 18.7178 13.8436 18.8397C13.8719 18.9615 13.9135 19.0633 13.9685 19.1451C14.0249 19.2253 14.0963 19.2862 14.1825 19.3278C14.2701 19.368 14.3734 19.388 14.4923 19.388C14.5755 19.388 14.6469 19.3813 14.7063 19.368C14.7658 19.3531 14.8148 19.3353 14.8534 19.3145C14.8936 19.2922 14.924 19.2714 14.9448 19.2521V18.7483H14.4009V18.2111H15.7272ZM18.4178 19.3435V19.9453H16.688V19.3435H18.4178ZM16.9666 16.6997V19.9453H16.1842V16.6997H16.9666ZM18.1949 17.9882V18.57H16.688V17.9882H18.1949ZM18.4245 16.6997V17.3038H16.688V16.6997H18.4245ZM19.7931 19.9453H19.0731L19.0776 19.3435H19.7931C19.9417 19.3435 20.0673 19.3078 20.1699 19.2365C20.2739 19.1651 20.3526 19.0589 20.4061 18.9177C20.4611 18.775 20.4886 18.5997 20.4886 18.3916V18.2512C20.4886 18.0952 20.473 17.9584 20.4418 17.841C20.4121 17.7221 20.3675 17.6233 20.3081 17.5446C20.2486 17.4643 20.1743 17.4041 20.0852 17.364C19.9975 17.3239 19.8964 17.3038 19.782 17.3038H19.0598V16.6997H19.782C20.0019 16.6997 20.2033 16.7376 20.3861 16.8134C20.5704 16.8877 20.7294 16.9947 20.8631 17.1344C20.9983 17.2726 21.1024 17.4368 21.1752 17.627C21.2495 17.8158 21.2866 18.0253 21.2866 18.2556V18.3916C21.2866 18.6205 21.2495 18.83 21.1752 19.0202C21.1024 19.2104 20.9991 19.3747 20.8653 19.5129C20.7316 19.6511 20.5733 19.7581 20.3905 19.8339C20.2092 19.9082 20.0101 19.9453 19.7931 19.9453ZM19.5212 16.6997V19.9453H18.7388V16.6997H19.5212ZM23.0209 17.3818L22.2296 19.9453H21.3892L22.5818 16.6997H23.1145L23.0209 17.3818ZM23.6762 19.9453L22.8827 17.3818L22.7801 16.6997H23.3196L24.5189 19.9453H23.6762ZM23.645 18.7349V19.339H21.9799V18.7349H23.645Z" fill="white"/>
<circle cx="17.5" cy="18.3242" r="17.1196" stroke="#4F0DA3" stroke-width="0.76087"/>
<path d="M7.12297 24.9805C6.85942 24.9805 6.62552 25.0861 6.46705 25.2675C6.30858 25.0861 6.07468 24.9805 5.81113 24.9805C5.58159 24.9808 5.36152 25.0734 5.19921 25.2382C5.0369 25.4029 4.94559 25.6263 4.94531 25.8593C4.94531 26.8225 6.33337 27.5921 6.39241 27.6244C6.41535 27.6369 6.441 27.6435 6.46705 27.6435C6.49311 27.6435 6.51876 27.6369 6.5417 27.6244C6.60073 27.5921 7.98879 26.8225 7.98879 25.8593C7.98851 25.6263 7.8972 25.4029 7.73489 25.2382C7.57258 25.0734 7.35252 24.9808 7.12297 24.9805ZM7.05095 26.876C6.86825 27.0333 6.67294 27.175 6.46705 27.2994C6.26116 27.175 6.06585 27.0333 5.88315 26.876C5.59887 26.6285 5.26016 26.251 5.26016 25.8593C5.26016 25.7109 5.3182 25.5687 5.42153 25.4638C5.52486 25.3589 5.665 25.3 5.81113 25.3C6.04464 25.3 6.2401 25.4252 6.32131 25.6268C6.33312 25.6562 6.3533 25.6813 6.37926 25.699C6.40521 25.7167 6.43578 25.7262 6.46705 25.7262C6.49832 25.7262 6.52889 25.7167 6.55485 25.699C6.5808 25.6813 6.60098 25.6562 6.6128 25.6268C6.694 25.4252 6.88947 25.3 7.12297 25.3C7.2691 25.3 7.40924 25.3589 7.51257 25.4638C7.6159 25.5687 7.67395 25.7109 7.67395 25.8593C7.67395 26.251 7.33523 26.6285 7.05095 26.876Z" fill="#4F0DA3"/>
<g clip-path="url(#clip0_1514_8750)">
<path d="M12.3534 4.91406C12.0899 4.91406 11.856 5.01965 11.6975 5.20113C11.539 5.01965 11.3051 4.91406 11.0416 4.91406C10.8121 4.91434 10.592 5.00702 10.4297 5.17176C10.2674 5.33651 10.1761 5.55986 10.1758 5.79285C10.1758 6.75605 11.5638 7.52565 11.6229 7.558C11.6458 7.57054 11.6715 7.57711 11.6975 7.57711C11.7236 7.57711 11.7492 7.57054 11.7722 7.558C11.8312 7.52565 13.2193 6.75605 13.2193 5.79285C13.219 5.55986 13.1277 5.33651 12.9654 5.17176C12.803 5.00702 12.583 4.91434 12.3534 4.91406ZM12.2814 6.80957C12.0987 6.96693 11.9034 7.10856 11.6975 7.23299C11.4916 7.10856 11.2963 6.96693 11.1136 6.80957C10.8293 6.56205 10.4906 6.18457 10.4906 5.79285C10.4906 5.64453 10.5487 5.50229 10.652 5.39741C10.7553 5.29254 10.8955 5.23362 11.0416 5.23362C11.2751 5.23362 11.4706 5.35878 11.5518 5.56037C11.5636 5.58975 11.5838 5.6149 11.6097 5.63261C11.6357 5.65031 11.6662 5.65976 11.6975 5.65976C11.7288 5.65976 11.7594 5.65031 11.7853 5.63261C11.8113 5.6149 11.8314 5.58975 11.8433 5.56037C11.9245 5.35878 12.1199 5.23362 12.3534 5.23362C12.4996 5.23362 12.6397 5.29254 12.743 5.39741C12.8464 5.50229 12.9044 5.64453 12.9044 5.79285C12.9044 6.18457 12.5657 6.56205 12.2814 6.80957Z" fill="#4F0DA3"/>
</g>
<path d="M43.1634 26.5V24.7869L47.7081 20.3317C48.1428 19.8928 48.505 19.5028 48.7947 19.1619C49.0845 18.821 49.3018 18.4908 49.4467 18.1712C49.5916 17.8516 49.6641 17.5107 49.6641 17.1484C49.6641 16.7351 49.5703 16.3814 49.3828 16.0874C49.1953 15.7891 48.9375 15.5589 48.6094 15.397C48.2812 15.2351 47.9084 15.1541 47.4908 15.1541C47.0604 15.1541 46.6832 15.2436 46.3594 15.4226C46.0355 15.5973 45.7841 15.8466 45.6051 16.1705C45.4304 16.4943 45.343 16.88 45.343 17.3274H43.0866C43.0866 16.4964 43.2763 15.7741 43.6555 15.1605C44.0348 14.5469 44.5568 14.0717 45.2216 13.7351C45.8906 13.3984 46.6577 13.2301 47.5227 13.2301C48.4006 13.2301 49.1719 13.3942 49.8366 13.7223C50.5014 14.0504 51.017 14.5 51.3835 15.071C51.7543 15.642 51.9396 16.294 51.9396 17.027C51.9396 17.517 51.8459 17.9986 51.6584 18.4716C51.4709 18.9446 51.1406 19.4687 50.6676 20.044C50.1989 20.6193 49.5405 21.3161 48.6925 22.1342L46.4361 24.429V24.5185H52.1378V26.5H43.1634ZM58.6385 30.3864C57.8075 30.3864 57.0938 30.2734 56.4972 30.0476C55.9006 29.826 55.4212 29.5277 55.0589 29.1527C54.6967 28.7777 54.4453 28.3622 54.3047 27.9062L56.3885 27.4013C56.4822 27.593 56.6186 27.7827 56.7976 27.9702C56.9766 28.1619 57.2173 28.3196 57.5199 28.4432C57.8267 28.571 58.2124 28.6349 58.6768 28.6349C59.3331 28.6349 59.8764 28.4751 60.3068 28.1555C60.7372 27.8402 60.9524 27.3203 60.9524 26.5959V24.7358H60.8374C60.718 24.9744 60.5433 25.2195 60.3132 25.4709C60.0874 25.7223 59.7869 25.9332 59.4119 26.1037C59.0412 26.2741 58.5746 26.3594 58.0121 26.3594C57.2578 26.3594 56.5739 26.1825 55.9602 25.8288C55.3509 25.4709 54.8651 24.9382 54.5028 24.2308C54.1449 23.5192 53.9659 22.6286 53.9659 21.5589C53.9659 20.4808 54.1449 19.571 54.5028 18.8295C54.8651 18.0838 55.353 17.5192 55.9666 17.1357C56.5803 16.7479 57.2642 16.554 58.0185 16.554C58.5938 16.554 59.0668 16.652 59.4375 16.848C59.8125 17.0398 60.1108 17.272 60.3324 17.5447C60.554 17.8132 60.7223 18.0668 60.8374 18.3054H60.9652V16.6818H63.2472V26.6598C63.2472 27.4993 63.0469 28.1939 62.6463 28.7436C62.2457 29.2933 61.6982 29.7045 61.0036 29.9773C60.3089 30.25 59.5206 30.3864 58.6385 30.3864ZM58.6577 24.544C59.1477 24.544 59.5653 24.4247 59.9105 24.1861C60.2557 23.9474 60.5178 23.6044 60.6967 23.157C60.8757 22.7095 60.9652 22.1726 60.9652 21.5462C60.9652 20.9283 60.8757 20.3871 60.6967 19.9226C60.522 19.4581 60.2621 19.098 59.9169 18.8423C59.576 18.5824 59.1563 18.4524 58.6577 18.4524C58.142 18.4524 57.7116 18.5866 57.3665 18.8551C57.0213 19.1236 56.7614 19.4922 56.5866 19.9609C56.4119 20.4254 56.3246 20.9538 56.3246 21.5462C56.3246 22.147 56.4119 22.6733 56.5866 23.125C56.7656 23.5724 57.0277 23.9219 57.3729 24.1733C57.7223 24.4205 58.1506 24.544 58.6577 24.544ZM69.9652 26.6918C68.9808 26.6918 68.1307 26.4872 67.4148 26.0781C66.7031 25.6648 66.1555 25.081 65.772 24.3267C65.3885 23.5682 65.1967 22.6754 65.1967 21.6484C65.1967 20.6385 65.3885 19.7521 65.772 18.9893C66.1598 18.2223 66.701 17.6257 67.3956 17.1996C68.0902 16.7692 68.9062 16.554 69.8438 16.554C70.4489 16.554 71.0199 16.652 71.5568 16.848C72.098 17.0398 72.5753 17.3381 72.9886 17.7429C73.4063 18.1477 73.7344 18.6634 73.973 19.2898C74.2116 19.9119 74.331 20.6534 74.331 21.5142V22.2237H66.2834V20.6641H72.1129C72.1087 20.2209 72.0128 19.8267 71.8253 19.4815C71.6378 19.1321 71.3757 18.8572 71.0391 18.657C70.7067 18.4567 70.3189 18.3565 69.8757 18.3565C69.4027 18.3565 68.9872 18.4716 68.6293 18.7017C68.2713 18.9276 67.9922 19.2259 67.7919 19.5966C67.5959 19.9631 67.4957 20.3658 67.4915 20.8047V22.1662C67.4915 22.7372 67.5959 23.2273 67.8047 23.6364C68.0135 24.0412 68.3054 24.3523 68.6804 24.5696C69.0554 24.7827 69.4943 24.8892 69.9972 24.8892C70.3338 24.8892 70.6385 24.8423 70.9112 24.7486C71.1839 24.6506 71.4205 24.5078 71.6207 24.3203C71.821 24.1328 71.9723 23.9006 72.0746 23.6236L74.2351 23.8665C74.0987 24.4375 73.8388 24.9361 73.4553 25.3622C73.076 25.7841 72.5902 26.1122 71.9979 26.3466C71.4055 26.5767 70.728 26.6918 69.9652 26.6918ZM79.932 26.6726C79.1607 26.6726 78.4703 26.4744 77.861 26.0781C77.2516 25.6818 76.7701 25.1065 76.4164 24.3523C76.0627 23.598 75.8858 22.6818 75.8858 21.6037C75.8858 20.5128 76.0648 19.5923 76.4228 18.8423C76.785 18.0881 77.2729 17.5192 77.8865 17.1357C78.5002 16.7479 79.1841 16.554 79.9384 16.554C80.5137 16.554 80.9867 16.652 81.3574 16.848C81.7282 17.0398 82.0222 17.272 82.2395 17.5447C82.4569 17.8132 82.6252 18.0668 82.7445 18.3054H82.8404V13.4091H85.1607V26.5H82.8851V24.9531H82.7445C82.6252 25.1918 82.4526 25.4453 82.2267 25.7138C82.0009 25.978 81.7026 26.2038 81.3319 26.3913C80.9611 26.5788 80.4945 26.6726 79.932 26.6726ZM80.5776 24.7741C81.0676 24.7741 81.4853 24.642 81.8304 24.3778C82.1756 24.1094 82.4377 23.7365 82.6167 23.2592C82.7956 22.782 82.8851 22.2259 82.8851 21.5909C82.8851 20.956 82.7956 20.4041 82.6167 19.9354C82.4419 19.4666 82.182 19.1023 81.8368 18.8423C81.4959 18.5824 81.0762 18.4524 80.5776 18.4524C80.062 18.4524 79.6316 18.5866 79.2864 18.8551C78.9412 19.1236 78.6813 19.4943 78.5066 19.9673C78.3319 20.4403 78.2445 20.9815 78.2445 21.5909C78.2445 22.2045 78.3319 22.7521 78.5066 23.2337C78.6855 23.7109 78.9476 24.0881 79.2928 24.3651C79.6422 24.6378 80.0705 24.7741 80.5776 24.7741ZM90.4517 26.6982C89.8295 26.6982 89.2692 26.5874 88.7706 26.3658C88.2763 26.1399 87.8842 25.8075 87.5945 25.3686C87.3089 24.9297 87.1662 24.3885 87.1662 23.745C87.1662 23.1911 87.2685 22.733 87.473 22.3707C87.6776 22.0085 87.9567 21.7188 88.3104 21.5014C88.6641 21.2841 89.0625 21.12 89.5057 21.0092C89.9531 20.8942 90.4155 20.8111 90.8928 20.7599C91.468 20.7003 91.9347 20.647 92.2926 20.6001C92.6506 20.549 92.9105 20.4723 93.0724 20.37C93.2386 20.2635 93.3217 20.0994 93.3217 19.8778V19.8395C93.3217 19.358 93.179 18.9851 92.8935 18.7209C92.608 18.4567 92.1967 18.3246 91.6598 18.3246C91.093 18.3246 90.6435 18.4482 90.3111 18.6953C89.983 18.9425 89.7614 19.2344 89.6463 19.571L87.4858 19.2642C87.6563 18.6676 87.9375 18.169 88.3295 17.7685C88.7216 17.3636 89.201 17.0611 89.7678 16.8608C90.3345 16.6562 90.9609 16.554 91.647 16.554C92.12 16.554 92.5909 16.6094 93.0597 16.7202C93.5284 16.831 93.9567 17.0142 94.3445 17.2699C94.7322 17.5213 95.0433 17.8643 95.2777 18.299C95.5163 18.7337 95.6357 19.277 95.6357 19.929V26.5H93.4112V25.1513H93.3345C93.1939 25.424 92.9957 25.6797 92.7401 25.9183C92.4886 26.1527 92.1712 26.3423 91.7876 26.4872C91.4084 26.6278 90.9631 26.6982 90.4517 26.6982ZM91.0526 24.9979C91.517 24.9979 91.9197 24.9062 92.2607 24.723C92.6016 24.5355 92.8636 24.2884 93.0469 23.9815C93.2344 23.6747 93.3281 23.3402 93.3281 22.978V21.821C93.2557 21.8807 93.1321 21.9361 92.9574 21.9872C92.7869 22.0384 92.5952 22.0831 92.3821 22.1214C92.169 22.1598 91.9581 22.1939 91.7493 22.2237C91.5405 22.2536 91.3594 22.2791 91.206 22.3004C90.8608 22.3473 90.5518 22.424 90.2791 22.5305C90.0064 22.6371 89.7912 22.7862 89.6335 22.978C89.4759 23.1655 89.397 23.4084 89.397 23.7067C89.397 24.1328 89.5526 24.4545 89.8636 24.6719C90.1747 24.8892 90.571 24.9979 91.0526 24.9979Z" fill="#4F0DA3"/>
<defs>
<clipPath id="clip0_1514_8750">
<rect width="3.2337" height="3.2337" fill="white" transform="translate(10.0811 4.62891)"/>
</clipPath>
</defs>
</svg>
