<svg width="32" height="32" viewBox="0 0 32 32" fill="none" xmlns="http://www.w3.org/2000/svg">
<path d="M19 26.0012V20.0012C19 19.736 18.8946 19.4817 18.7071 19.2941C18.5196 19.1066 18.2652 19.0012 18 19.0012H14C13.7348 19.0012 13.4804 19.1066 13.2929 19.2941C13.1054 19.4817 13 19.736 13 20.0012V26.0012C13 26.2665 12.8946 26.5208 12.7071 26.7084C12.5196 26.8959 12.2652 27.0012 12 27.0012H6C5.73478 27.0012 5.48043 26.8959 5.29289 26.7084C5.10536 26.5208 5 26.2665 5 26.0012V14.4387C5.00224 14.3004 5.03215 14.1638 5.08796 14.0371C5.14378 13.9105 5.22437 13.7963 5.325 13.7012L15.325 4.61374C15.5093 4.44509 15.7501 4.35156 16 4.35156C16.2499 4.35156 16.4907 4.44509 16.675 4.61374L26.675 13.7012C26.7756 13.7963 26.8562 13.9105 26.912 14.0371C26.9679 14.1638 26.9978 14.3004 27 14.4387V26.0012C27 26.2665 26.8946 26.5208 26.7071 26.7084C26.5196 26.8959 26.2652 27.0012 26 27.0012H20C19.7348 27.0012 19.4804 26.8959 19.2929 26.7084C19.1054 26.5208 19 26.2665 19 26.0012Z" fill="white"/>
</svg>
