<svg width="11" height="11" viewBox="0 0 11 11" fill="none" xmlns="http://www.w3.org/2000/svg">
<path d="M2.16016 7.9V9.10651C2.16016 9.21764 2.24747 9.30495 2.3586 9.30495H3.56511C3.6167 9.30495 3.6683 9.28511 3.70402 9.24542L8.03794 4.91547L6.54964 3.42717L2.21969 7.75712C2.18 7.79681 2.16016 7.84444 2.16016 7.9ZM9.18889 3.76452C9.22568 3.7278 9.25487 3.68419 9.27478 3.63618C9.2947 3.58817 9.30495 3.5367 9.30495 3.48472C9.30495 3.43274 9.2947 3.38127 9.27478 3.33326C9.25487 3.28525 9.22568 3.24164 9.18889 3.20492L8.26019 2.27622C8.22347 2.23943 8.17986 2.21024 8.13185 2.19032C8.08384 2.17041 8.03237 2.16016 7.98039 2.16016C7.92841 2.16016 7.87694 2.17041 7.82893 2.19032C7.78092 2.21024 7.73731 2.23943 7.70059 2.27622L6.9743 3.00251L8.4626 4.49081L9.18889 3.76452Z" fill="white"/>
</svg>
