<svg width="32" height="32" viewBox="0 0 32 32" fill="none" xmlns="http://www.w3.org/2000/svg">
<mask id="mask0_1514_8715" style="mask-type:luminance" maskUnits="userSpaceOnUse" x="4" y="2" width="24" height="29">
<path d="M19.9993 20.3333C21.9993 20.3333 23.3327 21.5867 23.3327 23H27.3327V3H23.3327C23.3327 4.33333 21.9993 5.66667 19.9993 5.66667C17.9993 5.66667 16.666 4.33333 16.666 3H12.666V12.3333" stroke="white" stroke-width="1.33333" stroke-linecap="round" stroke-linejoin="round"/>
<path d="M19.9997 29.668H15.9997C15.9997 28.2546 14.6663 27.0013 12.6663 27.0013C10.6663 27.0013 9.33301 28.2546 9.33301 29.668H5.33301V9.66797H9.33301C9.33301 11.0013 10.6663 12.3346 12.6663 12.3346C14.6663 12.3346 15.9997 11.0013 15.9997 9.66797H19.9997V29.668Z" fill="white" stroke="white" stroke-width="1.33333" stroke-linecap="round" stroke-linejoin="round"/>
<path d="M9.33333 17.6667C10.0697 17.6667 10.6667 17.0697 10.6667 16.3333C10.6667 15.597 10.0697 15 9.33333 15C8.59695 15 8 15.597 8 16.3333C8 17.0697 8.59695 17.6667 9.33333 17.6667Z" fill="black"/>
<path d="M12.6663 17.6667C13.4027 17.6667 13.9997 17.0697 13.9997 16.3333C13.9997 15.597 13.4027 15 12.6663 15C11.93 15 11.333 15.597 11.333 16.3333C11.333 17.0697 11.93 17.6667 12.6663 17.6667Z" fill="black"/>
<path d="M15.9993 17.6667C16.7357 17.6667 17.3327 17.0697 17.3327 16.3333C17.3327 15.597 16.7357 15 15.9993 15C15.263 15 14.666 15.597 14.666 16.3333C14.666 17.0697 15.263 17.6667 15.9993 17.6667Z" fill="black"/>
</mask>
<g mask="url(#mask0_1514_8715)">
<path d="M0 0.332031H32V32.332H0V0.332031Z" fill="#C47EFB"/>
</g>
</svg>
