<svg width="4" height="10" viewBox="0 0 4 10" fill="white" xmlns="http://www.w3.org/2000/svg">
<path d="M2 2.03125C2.25888 2.03125 2.46875 1.82138 2.46875 1.5625C2.46875 1.30362 2.25888 1.09375 2 1.09375C1.74112 1.09375 1.53125 1.30362 1.53125 1.5625C1.53125 1.82138 1.74112 2.03125 2 2.03125Z" stroke="#FFF" stroke-width="1.5" stroke-linecap="round" stroke-linejoin="round"/>
<path d="M2 5.46875C2.25888 5.46875 2.46875 5.25888 2.46875 5C2.46875 4.74112 2.25888 4.53125 2 4.53125C1.74112 4.53125 1.53125 4.74112 1.53125 5C1.53125 5.25888 1.74112 5.46875 2 5.46875Z" stroke="#FFF" stroke-width="1.5" stroke-linecap="round" stroke-linejoin="round"/>
<path d="M2 8.90625C2.25888 8.90625 2.46875 8.69638 2.46875 8.4375C2.46875 8.17862 2.25888 7.96875 2 7.96875C1.74112 7.96875 1.53125 8.17862 1.53125 8.4375C1.53125 8.69638 1.74112 8.90625 2 8.90625Z" stroke="#FFF" stroke-width="1.5" stroke-linecap="round" stroke-linejoin="round"/>
</svg>
