<svg width="75" height="75" viewBox="0 0 75 75" fill="none" xmlns="http://www.w3.org/2000/svg">
<path d="M34.2969 9.38107C34.4798 10.1891 34.3344 11.0368 33.8925 11.7376C33.4507 12.4385 32.7486 12.9352 31.9406 13.1186C26.7442 14.3034 22.0624 17.118 18.5785 21.1516C15.0946 25.1851 12.991 30.2266 12.5746 35.5401C12.1583 40.8537 13.451 46.1612 16.2641 50.6882C19.0773 55.2152 23.2636 58.7246 28.2121 60.7043C33.1606 62.6841 38.6123 63.0305 43.7716 61.6931C48.9309 60.3557 53.5277 57.4044 56.8913 53.2699C60.2548 49.1355 62.209 44.0342 62.4686 38.7107C62.7282 33.3872 61.2797 28.1201 58.3344 23.6779C58.1072 23.3361 57.9496 22.9529 57.8706 22.5501C57.7916 22.1474 57.7926 21.733 57.8737 21.3306C58.0375 20.5181 58.5174 19.8039 59.2078 19.3451C59.8982 18.8864 60.7425 18.7207 61.5551 18.8845C61.9575 18.9656 62.3399 19.1252 62.6805 19.3541C63.0212 19.583 63.3135 19.8767 63.5406 20.2186C66.9462 25.3378 68.7589 31.3513 68.75 37.4998C68.75 54.7592 54.7594 68.7498 37.5 68.7498C20.2406 68.7498 6.25 54.7592 6.25 37.4998C6.25 22.6248 16.6406 10.1811 30.5594 7.02482C31.3674 6.84188 32.2151 6.98733 32.9159 7.42917C33.6168 7.87102 34.1135 8.5731 34.2969 9.38107ZM40.625 9.41857C40.6246 8.94978 40.7287 8.4868 40.9296 8.06326C41.1305 7.63972 41.4232 7.26625 41.7865 6.96998C42.1498 6.67372 42.5746 6.4621 43.0299 6.35051C43.4852 6.23891 43.9596 6.23013 44.4188 6.32482L44.7781 6.42169L54.1125 9.53419C54.8708 9.78481 55.5044 10.3163 55.8832 11.0194C56.2619 11.7225 56.3571 12.544 56.1491 13.3151C55.9411 14.0862 55.4458 14.7484 54.7648 15.1658C54.0839 15.5831 53.269 15.7239 52.4875 15.5592L52.1375 15.4654L46.875 13.7092V37.4998C46.8741 39.4631 46.2568 41.3766 45.1103 42.9703C43.9637 44.564 42.3457 45.7576 40.4846 46.3826C38.6235 47.0076 36.613 47.0326 34.737 46.454C32.8609 45.8753 31.2138 44.7223 30.028 43.1575C28.8423 41.5928 28.1777 39.6952 28.128 37.7326C28.0783 35.7699 28.6461 33.8412 29.7512 32.2184C30.8563 30.5957 32.4429 29.3608 34.2874 28.688C36.1318 28.0152 38.1409 27.9385 40.0312 28.4686L40.625 28.6561V9.42169V9.41857Z" fill="white"/>
</svg>
