<svg width="24" height="25" viewBox="0 0 24 25" fill="none" xmlns="http://www.w3.org/2000/svg">
<path fill-rule="evenodd" clip-rule="evenodd" d="M11.166 21.248C11.3298 21.3587 11.5138 21.4359 11.7075 21.4752C11.9012 21.5145 12.1007 21.5151 12.2947 21.477C12.4886 21.439 12.6731 21.363 12.8376 21.2534C13.0021 21.1438 13.1433 21.0027 13.2531 20.8384C13.3629 20.674 13.4391 20.4896 13.4774 20.2957C13.5157 20.1018 13.5153 19.9023 13.4762 19.7085C13.4371 19.5148 13.3601 19.3307 13.2496 19.1668C13.1392 19.0029 12.9974 18.8624 12.8325 18.7535C12.5019 18.5503 12.1054 18.483 11.7263 18.566C11.3473 18.6489 11.015 18.8755 10.7995 19.1982C10.584 19.5209 10.5019 19.9146 10.5705 20.2966C10.6392 20.6785 10.8531 21.019 11.1675 21.2465L11.166 21.248ZM12 14C11.6022 14 11.2206 13.842 10.9393 13.5607C10.658 13.2794 10.5 12.8978 10.5 12.5C10.5 12.1022 10.658 11.7206 10.9393 11.4393C11.2206 11.158 11.6022 11 12 11C12.3978 11 12.7794 11.158 13.0607 11.4393C13.342 11.7206 13.5 12.1022 13.5 12.5C13.5 12.8978 13.342 13.2794 13.0607 13.5607C12.7794 13.842 12.3978 14 12 14ZM12 6.5C11.6022 6.5 11.2206 6.34196 10.9393 6.06066C10.658 5.77936 10.5 5.39782 10.5 5C10.5 4.60218 10.658 4.22064 10.9393 3.93934C11.2206 3.65804 11.6022 3.5 12 3.5C12.3978 3.5 12.7794 3.65804 13.0607 3.93934C13.342 4.22064 13.5 4.60218 13.5 5C13.5 5.39782 13.342 5.77936 13.0607 6.06066C12.7794 6.34196 12.3978 6.5 12 6.5Z" fill="#403F3F"/>
</svg>
