<svg width="32" height="32" viewBox="0 0 32 32" fill="none" xmlns="http://www.w3.org/2000/svg">
<path d="M27 9.00056H18.4137L22.7075 4.70806C22.8951 4.52042 23.0006 4.26592 23.0006 4.00056C23.0006 3.73519 22.8951 3.4807 22.7075 3.29306C22.5199 3.10542 22.2654 3 22 3C21.7346 3 21.4801 3.10542 21.2925 3.29306L16 8.58681L10.7075 3.29306C10.6146 3.20015 10.5043 3.12645 10.3829 3.07616C10.2615 3.02588 10.1314 3 10 3C9.86861 3 9.7385 3.02588 9.6171 3.07616C9.49571 3.12645 9.38541 3.20015 9.2925 3.29306C9.10486 3.4807 8.99944 3.73519 8.99944 4.00056C8.99944 4.26592 9.10486 4.52042 9.2925 4.70806L13.5863 9.00056H5C4.46957 9.00056 3.96086 9.21127 3.58579 9.58634C3.21071 9.96142 3 10.4701 3 11.0006V26.0006C3 26.531 3.21071 27.0397 3.58579 27.4148C3.96086 27.7898 4.46957 28.0006 5 28.0006H27C27.5304 28.0006 28.0391 27.7898 28.4142 27.4148C28.7893 27.0397 29 26.531 29 26.0006V11.0006C29 10.4701 28.7893 9.96142 28.4142 9.58634C28.0391 9.21127 27.5304 9.00056 27 9.00056ZM27 26.0006H20V11.0006H27V26.0006ZM25 15.5006C25 15.7972 24.912 16.0872 24.7472 16.3339C24.5824 16.5806 24.3481 16.7728 24.074 16.8864C23.7999 16.9999 23.4983 17.0296 23.2074 16.9717C22.9164 16.9139 22.6491 16.771 22.4393 16.5612C22.2296 16.3514 22.0867 16.0842 22.0288 15.7932C21.9709 15.5022 22.0007 15.2006 22.1142 14.9265C22.2277 14.6524 22.42 14.4182 22.6666 14.2534C22.9133 14.0885 23.2033 14.0006 23.5 14.0006C23.8978 14.0006 24.2794 14.1586 24.5607 14.4399C24.842 14.7212 25 15.1027 25 15.5006ZM25 21.5006C25 21.7972 24.912 22.0872 24.7472 22.3339C24.5824 22.5806 24.3481 22.7728 24.074 22.8864C23.7999 22.9999 23.4983 23.0296 23.2074 22.9717C22.9164 22.9139 22.6491 22.771 22.4393 22.5612C22.2296 22.3514 22.0867 22.0842 22.0288 21.7932C21.9709 21.5022 22.0007 21.2006 22.1142 20.9265C22.2277 20.6524 22.42 20.4182 22.6666 20.2534C22.9133 20.0885 23.2033 20.0006 23.5 20.0006C23.8978 20.0006 24.2794 20.1586 24.5607 20.4399C24.842 20.7212 25 21.1027 25 21.5006Z" fill="#C47EFB"/>
</svg>
