<svg width="18" height="18" viewBox="0 0 18 18" fill="none" xmlns="http://www.w3.org/2000/svg">
<path d="M17.0004 17.0004L12.9504 12.9504M12.9504 12.9504C13.6004 12.3003 14.116 11.5286 14.4678 10.6793C14.8196 9.82995 15.0007 8.91966 15.0007 8.00036C15.0007 7.08106 14.8196 6.17076 14.4678 5.32144C14.116 4.47211 13.6004 3.7004 12.9504 3.05036C12.3003 2.40031 11.5286 1.88467 10.6793 1.53287C9.82995 1.18107 8.91966 1 8.00036 1C7.08106 1 6.17076 1.18107 5.32144 1.53287C4.47211 1.88467 3.7004 2.40031 3.05036 3.05036C1.73754 4.36318 1 6.14375 1 8.00036C1 9.85697 1.73754 11.6375 3.05036 12.9504C4.36318 14.2632 6.14375 15.0007 8.00036 15.0007C9.85697 15.0007 11.6375 14.2632 12.9504 12.9504Z" stroke="black" stroke-width="1.33333" stroke-linecap="round" stroke-linejoin="round"/>
</svg>
