<svg width="10" height="10" viewBox="0 0 10 10" fill="none" xmlns="http://www.w3.org/2000/svg">
<path d="M9.20015 0.806816C9.13847 0.745013 9.06521 0.695982 8.98456 0.662527C8.90392 0.629073 8.81746 0.611853 8.73015 0.611853C8.64284 0.611853 8.55638 0.629073 8.47573 0.662527C8.39508 0.695982 8.32182 0.745013 8.26015 0.806816L5.00015 4.06015L1.74015 0.800149C1.67843 0.738428 1.60515 0.689468 1.52451 0.656064C1.44387 0.622661 1.35744 0.605469 1.27015 0.605469C1.18286 0.605469 1.09643 0.622661 1.01579 0.656064C0.935144 0.689468 0.86187 0.738428 0.800149 0.800149C0.738428 0.86187 0.689468 0.935144 0.656064 1.01579C0.622661 1.09643 0.605469 1.18286 0.605469 1.27015C0.605469 1.35744 0.622661 1.44387 0.656064 1.52451C0.689468 1.60515 0.738428 1.67843 0.800149 1.74015L4.06015 5.00015L0.800149 8.26015C0.738428 8.32187 0.689468 8.39514 0.656064 8.47579C0.622661 8.55643 0.605469 8.64286 0.605469 8.73015C0.605469 8.81744 0.622661 8.90387 0.656064 8.98451C0.689468 9.06515 0.738428 9.13843 0.800149 9.20015C0.86187 9.26187 0.935144 9.31083 1.01579 9.34423C1.09643 9.37764 1.18286 9.39483 1.27015 9.39483C1.35744 9.39483 1.44387 9.37764 1.52451 9.34423C1.60515 9.31083 1.67843 9.26187 1.74015 9.20015L5.00015 5.94015L8.26015 9.20015C8.32187 9.26187 8.39514 9.31083 8.47579 9.34423C8.55643 9.37764 8.64286 9.39483 8.73015 9.39483C8.81744 9.39483 8.90387 9.37764 8.98451 9.34423C9.06515 9.31083 9.13843 9.26187 9.20015 9.20015C9.26187 9.13843 9.31083 9.06515 9.34423 8.98451C9.37764 8.90387 9.39483 8.81744 9.39483 8.73015C9.39483 8.64286 9.37764 8.55643 9.34423 8.47579C9.31083 8.39514 9.26187 8.32187 9.20015 8.26015L5.94015 5.00015L9.20015 1.74015C9.45348 1.48682 9.45348 1.06015 9.20015 0.806816Z" fill="black"/>
</svg>
