<svg width="18" height="18" viewBox="0 0 18 18" fill="none" xmlns="http://www.w3.org/2000/svg">
<path d="M14.8065 7.04801V4.44317C14.8065 3.23672 13.6742 2.38672 12.3968 2.38672H5.60328C4.32586 2.38672 3.1936 3.23672 3.1936 4.44317V7.04801H14.8065Z" fill="#6965A8"/>
<path d="M2.32248 9.51777H1.42248C0.754738 9.51777 0.203125 9.05164 0.203125 8.42099C0.203125 7.79035 0.754738 7.32422 1.42248 7.32422H2.6128" fill="#8989CC"/>
<path d="M15.677 9.51777H16.577C17.2448 9.51777 17.7964 9.05164 17.7964 8.42099C17.7964 7.79035 17.2448 7.32422 16.577 7.32422H15.3867" fill="#8989CC"/>
<path d="M16.0547 11.1588H1.94507L2.787 4.57812H15.2128L16.0547 11.1588Z" fill="#6965A8"/>
<path d="M15.3577 11.1588H2.6416L3.48354 4.57812H14.5158L15.3577 11.1588Z" fill="white"/>
<path d="M14.4875 4.57812L15.3584 11.1588H2.61328" fill="#EAEAEA"/>
<path d="M14.8065 13.08V10.2832C14.8065 9.07679 13.6742 8.14453 12.3968 8.14453H5.60328C4.32586 8.14453 3.1936 9.10421 3.1936 10.2832V13.08H14.8065Z" fill="#8989CC"/>
<path d="M18 16.0963V12.1753C18 10.7221 16.7516 9.51562 15.2419 9.51562H2.75806C1.24839 9.51562 0 10.7221 0 12.1753V16.0414V16.0963H18Z" fill="#6965A8"/>
<path d="M3.33876 13.1095C2.72908 13.6853 1.74198 13.6853 1.13231 13.1095C0.52263 12.5337 0.52263 11.6014 1.13231 11.0256C1.74198 10.4498 2.72908 10.4498 3.33876 11.0256C3.94843 11.6014 3.94843 12.5337 3.33876 13.1095Z" fill="#FFC114"/>
<path d="M3.33829 11.0234C3.94796 11.5992 3.94796 12.5315 3.33829 13.1073C2.72861 13.6831 1.74151 13.6831 1.13184 13.1073" fill="#FF8A15"/>
<path d="M15.764 13.5472C16.6299 13.5472 17.3318 12.8843 17.3318 12.0666C17.3318 11.2488 16.6299 10.5859 15.764 10.5859C14.8982 10.5859 14.1963 11.2488 14.1963 12.0666C14.1963 12.8843 14.8982 13.5472 15.764 13.5472Z" fill="#FFC114"/>
<path d="M16.8678 11.0234C17.4775 11.5992 17.4775 12.5315 16.8678 13.1073C16.2581 13.6831 15.2711 13.6831 14.6614 13.1073" fill="#FF8A15"/>
<path d="M13.6448 14.1754V11.9544C13.6448 10.9673 12.8609 10.0625 11.8158 10.0625H6.21256C5.1674 10.0625 4.35449 10.9673 4.35449 11.9544V14.1754H13.6448Z" fill="#C4C4C4"/>
<path d="M6.09668 14.1754H13.6451V11.9544C13.6451 10.9673 12.8612 10.0625 11.816 10.0625" fill="#A8A8A8"/>
<path d="M5.5166 13.6281V11.3797C5.5166 11.2152 5.63273 11.0781 5.80692 11.0781C5.98112 11.0781 6.09725 11.2152 6.09725 11.3797V13.6281" fill="#6965A8"/>
<path d="M6.67798 13.6281V11.3797C6.67798 11.2152 6.79411 11.0781 6.9683 11.0781C7.14249 11.0781 7.25862 11.2152 7.25862 11.3797V13.6281" fill="#6965A8"/>
<path d="M8.12988 13.6281V11.3797C8.12988 11.2152 8.24601 11.0781 8.42021 11.0781C8.5944 11.0781 8.71053 11.2152 8.71053 11.3797V13.6281" fill="#6965A8"/>
<path d="M9.29077 13.6281V11.3797C9.29077 11.2152 9.4069 11.0781 9.58109 11.0781C9.75529 11.0781 9.87142 11.2152 9.87142 11.3797V13.6281" fill="#6965A8"/>
<path d="M10.7424 13.6281V11.3797C10.7424 11.2152 10.8586 11.0781 11.0328 11.0781C11.2069 11.0781 11.3231 11.2152 11.3231 11.3797V13.6281" fill="#6965A8"/>
<path d="M11.9033 13.6281V11.3797C11.9033 11.2152 12.0194 11.0781 12.1936 11.0781C12.3678 11.0781 12.484 11.2152 12.484 11.3797V13.6281" fill="#6965A8"/>
<path d="M0 16.0968C0 15.521 0.493548 15 1.10323 15H16.8968C17.5065 15 18 15.4935 18 16.0694" fill="#8989CC"/>
<path d="M2.78711 4.71673C2.78711 4.30544 3.1355 4.03125 3.54195 4.03125H14.4581C14.8936 4.03125 15.2129 4.33286 15.2129 4.74415" fill="#8989CC"/>
<path d="M5.8064 2.38606V1.67316C5.8064 1.42639 5.98059 1.20703 6.24188 1.20703C6.50317 1.20703 6.67736 1.42639 6.67736 1.67316V2.38606" fill="#FF8A15"/>
<path d="M11.323 2.38606V1.67316C11.323 1.42639 11.4972 1.20703 11.7585 1.20703C12.0198 1.20703 12.194 1.42639 12.194 1.67316V2.38606" fill="#FF8A15"/>
</svg>
