<svg width="18" height="18" viewBox="0 0 18 18" fill="none" xmlns="http://www.w3.org/2000/svg">
<g clip-path="url(#clip0_1659_12533)">
<path d="M7.77609 14.4779C10.8831 14.4779 13.4018 12.0991 13.4018 9.16472C13.4018 6.23035 10.8831 3.85156 7.77609 3.85156C4.6691 3.85156 2.15039 6.23035 2.15039 9.16472C2.15039 12.0991 4.6691 14.4779 7.77609 14.4779Z" fill="#FF9690"/>
<path d="M7.7758 13.0374C10.0402 13.0374 11.8758 11.3038 11.8758 9.1652C11.8758 7.02663 10.0402 5.29297 7.7758 5.29297C5.51142 5.29297 3.67578 7.02663 3.67578 9.1652C3.67578 11.3038 5.51142 13.0374 7.7758 13.0374Z" fill="#FD3B6D"/>
<path d="M2.15039 3.85264H13.4018C13.4018 -0.601921 2.15039 -0.601921 2.15039 3.85264Z" fill="#FC7576"/>
<path d="M11.7543 16.7935C9.49278 16.7935 7.6543 15.0571 7.6543 12.9212C7.6543 10.7853 9.49278 9.04688 11.7543 9.04688C14.0158 9.04688 15.8543 10.7832 15.8543 12.9191C15.8543 15.055 14.0158 16.7935 11.7543 16.7935Z" fill="#FFD37D"/>
<path d="M5.5712 9.37891C5.36642 9.37891 5.20215 9.53405 5.20215 9.72745C5.20215 9.92085 5.36642 10.076 5.5712 10.076C5.77597 10.076 5.94024 9.92085 5.94024 9.72745C5.94474 9.5383 5.77822 9.37891 5.5712 9.37891Z" fill="#000030"/>
<path d="M6.8583 10.9861C7.06212 10.9861 7.22735 10.8301 7.22735 10.6376C7.22735 10.4451 7.06212 10.2891 6.8583 10.2891C6.65448 10.2891 6.48926 10.4451 6.48926 10.6376C6.48926 10.8301 6.65448 10.9861 6.8583 10.9861Z" fill="#000030"/>
<path d="M13.7844 9.14859C13.7776 7.0297 12.5355 5.18072 10.7037 4.2116H13.4041C13.6156 4.2116 13.7844 4.04796 13.7844 3.85243C13.7844 2.68354 13.1093 1.70804 11.8289 1.0322C10.7532 0.464758 9.31532 0.152344 7.77612 0.152344C6.23693 0.152344 4.79675 0.464758 3.72112 1.0322C2.44521 1.70591 1.76562 2.68354 1.76562 3.85243C1.76562 4.05221 1.9389 4.2116 2.14592 4.2116H4.84626C3.01003 5.18497 1.76562 7.0382 1.76562 9.1656C1.76562 12.2876 4.45246 14.8316 7.75812 14.8379C8.50072 16.213 10.0129 17.1523 11.7524 17.1523C14.2232 17.1523 16.2349 15.2524 16.2349 12.9188C16.2349 11.276 15.2358 9.84993 13.7844 9.14859ZM2.56222 3.49326C2.71974 2.57727 3.46234 1.9992 4.09467 1.66341C5.04428 1.16184 6.3877 0.872809 7.77612 0.872809C9.16455 0.872809 10.508 1.16184 11.4576 1.66341C12.0899 1.9992 12.8325 2.57727 12.99 3.49326H2.56222ZM2.53297 9.1656C2.53297 6.43675 4.88451 4.2116 7.77837 4.2116C10.5597 4.2116 12.846 6.27098 13.0148 8.85743C12.765 8.7873 12.504 8.73842 12.2384 8.71079C12.1304 7.73104 11.6624 6.82355 10.9063 6.13072C10.0579 5.35924 8.95077 4.93419 7.77612 4.93419C5.30532 4.93419 3.29357 6.83418 3.29357 9.16772C3.29357 10.2729 3.74362 11.3227 4.56272 12.1176C5.29857 12.8317 6.25718 13.2737 7.29456 13.3757C7.32382 13.6287 7.37557 13.8731 7.44983 14.109C4.70899 13.9496 2.53297 11.7945 2.53297 9.1656ZM7.28331 12.6447C5.47184 12.413 4.05866 10.9211 4.05866 9.1656C4.05866 7.22948 5.72612 5.65253 7.77837 5.65253C9.64161 5.65253 11.2168 6.9872 11.4621 8.69804C9.22305 8.83618 7.42733 10.5321 7.28331 12.6447ZM11.7546 16.434C10.2312 16.434 8.92377 15.5669 8.3477 14.3279C8.3477 14.3236 8.34319 14.3215 8.34319 14.3172C8.14517 13.8879 8.03716 13.4183 8.03716 12.9231C8.03716 10.9869 9.70462 9.41 11.7569 9.41C12.2834 9.41 12.783 9.51201 13.2376 9.70329C14.5517 10.2452 15.4743 11.4843 15.4743 12.9252C15.4721 14.8592 13.8046 16.434 11.7546 16.434Z" fill="#000030"/>
</g>
<defs>
<clipPath id="clip0_1659_12533">
<rect width="18" height="17" fill="white" transform="translate(0 0.152344)"/>
</clipPath>
</defs>
</svg>
