<svg width="18" height="19" viewBox="0 0 18 19" fill="none" xmlns="http://www.w3.org/2000/svg">
<g clip-path="url(#clip0_1659_12504)">
<path d="M15.6884 12.4229C14.8835 9.41441 13.5927 7.16732 11.4289 6.24219V7.40203L8.96157 6.27682L6.49423 7.40203V6.28757C4.3729 7.22969 3.10338 9.45927 2.30702 12.4359C1.8592 14.1097 1.5918 17.6822 1.5918 17.6822H16.4084C16.4084 17.6822 16.1362 14.0967 15.6884 12.4229Z" fill="#DE5E88"/>
<path d="M5.85261 9.2206C5.82205 9.2206 5.79105 9.21772 5.76099 9.21167C5.73093 9.20562 5.70133 9.19662 5.67313 9.18488C5.64448 9.17314 5.61723 9.15858 5.59185 9.14167C5.56601 9.12431 5.54207 9.10508 5.52045 9.08296C5.49883 9.06134 5.47911 9.0374 5.4622 9.01156C5.44528 8.98618 5.43073 8.95893 5.41899 8.9307C5.40725 8.90208 5.39832 8.87297 5.3922 8.84288C5.38608 8.81233 5.38281 8.78174 5.38281 8.75081C5.38281 8.72026 5.38612 8.68967 5.3922 8.65919C5.39832 8.62906 5.40725 8.59949 5.41899 8.57133C5.43073 8.5431 5.44528 8.51589 5.4622 8.49005C5.47911 8.46467 5.49883 8.44027 5.52045 8.41865C5.54207 8.39703 5.56601 8.37731 5.59185 8.3604C5.61723 8.34349 5.64448 8.32893 5.67313 8.31719C5.70133 8.30545 5.73093 8.29652 5.76099 8.2904C5.8216 8.2782 5.88407 8.2782 5.94468 8.2904C5.97474 8.29652 6.00434 8.30545 6.03254 8.31719C6.06073 8.32893 6.08798 8.34349 6.11382 8.3604C6.1392 8.37731 6.16314 8.39703 6.18522 8.41865C6.27262 8.50651 6.3224 8.6272 6.3224 8.75081C6.3224 8.78178 6.31959 8.81236 6.31347 8.84288C6.30735 8.87294 6.29842 8.90208 6.28668 8.9307C6.27494 8.95893 6.26038 8.98618 6.24347 9.01156C6.22611 9.0374 6.20684 9.06134 6.18522 9.08296C6.16314 9.10508 6.13916 9.12431 6.11382 9.14167C6.08798 9.15858 6.06073 9.17314 6.03254 9.18488C6.00434 9.19662 5.97474 9.20555 5.94468 9.21167C5.91413 9.21779 5.88361 9.2206 5.85261 9.2206Z" fill="black"/>
<path d="M3.39746 16.0396C3.51956 14.9183 3.69386 13.6173 3.89577 12.8624C4.15736 11.8848 4.46484 11.0375 4.81552 10.3261C4.85451 10.247 4.89406 10.1695 4.93414 10.0938" fill="#DE5E88"/>
<path d="M3.39717 16.5104C3.38016 16.5104 3.36304 16.5095 3.34574 16.5076C3.08783 16.4795 2.90147 16.2477 2.92956 15.9898C3.04143 14.9623 3.221 13.5648 3.44112 12.7421C3.70943 11.7393 4.02978 10.8569 4.39336 10.1195C4.43418 10.0367 4.47616 9.95448 4.5181 9.87516C4.63946 9.64584 4.92377 9.5583 5.15309 9.67963C5.38242 9.80092 5.46995 10.0853 5.34866 10.3146C5.31084 10.3861 5.27297 10.4602 5.23609 10.5349C4.89972 11.2172 4.60117 12.0415 4.34878 12.985C4.1441 13.7501 3.97194 15.0966 3.86366 16.0915C3.83744 16.3321 3.63381 16.5104 3.39717 16.5104Z" fill="black"/>
<path d="M11.4288 4.24219L8.96148 5.36743L6.49414 4.24219V7.40077L8.96148 6.27552L11.4288 7.40077V4.24219Z" fill="#FECC85"/>
<path d="M10.9016 0.625844C10.2229 0.625844 9.37803 1.06101 9.00341 1.05816C8.63251 1.05524 7.80162 0.625 7.09741 0.625C6.07819 0.625 5.85108 1.24129 6.09426 2.49127C6.1498 2.77667 6.36605 3.56135 6.57038 4.28153L8.96122 5.37186L11.415 4.25281C11.6263 3.54163 11.8472 2.77582 11.9046 2.49327C12.1493 1.29019 11.9207 0.625844 10.9016 0.625844Z" fill="#BBDCE3"/>
<path d="M16.8766 17.647C16.8654 17.4988 16.5959 13.9984 16.142 12.3019C15.2582 8.99832 13.868 6.9144 11.8985 5.94279V4.27238C12.1595 3.39115 12.3166 2.82278 12.3652 2.58403C12.5495 1.67756 12.4779 1.06289 12.1402 0.649488C11.871 0.320074 11.4543 0.153117 10.9017 0.153117C10.4407 0.153117 9.94782 0.311391 9.55178 0.438621C9.35871 0.500602 9.09454 0.585469 9.0082 0.585434C9.00788 0.585434 9.00753 0.585434 9.00721 0.585434C8.92425 0.584766 8.67042 0.503027 8.48507 0.443367C8.0825 0.313711 7.58149 0.152344 7.09753 0.152344C6.5396 0.152344 6.1219 0.315891 5.85605 0.638484C5.52028 1.04588 5.45154 1.64409 5.63323 2.57812C5.67693 2.80274 5.81355 3.32351 6.03929 4.12609C6.02948 4.16409 6.02431 4.20357 6.02431 4.24376V5.99261C4.09332 6.97747 2.72672 9.0493 1.85309 12.3146C1.39908 14.0115 1.13422 17.4998 1.12314 17.6475C1.11337 17.7778 1.15837 17.9063 1.24728 18.0021C1.33615 18.0979 1.46096 18.1523 1.59163 18.1523H16.4082C16.539 18.1523 16.6638 18.0979 16.7528 18.0019C16.8416 17.906 16.8865 17.7774 16.8766 17.647ZM8.80932 5.83282C8.7948 5.83774 8.78049 5.84326 8.76639 5.84963L6.96383 6.67168V6.28785V4.97438L8.76639 5.79647C8.78067 5.80301 8.79529 5.80849 8.80999 5.81352C8.81364 5.81475 8.81737 5.8158 8.82106 5.81696C8.8276 5.81897 8.83403 5.82132 8.84061 5.82308C8.8346 5.82466 8.82873 5.82681 8.82275 5.82864C8.81835 5.83001 8.81385 5.83134 8.80932 5.83282ZM9.11321 5.83279C9.10903 5.83134 9.10474 5.83015 9.10052 5.82885C9.09437 5.82691 9.08825 5.8247 9.08199 5.82308C9.08832 5.82139 9.09458 5.81918 9.10094 5.81721C9.10488 5.81598 9.10889 5.81486 9.11282 5.81348C9.12748 5.80849 9.14204 5.80297 9.15628 5.79647L10.9589 4.97438V6.2425V6.67175L9.15628 5.84966C9.14218 5.84323 9.12776 5.83778 9.11321 5.83279ZM6.58108 1.23607C6.6599 1.14041 6.83368 1.09193 7.09753 1.09193C7.4339 1.09193 7.83929 1.2225 8.197 1.33774C8.51886 1.44138 8.77307 1.52326 8.9999 1.52505C9.00226 1.52505 9.00465 1.52505 9.007 1.52505C9.24178 1.52505 9.51881 1.43607 9.83905 1.33324C10.1901 1.22053 10.5878 1.09274 10.9017 1.09274C11.1587 1.09274 11.3305 1.14368 11.4126 1.24412C11.4922 1.3415 11.6021 1.62086 11.4443 2.39696C11.4153 2.53991 11.3182 2.91998 11.0254 3.91132L10.1722 4.30046L8.96126 4.85266L6.96326 3.94145C6.67797 2.92965 6.58354 2.54318 6.55545 2.39872C6.40059 1.60208 6.50504 1.32832 6.58108 1.23607ZM2.1021 17.2128C2.19319 16.1761 2.4279 13.8017 2.76072 12.5576C3.49183 9.82506 4.56346 8.02179 6.02431 7.07528V7.40241V7.40244C6.02431 7.56226 6.10559 7.71115 6.23999 7.7976C6.24126 7.79841 6.24263 7.7989 6.2439 7.79971C6.2607 7.81032 6.27807 7.81978 6.29586 7.82804C6.30285 7.83128 6.3101 7.83374 6.31723 7.83666C6.32968 7.84172 6.34212 7.84668 6.35492 7.85061C6.36318 7.85318 6.37155 7.85511 6.37995 7.85719C6.39197 7.86021 6.40407 7.86295 6.41627 7.86503C6.42502 7.86647 6.43374 7.86756 6.44253 7.86854C6.45469 7.86991 6.46686 7.87076 6.47913 7.87118C6.48415 7.87132 6.48908 7.8722 6.4941 7.8722C6.49896 7.8722 6.50377 7.8716 6.50862 7.87139C6.51534 7.87121 6.52198 7.87083 6.5287 7.87037C6.54054 7.86949 6.55232 7.86812 6.56414 7.86633C6.57057 7.86534 6.57697 7.86446 6.58337 7.86323C6.59613 7.86081 6.60875 7.85754 6.62133 7.85399C6.6265 7.85255 6.63171 7.85142 6.63684 7.84977C6.65449 7.84414 6.67203 7.83764 6.68912 7.82984L8.96148 6.79346L11.2339 7.82984C11.3793 7.89618 11.5484 7.88394 11.6829 7.79753C11.8173 7.71108 11.8986 7.56219 11.8986 7.40237V7.40234V7.01632C13.3969 7.95193 14.4922 9.77007 15.2344 12.5446V12.5447C15.5673 13.7888 15.8049 16.173 15.8973 17.2127H2.1021V17.2128Z" fill="black"/>
</g>
<defs>
<clipPath id="clip0_1659_12504">
<rect width="18" height="18" fill="white" transform="translate(0 0.152344)"/>
</clipPath>
</defs>
</svg>
