<svg width="17" height="18" viewBox="0 0 17 18" fill="none" xmlns="http://www.w3.org/2000/svg">
<g clip-path="url(#clip0_1659_12581)">
<path d="M8.76489 6.97853L7.6661 7.61287C7.41469 7.7584 7.09305 7.6727 6.94745 7.42136C6.89934 7.33818 6.87646 7.2474 6.87653 7.15776H6.87547V5.889V4.62027C6.87547 4.32914 7.11137 4.0931 7.40253 4.0931C7.51164 4.0931 7.61304 4.12624 7.69701 4.18301L8.76486 4.79953L8.79189 4.81633L9.86163 5.43391C10.113 5.57831 10.1996 5.89919 10.0552 6.1505C10.0059 6.23633 9.93597 6.30297 9.85529 6.34773L8.76433 6.97766L8.76489 6.97853ZM15.5836 1.39062H1.41693C0.832552 1.39062 0.354492 1.86865 0.354492 2.45299V10.3864H16.6461V2.45299C16.6461 1.86862 16.168 1.39062 15.5836 1.39062Z" fill="#ABB8B9"/>
<path d="M7.66658 7.61352L8.76537 6.97917L8.76484 6.97831L9.8558 6.34838C9.93645 6.30366 10.0064 6.23698 10.0557 6.15115C10.2002 5.8998 10.1135 5.57896 9.86214 5.43456L8.7924 4.81698L8.76537 4.80018L7.69752 4.18366C7.61355 4.12689 7.51215 4.09375 7.40304 4.09375C7.11185 4.09375 6.87598 4.32982 6.87598 4.62092V5.88964V7.1584H6.87704C6.87697 7.24805 6.89982 7.33883 6.94796 7.422C7.09356 7.67329 7.4152 7.75905 7.66658 7.61352Z" fill="#D12D4E"/>
<path d="M16.6462 10.3867H0.354492V11.6617C0.354492 12.246 0.832551 12.7241 1.41693 12.7241H6.41238H10.5882H15.5836C16.168 12.7241 16.6461 12.246 16.6461 11.6617V10.3867H16.6462Z" fill="#FCD051"/>
<path d="M10.5886 12.7266H6.41277L6.05859 14.4974H10.9427L10.5886 12.7266Z" fill="#FCD051"/>
<path d="M10.9427 14.4922H6.05854H5.66727C5.2777 14.4922 4.95898 14.8109 4.95898 15.2005V15.9089H12.0422V15.2005C12.0422 14.8109 11.7235 14.4922 11.3339 14.4922H10.9427V14.4922Z" fill="#FCD051"/>
<path d="M15.5834 1.03906H1.41665C0.635476 1.03906 0 1.67454 0 2.45564V11.664C0 12.4451 0.635476 13.0807 1.41665 13.0807H5.98006L5.76759 14.1431H5.66669C5.08085 14.1431 4.60422 14.6197 4.60422 15.2056V15.914C4.60422 16.1096 4.7628 16.2682 4.9584 16.2682H12.0416C12.2372 16.2682 12.3958 16.1096 12.3958 15.914V15.2056C12.3958 14.6197 11.9191 14.1431 11.3333 14.1431H11.2324L11.0199 13.0807H15.5834C16.3645 13.0807 17 12.4451 17 11.664V2.45564C17 1.67454 16.3645 1.03906 15.5834 1.03906ZM1.41665 1.74745H15.5834C15.9739 1.74745 16.2917 2.06514 16.2917 2.45564V10.0349H0.70839V2.45564C0.70839 2.06514 1.02611 1.74745 1.41665 1.74745ZM11.6874 15.2056V15.5598H5.31258V15.2056C5.31258 15.0103 5.47139 14.8515 5.66666 14.8515H6.05792H10.942C10.9423 14.8514 10.9425 14.8514 10.9427 14.8515H11.3333C11.5285 14.8515 11.6874 15.0104 11.6874 15.2056ZM10.51 14.1431H6.49L6.70243 13.0807H10.2975L10.51 14.1431ZM15.5834 12.3723H10.5879H6.4121H1.41665C1.02611 12.3723 0.70839 12.0545 0.70839 11.664V10.7433H16.2916V11.664C16.2916 12.0545 15.9739 12.3723 15.5834 12.3723Z" fill="#000003"/>
<path d="M6.64024 7.60212C6.79709 7.87296 7.08911 8.0412 7.40232 8.0412C7.55658 8.0412 7.70892 8.00023 7.84253 7.92287L8.94129 7.28852C8.94925 7.28394 8.95692 7.27906 8.96443 7.27398L10.0294 6.65909C10.1676 6.58172 10.2825 6.46807 10.3616 6.33031C10.4787 6.12671 10.5094 5.88974 10.4481 5.66306C10.3869 5.43635 10.241 5.24706 10.0381 5.13045L8.97648 4.51758C8.96483 4.51008 8.95307 4.50287 8.94125 4.49607L7.88293 3.88506C7.73973 3.79153 7.57371 3.74219 7.40185 3.74219C6.91586 3.74219 6.52051 4.13757 6.52051 4.62357V7.16105C6.52051 7.17344 6.52114 7.18576 6.52243 7.19784C6.52834 7.33962 6.56875 7.47861 6.64024 7.60212ZM7.2289 4.62357C7.2289 4.52817 7.30646 4.45058 7.40185 4.45058C7.44562 4.45058 7.47832 4.46645 7.49804 4.4798C7.50495 4.48448 7.51202 4.48889 7.51926 4.49304L8.58751 5.10979C8.59049 5.11149 8.59328 5.11335 8.59607 5.11517C8.60198 5.11906 8.60799 5.12278 8.61414 5.12633L9.68454 5.74431C9.73783 5.77495 9.75735 5.82227 9.76423 5.84773C9.7711 5.8732 9.77807 5.92394 9.74733 5.97736C9.73162 6.00472 9.70994 6.0262 9.68288 6.04118C9.68109 6.04217 9.67929 6.0432 9.67757 6.04423L8.58661 6.67406C8.57864 6.67868 8.57097 6.68353 8.56347 6.68861L7.48798 7.30957C7.46135 7.32494 7.4326 7.33278 7.40235 7.33278C7.3401 7.33278 7.28438 7.30074 7.25334 7.24715C7.23783 7.22045 7.23003 7.19153 7.23006 7.16125C7.23006 7.15169 7.22966 7.14219 7.22893 7.13273V4.62353H7.2289V4.62357Z" fill="#000003"/>
<path d="M1.77117 6.81641C1.57557 6.81641 1.41699 6.97498 1.41699 7.17058V8.97066C1.41699 9.16629 1.5756 9.32483 1.77117 9.32483C1.9668 9.32483 2.12535 9.16626 2.12535 8.97066V7.17058C2.12538 6.97498 1.96684 6.81641 1.77117 6.81641Z" fill="#000003"/>
<path d="M1.77117 6.50976C1.9668 6.50976 2.12535 6.35118 2.12535 6.15558V6.14715C2.12535 5.95151 1.96677 5.79297 1.77117 5.79297C1.57557 5.79297 1.41699 5.95155 1.41699 6.14715V6.15558C1.41696 6.35115 1.57557 6.50976 1.77117 6.50976Z" fill="#000003"/>
<path d="M15.2292 4.96159C15.4248 4.96159 15.5834 4.80301 15.5834 4.60741V2.8073C15.5834 2.61167 15.4248 2.45312 15.2292 2.45312C15.0336 2.45312 14.875 2.6117 14.875 2.8073V4.60738C14.875 4.80301 15.0335 4.96159 15.2292 4.96159Z" fill="#000003"/>
<path d="M15.229 5.9903C15.4246 5.9903 15.5831 5.83172 15.5831 5.63612V5.62762C15.5831 5.43198 15.4246 5.27344 15.229 5.27344C15.0333 5.27344 14.8748 5.43202 14.8748 5.62762V5.63612C14.8748 5.83175 15.0333 5.9903 15.229 5.9903Z" fill="#000003"/>
</g>
<defs>
<clipPath id="clip0_1659_12581">
<rect width="17" height="17" fill="white" transform="translate(0 0.152344)"/>
</clipPath>
</defs>
</svg>
