<svg width="18" height="19" viewBox="0 0 18 19" fill="none" xmlns="http://www.w3.org/2000/svg">
<g clip-path="url(#clip0_1659_12463)">
<path d="M12.6834 0.882812C11.3434 0.882812 10.0195 1.38737 9.00009 2.26191C9.00002 2.26184 8.99998 2.26181 8.99991 2.26181C7.98035 1.38727 6.65652 0.882812 5.31661 0.882812C2.33538 0.882813 0 3.21812 0 6.19946C0 9.80316 2.50909 12.0059 6.30706 15.3401C6.6317 15.6251 6.9667 15.9192 7.31147 16.224C7.31383 16.2261 7.31622 16.2282 7.31861 16.2302L8.46529 17.2207C8.61882 17.3534 8.80944 17.4197 9.00002 17.4198C9.00012 17.4198 9.00019 17.4198 9.0003 17.4198C9.19099 17.4198 9.38164 17.3534 9.53534 17.2207L10.6818 16.2302C10.6842 16.2282 10.6866 16.2261 10.6889 16.224C12.9588 14.2165 14.6608 12.6797 15.892 11.1808C17.3302 9.43016 18 7.84729 18 6.19946C17.9999 3.21812 15.6646 0.882812 12.6834 0.882812Z" fill="#D8143A"/>
<path d="M12.6834 0.882812C11.3434 0.882812 10.0195 1.38737 9.00009 2.26191C9.00002 2.26184 8.99998 2.26181 8.99991 2.26181C7.98035 1.38727 6.65652 0.882812 5.31661 0.882812C2.33538 0.882813 0 3.21812 0 6.19946C0 9.80316 2.50909 12.0059 6.30706 15.3401C6.6317 15.6251 6.9667 15.9192 7.31147 16.224C7.31383 16.2261 7.31622 16.2282 7.31861 16.2302L8.46529 17.2207C8.61882 17.3534 8.80944 17.4197 9.00002 17.4198C9.00012 17.4198 9.00019 17.4198 9.0003 17.4198C9.19099 17.4198 9.38164 17.3534 9.53534 17.2207L10.6818 16.2302C10.6842 16.2282 10.6866 16.2261 10.6889 16.224C12.9588 14.2165 14.6608 12.6797 15.892 11.1808C17.3302 9.43016 18 7.84729 18 6.19946C17.9999 3.21812 15.6646 0.882812 12.6834 0.882812Z" fill="#D8143A"/>
<path d="M10.0911 7.51828V5.33594H8.99998H7.90877V7.51828H5.72656V9.70056H7.90877V11.8828H8.99998H10.0911V9.70056H12.2734V7.51828H10.0911Z" fill="#830018"/>
<path d="M6.30706 15.34C6.6317 15.625 6.9667 15.9191 7.31147 16.224C7.31383 16.226 7.31622 16.2282 7.31861 16.2302L8.46529 17.2207C8.61882 17.3534 8.80944 17.4197 9.00002 17.4198V11.8792H7.90881V9.69693H5.72657V7.51465H7.90881V5.3323H9.00002V2.26177C7.98042 1.38723 6.65662 0.882813 5.31668 0.882813C2.33538 0.882742 0 3.21805 0 6.19946C0 9.8031 2.50909 12.0058 6.30706 15.34Z" fill="#B8002B"/>
</g>
<defs>
<clipPath id="clip0_1659_12463">
<rect width="18" height="18" fill="white" transform="translate(0 0.152344)"/>
</clipPath>
</defs>
</svg>
