<svg width="17" height="19" viewBox="0 0 17 19" fill="none" xmlns="http://www.w3.org/2000/svg">
<g clip-path="url(#clip0_1659_12478)">
<path d="M8.22698 7.75018C8.19202 7.71025 8.14291 7.6875 8.09142 7.6875H1.14377C1.09231 7.6875 1.04317 7.71021 1.00821 7.75018C0.973242 7.79012 0.955578 7.84373 0.959529 7.89805L1.68004 17.8869C1.68737 17.989 1.76769 18.0677 1.86428 18.0677H2.6238H4.19892C4.19919 18.0677 4.19945 18.0677 4.19965 18.0677H7.46507V13.9235C7.56166 13.9235 7.74106 15.1147 7.74846 15.0128L8.27569 7.89809C8.27961 7.8437 8.26198 7.79016 8.22698 7.75018ZM2.62377 15.4382C2.48534 15.2218 2.40429 14.9613 2.40429 14.6815C2.40429 14.4009 2.48528 14.14 2.62377 13.9235V15.4382Z" fill="#FBAE2E"/>
<g opacity="0.15">
<path opacity="0.15" d="M3.2517 15.4366V13.9219C3.11318 14.1383 3.03223 14.3993 3.03223 14.6799C3.03223 14.9597 3.11328 15.2202 3.2517 15.4366Z" fill="#202020"/>
<path opacity="0.15" d="M2.30831 17.8869L1.5878 7.89805C1.58388 7.8437 1.60151 7.79012 1.63647 7.75018C1.67144 7.71025 1.72054 7.6875 1.77204 7.6875H1.14377C1.09231 7.6875 1.04317 7.71021 1.00821 7.75018C0.973242 7.79012 0.955578 7.84373 0.959529 7.89805L1.68004 17.8869C1.68741 17.989 1.76769 18.0677 1.86428 18.0677H2.49255C2.39596 18.0677 2.31568 17.989 2.30831 17.8869Z" fill="#202020"/>
</g>
<path d="M7.96496 0.463417L7.37541 0.248929C7.32905 0.232019 7.27829 0.235359 7.23423 0.258175C7.19016 0.280956 7.1565 0.321281 7.14059 0.370359L5.70413 4.79758C5.68474 4.85738 5.69377 4.92337 5.72846 4.97484C5.76313 5.02627 5.81914 5.05682 5.87884 5.05682H6.53802C6.61691 5.05682 6.68714 5.00377 6.7128 4.92474L8.07964 0.712042C8.11281 0.609808 8.06148 0.498538 7.96496 0.463417Z" fill="#DCE0E2"/>
<path d="M8.31959 4.9375H0.915244C0.813178 4.9375 0.730469 5.02507 0.730469 5.13314V6.59993C0.730469 6.708 0.813178 6.79557 0.915244 6.79557H8.31962C8.42166 6.79557 8.5044 6.708 8.5044 6.59993V5.13314C8.5044 5.02507 8.42166 4.9375 8.31959 4.9375Z" fill="#F7BF6D"/>
<path opacity="0.15" d="M1.3587 6.59993V5.13314C1.3587 5.02507 1.44141 4.9375 1.54348 4.9375H0.915244C0.813178 4.9375 0.730469 5.02507 0.730469 5.13314V6.59993C0.730469 6.708 0.813178 6.79557 0.915244 6.79557H1.54351C1.44141 6.79561 1.3587 6.70804 1.3587 6.59993Z" fill="#202020"/>
<path d="M1.01273 8.63629H8.22245L8.29088 7.6875H0.944336L1.01273 8.63629Z" fill="#F7BF6D"/>
<path d="M1.01272 8.634H8.22243L8.35823 6.94531H0.883789L1.01272 8.634Z" fill="#F7BF6D"/>
<path d="M15.7207 13.3242H3.68388C2.97715 13.3242 2.4043 13.9309 2.4043 14.6791C2.4043 15.4272 2.97715 16.0339 3.68388 16.0339H3.86032H15.5444H15.6202H15.7208C16.4275 16.0339 17.0005 15.4272 17.0005 14.6791C17.0004 13.9309 16.4274 13.3242 15.7207 13.3242Z" fill="#E95353"/>
<path d="M9.2343 6.84121C9.2343 6.49102 8.96616 6.20703 8.63535 6.20703H0.598983C0.268148 6.20703 0 6.49102 0 6.84121V7.05261C0 7.4029 0.268148 7.68686 0.598983 7.68686H8.63535C8.96616 7.68686 9.2343 7.4029 9.2343 7.05261V6.84121Z" fill="#8C5549"/>
<path opacity="0.15" d="M0.944336 7.6875L1.01273 8.63629H1.64104L1.5726 7.6875H0.944336Z" fill="#202020"/>
<path opacity="0.15" d="M0.628268 7.05261V6.84121C0.628268 6.49102 0.896416 6.20703 1.22725 6.20703H0.598983C0.268148 6.20703 0 6.49102 0 6.84121V7.05261C0 7.4029 0.268148 7.68686 0.598983 7.68686H1.22725C0.896416 7.68686 0.628268 7.4029 0.628268 7.05261Z" fill="#202020"/>
<path d="M5.5855 13.3242L5.31821 13.6146C5.21133 13.7307 5.21359 13.9165 5.32323 14.0296C5.37711 14.0852 5.44691 14.1129 5.51667 14.1129C5.58878 14.1129 5.66084 14.0833 5.71516 14.0243L6.30169 13.3871C6.31939 13.3679 6.3338 13.3466 6.34552 13.3242H5.5855Z" fill="#F96969"/>
<path d="M7.45073 13.3242L7.18345 13.6146C7.07657 13.7307 7.07882 13.9165 7.18846 14.0296C7.24235 14.0852 7.31214 14.1129 7.3819 14.1129C7.45402 14.1129 7.52607 14.0833 7.58039 14.0242L8.16692 13.3871C8.18462 13.3678 8.199 13.3466 8.21075 13.3242H7.45073Z" fill="#F96969"/>
<path d="M9.3159 13.3242L9.04865 13.6146C8.9418 13.7307 8.94406 13.9165 9.0537 14.0296C9.10762 14.0852 9.17741 14.1129 9.24714 14.1129C9.31926 14.1129 9.39134 14.0833 9.44563 14.0242L10.0322 13.3871C10.0499 13.3678 10.0642 13.3466 10.076 13.3242H9.3159Z" fill="#F96969"/>
<path d="M11.1809 13.3242L10.9136 13.6146C10.8068 13.7307 10.8091 13.9165 10.9187 14.0296C10.9725 14.0852 11.0423 14.1129 11.1121 14.1129C11.1843 14.1129 11.2563 14.0833 11.3106 14.0243L11.8972 13.3871C11.9149 13.3679 11.9292 13.3466 11.941 13.3242H11.1809Z" fill="#F96969"/>
<path d="M13.0461 13.3242L12.7789 13.6146C12.672 13.7307 12.6743 13.9165 12.7839 14.0296C12.8378 14.0852 12.9076 14.1129 12.9773 14.1129C13.0495 14.1129 13.1215 14.0833 13.1759 14.0243L13.7624 13.3871C13.7801 13.3679 13.7945 13.3466 13.8062 13.3242H13.0461Z" fill="#F96969"/>
<g opacity="0.15">
<path opacity="0.15" d="M3.03257 14.6791C3.03257 13.9309 3.60542 13.3242 4.31214 13.3242H3.68388C2.97715 13.3242 2.4043 13.9309 2.4043 14.6791C2.4043 15.4272 2.97715 16.0339 3.68388 16.0339H3.86032C3.86131 16.0054 3.86337 15.9772 3.866 15.9491C3.3793 15.7573 3.03257 15.2611 3.03257 14.6791Z" fill="#202020"/>
</g>
<path d="M14.2147 14.6797H5.18922C4.45434 14.6797 3.85864 15.3104 3.85864 16.0885V16.3383V16.4074V16.6572C3.85864 17.4353 4.45434 18.066 5.18922 18.066H12.541H13.4525H14.2148C14.9496 18.066 15.5454 17.4353 15.5454 16.6572V16.4074V16.3383V16.0885C15.5453 15.3104 14.9495 14.6797 14.2147 14.6797Z" fill="#F7BD63"/>
<path opacity="0.15" d="M4.48698 16.6572V16.4074V16.3383V16.0885C4.48698 15.3104 5.08267 14.6797 5.81752 14.6797H5.18922C4.45434 14.6797 3.85864 15.3104 3.85864 16.0885V16.3383V16.4074V16.6572C3.85864 17.4353 4.45434 18.066 5.18922 18.066H5.81752C5.08267 18.066 4.48698 17.4352 4.48698 16.6572Z" fill="#202020"/>
</g>
<defs>
<clipPath id="clip0_1659_12478">
<rect width="17" height="18" fill="white" transform="translate(0 0.152344)"/>
</clipPath>
</defs>
</svg>
