<svg width="18" height="18" viewBox="0 0 18 18" fill="none" xmlns="http://www.w3.org/2000/svg">
<g clip-path="url(#clip0_1659_12513)">
<path d="M13.525 9.40475L0.890859 10.4393L0 10.5123V3.97405C0 3.97405 0.338133 3.84363 0.890859 3.78512C1.89148 3.67993 3.59466 3.81228 5.26419 5.3891C7.8558 7.83673 9.27309 6.42168 11.5407 7.14833C12.8609 7.57131 13.3164 8.26658 13.4666 8.77372C13.5744 9.13779 13.525 9.40475 13.525 9.40475Z" fill="#8DE0A8"/>
<path d="M1.29532 5.86534C1.1631 5.86534 1.04325 5.7808 1.00504 5.6616C0.968934 5.54894 1.01059 5.42486 1.10879 5.35245C1.32359 5.194 1.64056 5.37486 1.59458 5.62744C1.56986 5.76324 1.44105 5.86534 1.29532 5.86534Z" fill="#81CC96"/>
<path d="M1.29531 7.20514C1.16309 7.20514 1.04324 7.12061 1.00502 7.00141C0.968989 6.88888 1.01047 6.76441 1.10877 6.69212C1.32371 6.53401 1.64054 6.7147 1.59456 6.96724C1.56984 7.10304 1.44103 7.20514 1.29531 7.20514Z" fill="#81CC96"/>
<path d="M1.29531 8.54108C1.16309 8.54108 1.04324 8.45655 1.00502 8.33735C0.968989 8.22482 1.01047 8.10034 1.10877 8.02806C1.32371 7.86995 1.64054 8.05064 1.59456 8.30318C1.56984 8.43902 1.44103 8.54108 1.29531 8.54108Z" fill="#81CC96"/>
<path d="M3.24711 5.86596C2.97915 5.86596 2.8433 5.54502 3.03782 5.3713C3.13619 5.28347 3.28698 5.26774 3.40327 5.33305C3.50565 5.39052 3.56253 5.50291 3.54844 5.61418C3.53044 5.75599 3.39825 5.86596 3.24711 5.86596Z" fill="#81CC96"/>
<path d="M3.2472 7.20571C2.97305 7.20571 2.83946 6.87079 3.04895 6.70172C3.15119 6.61918 3.30384 6.60925 3.41605 6.68027C3.5217 6.74708 3.57289 6.87295 3.54146 6.98933C3.50757 7.11487 3.38487 7.20571 3.2472 7.20571Z" fill="#81CC96"/>
<path d="M3.24744 8.54159C2.9768 8.54159 2.84113 8.21391 3.04349 8.04215C3.14007 7.9602 3.28396 7.94539 3.3971 8.00519C3.50777 8.0637 3.5681 8.18582 3.54669 8.30366C3.52197 8.43942 3.39323 8.54159 3.24744 8.54159Z" fill="#81CC96"/>
<path d="M5.19868 7.20566C4.92826 7.20566 4.79199 6.87768 4.99491 6.70622C5.0917 6.62444 5.23496 6.60933 5.34834 6.66926C5.45901 6.72777 5.51934 6.84989 5.49793 6.96773C5.47321 7.10349 5.34447 7.20566 5.19868 7.20566Z" fill="#81CC96"/>
<path d="M5.1991 8.5405C4.92847 8.5405 4.79523 8.21577 4.99316 8.04312C5.19471 7.86734 5.52739 8.02588 5.50134 8.28171C5.48661 8.42658 5.35305 8.5405 5.1991 8.5405Z" fill="#81CC96"/>
<path d="M7.15082 8.54124C7.02408 8.54124 6.90764 8.46345 6.86521 8.35089C6.82087 8.23329 6.8638 8.09841 6.97008 8.02397C7.18829 7.87124 7.50182 8.05767 7.44884 8.31022C7.42103 8.44293 7.29373 8.54124 7.15082 8.54124Z" fill="#81CC96"/>
<path d="M11.0543 8.54156C10.7917 8.54156 10.6504 8.22803 10.8397 8.05165C10.936 7.96194 11.0861 7.94281 11.204 8.0052C11.3215 8.06736 11.3818 8.20107 11.349 8.32428C11.3154 8.45049 11.192 8.54156 11.0543 8.54156Z" fill="#81CC96"/>
<path d="M9.10255 8.54173C8.82629 8.54173 8.6948 8.20422 8.90641 8.03578C9.00453 7.95768 9.14773 7.94686 9.25805 8.00842C9.36651 8.06891 9.42423 8.19123 9.40085 8.30791C9.37406 8.44182 9.24697 8.54173 9.10255 8.54173Z" fill="#81CC96"/>
<path d="M2.54353 12.0625V13.5479H1.29918L1.51823 13.2183C1.65875 13.0072 1.62068 12.7249 1.41618 12.567C1.26191 12.4473 1.16309 12.266 1.16309 12.0625" fill="#EAC36E"/>
<path d="M16.8378 12.0625C16.8378 12.266 16.739 12.4472 16.5847 12.567C16.3802 12.7249 16.3421 13.0072 16.4826 13.2183L16.7017 13.5479H15.4573V12.0625" fill="#EAC36E"/>
<path d="M13.4667 8.71645C13.4667 8.71645 5.28704 8.72393 2.12119 8.73794C1.4425 8.74096 0.890965 8.22216 0.890965 7.58121V3.78516C0.338238 3.84366 0.000105469 3.97408 0.000105469 3.97408V9.81956C0.000105469 9.82106 0 9.82252 0 9.82401V10.455H0.000105469V10.5123L0.890965 10.4393V10.3819L13.525 9.34745C13.525 9.34748 13.5744 9.08053 13.4667 8.71645Z" fill="#81CC96"/>
<path d="M1.17306 9.34766H16.8273C17.475 9.34766 18.0001 9.84358 18.0001 10.4553V11.1465C18.0001 11.7583 17.475 12.2542 16.8273 12.2542H1.17306C0.525303 12.2542 0.000244142 11.7583 0.000244142 11.1465V10.4553C0.000208986 9.84358 0.525303 9.34766 1.17306 9.34766Z" fill="#8DE0A8"/>
<path d="M1.29603 11.1465V10.4553C1.29603 9.84354 1.82113 9.34766 2.46885 9.34766H1.17306C0.525303 9.34766 0.000244141 9.84358 0.000244141 10.4553V11.1465C0.000244141 11.7583 0.525338 12.2542 1.17306 12.2542H2.46885C1.82113 12.2542 1.29603 11.7583 1.29603 11.1465Z" fill="#81CC96"/>
</g>
<defs>
<clipPath id="clip0_1659_12513">
<rect width="18" height="17" fill="white" transform="translate(0 0.152344)"/>
</clipPath>
</defs>
</svg>
