<svg width="18" height="18" viewBox="0 0 18 18" fill="none" xmlns="http://www.w3.org/2000/svg">
<g clip-path="url(#clip0_1659_12542)">
<path d="M2.92285 10.0194L3.35694 9.80078L3.79102 10.0194V12.3152L3.35694 12.5339L2.92285 12.3152V10.0194Z" fill="#207700"/>
<path d="M1.18652 10.0194L1.62061 9.80078L2.05469 10.0194V12.3152L1.62061 12.5339L1.18652 12.3152V10.0194Z" fill="#207700"/>
<path d="M3.50131 10.5938H1.47559V11.1404H3.50131V10.5938Z" fill="#239B02"/>
<path d="M15.9453 10.0194L16.3794 9.80078L16.8135 10.0194V12.3152L16.3794 12.5339L15.9453 12.3152V10.0194Z" fill="#207700"/>
<path d="M14.209 10.0194L14.6431 9.80078L15.0772 10.0194V12.3152L14.6431 12.5339L14.209 12.3152V10.0194Z" fill="#207700"/>
<path d="M16.5238 10.5938H14.498V11.1404H16.5238V10.5938Z" fill="#239B02"/>
<path d="M0.925781 11.9609C2.17015 14.9674 5.29556 17.1539 8.9708 17.1539C12.646 17.1539 15.7714 14.9674 17.0158 11.9609H0.925781Z" fill="#239B02"/>
<path d="M13.6306 6.21875H4.37012V11.9583H13.6306V6.21875Z" fill="#DDDAC3"/>
<path d="M4.37012 6.21875H13.6306V11.9583" fill="#C9C5AD"/>
<path d="M8.42123 11.6855V7.66781C8.42123 7.47649 8.33442 7.3125 8.13185 7.3125H5.99037C5.78779 7.3125 5.52734 7.47649 5.52734 7.66781V11.6855H8.42123Z" fill="#FCA12A"/>
<path d="M8.42123 9.77231V7.66781C8.42123 7.47649 8.33442 7.3125 8.13185 7.3125H5.99037C5.78779 7.3125 5.52734 7.47649 5.52734 7.66781" fill="#E58613"/>
<path d="M7.75609 9.88249C7.96386 9.88249 8.13229 9.72341 8.13229 9.52718C8.13229 9.33095 7.96386 9.17188 7.75609 9.17188C7.54832 9.17188 7.37988 9.33095 7.37988 9.52718C7.37988 9.72341 7.54832 9.88249 7.75609 9.88249Z" fill="#DB5435"/>
<path d="M8.01602 9.28125C8.16071 9.41791 8.16071 9.63656 8.01602 9.77321C7.87132 9.90987 7.63981 9.90987 7.49512 9.77321" fill="#C43D27"/>
<path d="M11.0254 8.40575H12.1829V7.66781C12.1829 7.47649 11.9804 7.3125 11.8067 7.3125H11.0254V8.40575Z" fill="#008AAA"/>
<path d="M10.4466 8.40575V7.3125H9.63633C9.43376 7.3125 9.28906 7.47649 9.28906 7.66781V8.40575H10.4466Z" fill="#00A1AD"/>
<path d="M10.4466 8.95312H9.28906V9.7184C9.28906 9.90972 9.43376 10.0464 9.63633 10.0464H10.4466V8.95312Z" fill="#008AAA"/>
<path d="M11.0254 8.95312V10.0464H11.8067C12.0093 10.0464 12.1829 9.90972 12.1829 9.7184V8.95312H11.0254Z" fill="#00A1AD"/>
<path d="M15.1346 6.22056L8.97062 1.65625L2.80664 6.22056H15.1346Z" fill="#C43D27"/>
<path d="M15.1347 6.22056L8.97074 1.65625L5.81641 6.22056H15.1347Z" fill="#AA1E0F"/>
<path d="M15.7431 14.0381L13.5727 11.9609H4.42799H4.37012L9.81064 17.1265C12.2126 16.8806 14.3251 15.7326 15.7431 14.0381Z" fill="#207700"/>
<path d="M4.65918 4.85144H13.283L12.9068 4.57812H5.03539L4.65918 4.85144Z" fill="#C43D27"/>
<path d="M6.51172 3.48425H11.4313L11.0551 3.21094H6.88792L6.51172 3.48425Z" fill="#C43D27"/>
<path d="M17.0738 3.46094C16.3214 3.76158 15.6269 3.32428 15.0481 3.98023C14.7008 4.33554 14.8166 4.85483 14.9902 5.42878C15.5979 5.59277 16.1188 5.7021 16.524 5.37412C17.1896 4.8275 16.7555 4.17155 17.0738 3.46094Z" fill="#82C60A"/>
<path d="M14.9902 5.42878C15.598 5.59277 16.1478 5.7021 16.524 5.37412C17.1896 4.80017 16.7555 4.17155 17.0738 3.46094" fill="#5EA304"/>
<path d="M16.09 4.38646L15.9453 3.8125V4.57777H16.6688L16.09 4.38646Z" fill="#74B208"/>
<path d="M15.482 4.98804L15.3662 4.46875V5.1247H15.9739L15.482 4.98804Z" fill="#74B208"/>
<path d="M15.8 4.68722L15.6553 4.08594V4.85121H16.4077L15.8 4.68722Z" fill="#74B208"/>
<path d="M13.6298 0.152344V0.207006V0.152344C13.051 1.30025 11.8356 1.54623 11.9224 2.91279C11.9803 3.7054 12.7327 4.17003 13.6008 4.63466L13.6298 4.58L13.6008 4.60733C14.469 4.1427 15.2504 3.67807 15.3082 2.88546C15.395 1.54623 14.2086 1.30025 13.6298 0.152344Z" fill="#82C60A"/>
<path d="M13.6012 4.60733L13.5723 4.58H13.6301L13.6012 4.60733C14.4694 4.1427 15.2507 3.67807 15.3086 2.88546C15.3954 1.54623 14.2089 1.30025 13.6301 0.152344V0.207006" fill="#5EA304"/>
<path d="M13.5727 2.12089L12.8203 1.68359L13.5727 2.3942L14.3541 1.68359L13.5727 2.12089Z" fill="#74B208"/>
<path d="M13.5727 3.59746L12.8203 3.16016L13.5727 3.87077L14.3541 3.16016L13.5727 3.59746Z" fill="#74B208"/>
<path d="M13.5726 2.85914L12.7334 2.33984L13.5726 3.15978L14.4408 2.33984L13.5726 2.85914Z" fill="#74B208"/>
</g>
<defs>
<clipPath id="clip0_1659_12542">
<rect width="18" height="17" fill="white" transform="translate(0 0.152344)"/>
</clipPath>
</defs>
</svg>
