<svg width="17" height="18" viewBox="0 0 17 18" fill="none" xmlns="http://www.w3.org/2000/svg">
<path d="M12.0704 9.93169V7.05169L12.5351 6.88369L14.1841 9.15169L12.0704 9.93169ZM10.0021 3.48169C10.0021 1.93369 8.81772 0.679688 7.35572 0.679688C5.89372 0.679688 4.70938 1.93369 4.70938 3.48169C4.70938 5.02969 5.89372 6.28369 7.35572 6.28369C8.81772 6.28969 10.0021 5.02969 10.0021 3.48169ZM11.5434 8.28169C11.4074 7.68769 10.8407 7.32169 10.2741 7.47169L8.28505 7.98769C8.28505 7.98769 5.62172 6.28369 5.57638 6.25969C4.61872 5.79769 3.46838 6.19369 2.95272 7.18369L1.00905 10.9277C0.61805 11.6837 0.697384 12.5777 1.14505 13.2317C1.15638 13.2497 2.86772 15.3257 2.86772 15.3257H1.55872C0.912717 15.3257 0.402717 15.9077 0.459384 16.6037C0.510384 17.2157 1.00905 17.6717 1.58705 17.6717H5.35538C5.67838 17.6717 6.17705 17.5157 6.41505 16.9517C6.64172 16.4237 6.44905 15.9077 6.16005 15.5717L4.37505 13.4057L6.45472 9.40369L7.57672 10.1237C7.78638 10.2557 8.12072 10.3157 8.37005 10.2497C8.97639 10.0997 10.7784 9.62569 10.7784 9.62569C11.3394 9.48169 11.6794 8.88169 11.5434 8.28169ZM15.2154 13.4717L14.7847 12.0917H12.1271L11.6964 13.4717H15.2154ZM15.4421 14.1917H11.4697L11.0391 15.5717H15.8784L15.4421 14.1917ZM16.0994 16.2917H10.8067L10.3761 17.6717H16.5357L16.0994 16.2917Z" fill="#0D62B0"/>
</svg>
