<svg width="14" height="19" viewBox="0 0 14 19" fill="none" xmlns="http://www.w3.org/2000/svg">
<path d="M10.7886 3.12109H10.45C10.2191 4.18315 9.28423 4.93928 8.15356 4.93928H5.94877C4.81817 4.93928 3.88326 4.18315 3.65229 3.12109H3.27344V15.3635H10.7886V3.12109ZM7.03101 13.4847H4.00071V12.5756H7.03101V13.4847ZM7.03101 10.5756H4.00071V9.66655H7.03101V10.5756ZM7.03101 7.66655H4.00071V6.75746H7.03101V7.66655ZM8.72235 13.9056L7.68326 13.059L8.2575 12.3542L8.63259 12.6598L9.49435 11.7225L10.1636 12.3378L8.72235 13.9056ZM8.72235 10.9965L7.68326 10.1499L8.2575 9.44509L8.63259 9.75073L9.49435 8.8134L10.1636 9.42867L8.72235 10.9965ZM8.72235 8.0874L7.68326 7.24079L8.2575 6.536L8.63259 6.84164L9.49435 5.90431L10.1636 6.51958L8.72235 8.0874Z" fill="white"/>
<path d="M12.3843 3.12109H11.758V16.3332H2.3035V3.12109H1.65702C1.59017 3.12109 1.51562 3.17546 1.51562 3.24231V17.0605C1.51562 17.1273 1.59017 17.1817 1.65702 17.1817H12.3843C12.4511 17.1817 12.4853 17.1273 12.4853 17.0605V3.24231C12.4853 3.17546 12.4511 3.12109 12.3843 3.12109Z" fill="#FF8200"/>
<path d="M12.3843 2.15234H11.7782H9.34547C9.19044 1.02428 8.22087 0.152344 7.05093 0.152344C5.88099 0.152344 4.91135 1.02428 4.75638 2.15234H2.32366H1.65699C1.05547 2.15234 0.545898 2.64174 0.545898 3.24325V17.0614C0.545898 17.663 1.05547 18.1523 1.65699 18.1523H12.3843C12.9858 18.1523 13.455 17.663 13.455 17.0614V3.24325C13.455 2.64174 12.9858 2.15234 12.3843 2.15234ZM9.4302 3.12204C9.22311 3.6675 8.73178 3.97053 8.15335 3.97053H5.94857C5.37014 3.97053 4.87881 3.6675 4.67172 3.12204H9.4302ZM3.27317 3.12204H3.65208C3.88305 4.1841 4.8179 4.94022 5.94857 4.94022H8.15335C9.28396 4.94022 10.2189 4.1841 10.4498 3.12204H10.7883V15.3645H3.27317V3.12204ZM7.05093 1.12204C7.68463 1.12204 8.21711 1.56198 8.36008 2.15234H5.74184C5.88475 1.56198 6.41723 1.12204 7.05093 1.12204ZM12.4853 17.0614C12.4853 17.1283 12.4511 17.1826 12.3843 17.1826H1.65699C1.59014 17.1826 1.5156 17.1283 1.5156 17.0614V3.24325C1.5156 3.1764 1.59014 3.12204 1.65699 3.12204H2.30347V16.3342H11.758V3.12204H12.3843C12.4511 3.12204 12.4853 3.1764 12.4853 3.24325V17.0614Z" fill="black"/>
<path d="M5.94878 3.96958H8.15356C8.73199 3.96958 9.22332 3.66655 9.43041 3.12109H4.67188C4.87903 3.66655 5.37042 3.96958 5.94878 3.96958Z" fill="#FFBE00"/>
<path d="M7.03031 6.75781H4V7.66691H7.03031V6.75781Z" fill="black"/>
<path d="M8.63195 6.84358L8.2568 6.53795L7.68262 7.24273L8.72165 8.08928L10.163 6.52152L9.49365 5.90625L8.63195 6.84358Z" fill="black"/>
<path d="M7.03031 9.66797H4V10.5771H7.03031V9.66797Z" fill="black"/>
<path d="M8.63195 9.74983L8.2568 9.4442L7.68262 10.149L8.72165 10.9955L10.163 9.42777L9.49365 8.8125L8.63195 9.74983Z" fill="black"/>
<path d="M7.03031 12.5781H4V13.4872H7.03031V12.5781Z" fill="black"/>
<path d="M8.63195 12.66L8.2568 12.3544L7.68262 13.0591L8.72165 13.9057L10.163 12.3379L9.49365 11.7227L8.63195 12.66Z" fill="black"/>
</svg>
