<svg width="15" height="18" viewBox="0 0 15 18" fill="none" xmlns="http://www.w3.org/2000/svg">
<path d="M9.91275 4.21094H13.056C13.9895 4.21094 14.7463 4.96773 14.7463 5.90128V14.1598C14.7463 15.0934 13.9895 15.8501 13.056 15.8501H9.91275C8.9792 15.8501 8.22241 15.0934 8.22241 14.1598V5.90128C8.22241 4.96773 8.9792 4.21094 9.91275 4.21094Z" fill="#1C7287"/>
<path d="M9.37972 4.21094H11.4678V15.8501H9.37972C8.74057 15.8501 8.22241 15.332 8.22241 14.6928V5.36824C8.22241 4.7291 8.74053 4.21094 9.37972 4.21094Z" fill="#165C6C"/>
<path d="M14.196 13.1909H11.4681H8.77319V6.01562H11.4681H14.196V13.1909Z" fill="#32A5B9"/>
<path d="M11.4681 6.01562H8.77319V13.1909H11.4681V6.01562Z" fill="#2B8A9A"/>
<path d="M1.944 0.152344H8.09197C9.02552 0.152344 9.78231 0.909133 9.78231 1.84268V15.462C9.78231 16.3956 9.02552 17.1523 8.09197 17.1523H1.944C1.01045 17.1523 0.253662 16.3956 0.253662 15.462V1.84268C0.253662 0.909133 1.01045 0.152344 1.944 0.152344Z" fill="#E45527"/>
<path d="M1.944 0.152344H4.99386V17.1523H1.944C1.01045 17.1523 0.253662 16.3956 0.253662 15.462V1.84268C0.253662 0.909133 1.01045 0.152344 1.944 0.152344Z" fill="#B7461D"/>
<path d="M5.74194 14.7852H4.24478C4.04474 14.7852 3.88257 14.9473 3.88257 15.1474C3.88257 15.3474 4.04474 15.5096 4.24478 15.5096H5.74194C5.94198 15.5096 6.10416 15.3474 6.10416 15.1474C6.10416 14.9473 5.94198 14.7852 5.74194 14.7852Z" fill="#E6E6E6"/>
<path d="M8.97783 13.2653H4.99345H1.05737V2.78516H4.99345H8.97783V13.2653Z" fill="#32A5B9"/>
<path d="M4.99345 2.78516H1.05737V13.2653H4.99345V2.78516Z" fill="#2B8A9A"/>
</svg>
