<svg width="14" height="19" viewBox="0 0 14 19" fill="none" xmlns="http://www.w3.org/2000/svg">
<path d="M2.82365 0.793047H3.46526C3.64651 0.793047 3.78793 0.934433 3.78793 1.1156V1.76098C3.78793 2.28973 4.22222 2.72527 4.75097 2.72519H5.39632C5.92507 2.72519 6.35936 2.28973 6.35936 1.76098V1.11556C6.35936 0.934314 6.50074 0.793008 6.68203 0.793008H7.32742C7.50866 0.793008 7.64507 0.934394 7.64507 1.11556V1.76098C7.64507 2.28973 8.08434 2.72519 8.61309 2.72519H9.24968C9.77838 2.72519 10.2127 2.28973 10.2127 1.76098V1.11556C10.2127 0.934314 10.3541 0.793008 10.5354 0.793008H11.1808C11.362 0.793008 11.5034 0.934394 11.5034 1.11556V4.33361C11.5034 4.5149 11.362 4.65126 11.1808 4.65126H2.82365C2.6424 4.65126 2.50098 4.51494 2.50098 4.33361V1.11552C2.50098 0.934275 2.6424 0.792969 2.82365 0.792969V0.793047Z" fill="white"/>
<path d="M3.46033 5.29688H10.5405L10.8519 13.6539H3.14771L3.46033 5.29688Z" fill="#29A3EC"/>
<path d="M1.86076 14.2969H12.144C12.3252 14.2969 12.4666 14.4383 12.4666 14.6195V17.1922C12.4666 17.3734 12.3252 17.5149 12.144 17.5149H1.86076C1.67951 17.5149 1.53809 17.3735 1.53809 17.1922V14.6195C1.53813 14.4383 1.67951 14.2969 1.86076 14.2969Z" fill="#EE746C"/>
<path d="M3.71587 5.59766H10.2855L10.5744 13.3521H3.42578L3.71587 5.59766Z" fill="#3CDEF6"/>
<path d="M2.39003 14.5352H11.6146C11.7772 14.5352 11.9041 14.6551 11.9041 14.8091V16.9932C11.9041 17.1473 11.7773 17.2672 11.6146 17.2672H2.39003C2.22747 17.2672 2.10059 17.1472 2.10059 16.9932V14.8091C2.10059 14.655 2.22767 14.5352 2.39003 14.5352Z" fill="#FB9761"/>
<path d="M3.33135 1.02734H3.89498C4.05412 1.02734 4.17847 1.15149 4.17847 1.31072V1.87768C4.17847 2.34227 4.55997 2.72481 5.02447 2.72481H5.59143C6.05594 2.72481 6.43747 2.34227 6.43747 1.87768V1.31072C6.43747 1.15161 6.56162 1.02734 6.72093 1.02734H7.28789C7.44704 1.02734 7.56693 1.15149 7.56693 1.31072V1.87768C7.56693 2.34227 7.95284 2.72481 8.41739 2.72481H8.97663C9.44113 2.72481 9.82263 2.34227 9.82263 1.87768V1.31072C9.82263 1.15161 9.94678 1.02734 10.1061 1.02734H10.673C10.8322 1.02734 10.9565 1.15149 10.9565 1.31072V4.13788C10.9565 4.29703 10.8324 4.41684 10.673 4.41684H3.33135C3.1722 4.41684 3.04785 4.29711 3.04785 4.13788V1.31072C3.04785 1.15161 3.172 1.02734 3.33135 1.02734Z" fill="#EBFEFF"/>
<path d="M2.82368 0.152464C2.29497 0.152464 1.86068 0.586716 1.86064 1.11546V2.20779H2.501V1.11542C2.501 0.934176 2.64239 0.792791 2.82368 0.792791H3.46529C3.64653 0.792791 3.78796 0.934216 3.78796 1.11542V1.76081C3.78796 2.28956 4.22225 2.72517 4.751 2.72509H5.39634C5.92509 2.72509 6.35938 2.28956 6.35938 1.76081V1.11542C6.35938 0.934176 6.50077 0.792791 6.68205 0.792791H7.32744C7.50869 0.792791 7.64509 0.934216 7.64509 1.11542V1.76081C7.64509 2.28956 8.0844 2.72509 8.61315 2.72509H9.24974C9.77845 2.72509 10.2128 2.28956 10.2128 1.76081V1.11542C10.2128 0.934176 10.3542 0.792791 10.5354 0.792791H11.1808C11.362 0.792791 11.5035 0.934216 11.5035 1.11542V4.33348C11.5035 4.51468 11.362 4.65113 11.1808 4.65113H2.82368C2.64243 4.65113 2.501 4.51472 2.501 4.33348V3.91538H1.86064V4.33348C1.86064 4.86001 2.29159 5.29166 2.81741 5.29527L2.50602 13.6536H1.86064C1.33189 13.6536 0.892618 14.088 0.892578 14.6167V17.1893C0.892578 17.7181 1.33189 18.1524 1.86064 18.1524H12.1438C12.6726 18.1524 13.1081 17.718 13.1081 17.1893V14.6167C13.1081 14.0879 12.6726 13.6536 12.1438 13.6536H11.4984L11.1871 5.29527C11.7129 5.29527 12.1438 4.86005 12.1438 4.33348V1.11538C12.1438 0.586633 11.7095 0.152385 11.1808 0.152385H10.5354C10.0067 0.152385 9.57237 0.586633 9.57237 1.11538V1.76073C9.57237 1.94201 9.43098 2.0834 9.2497 2.0834H8.61311C8.43187 2.0834 8.29048 1.94197 8.29044 1.76073V1.11534C8.29044 0.586593 7.85615 0.152344 7.3274 0.152344H6.68201C6.15326 0.152223 5.71898 0.586593 5.71898 1.11534V1.76073C5.71898 1.94201 5.57759 2.0834 5.3963 2.0834H4.75096C4.56971 2.0834 4.42828 1.94197 4.42828 1.76073V1.11534C4.42828 0.586593 3.99399 0.152344 3.46525 0.152344H2.82364L2.82368 0.152464ZM1.86064 2.6899V3.4332H2.501V2.6899H1.86064ZM3.46026 5.29647H10.5405L10.8519 13.6536H3.14763L3.46026 5.29647ZM1.86064 14.294H12.1438C12.3251 14.294 12.4665 14.4353 12.4665 14.6166V17.1893C12.4665 17.3706 12.3251 17.512 12.1438 17.512H1.86064C1.67939 17.512 1.53796 17.3705 1.53796 17.1893V14.6166C1.53796 14.4353 1.67939 14.294 1.86064 14.294Z" fill="#5A3392"/>
</svg>
