<svg width="15" height="14" viewBox="0 0 15 14" fill="none" xmlns="http://www.w3.org/2000/svg">
<path d="M7.77549 10.9188L10.9255 12.9188C11.3317 13.175 11.8317 12.7938 11.713 12.325L10.8005 8.73752C10.7758 8.63808 10.7797 8.53369 10.8118 8.43638C10.8439 8.33907 10.9028 8.2528 10.9817 8.18752L13.8067 5.83127C14.1755 5.52502 13.988 4.90627 13.5067 4.87502L9.81924 4.63752C9.71862 4.63166 9.62189 4.59663 9.54087 4.53669C9.45984 4.47675 9.39803 4.39451 9.36299 4.30002L7.98799 0.837515C7.95159 0.737455 7.88528 0.651018 7.79807 0.589938C7.71086 0.528858 7.60696 0.496094 7.50049 0.496094C7.39401 0.496094 7.29011 0.528858 7.2029 0.589938C7.11569 0.651018 7.04938 0.737455 7.01299 0.837515L5.63799 4.30002C5.60294 4.39451 5.54113 4.47675 5.4601 4.53669C5.37908 4.59663 5.28235 4.63166 5.18174 4.63752L1.49424 4.87502C1.01299 4.90627 0.825486 5.52502 1.19424 5.83127L4.01924 8.18752C4.0982 8.2528 4.1571 8.33907 4.18917 8.43638C4.22124 8.53369 4.22516 8.63808 4.20049 8.73752L3.35674 12.0625C3.21299 12.625 3.81299 13.0813 4.29424 12.775L7.22549 10.9188C7.30768 10.8665 7.40308 10.8387 7.50049 10.8387C7.59789 10.8387 7.69329 10.8665 7.77549 10.9188V10.9188Z" stroke="black" stroke-opacity="0.6" stroke-width="0.8" stroke-linecap="round" stroke-linejoin="round"/>
</svg>