<svg width="15" height="14" viewBox="0 0 15 14" fill="none" xmlns="http://www.w3.org/2000/svg">
<path d="M14.4498 5.0875C14.3872 4.89061 14.2666 4.71723 14.1038 4.59009C13.9409 4.46294 13.7435 4.38797 13.5373 4.375L9.82478 4.11875L8.44978 0.65C8.3747 0.459002 8.24401 0.29494 8.07464 0.179052C7.90526 0.0631651 7.705 0.000789302 7.49978 0C7.29455 0.000789302 7.09429 0.0631651 6.92492 0.179052C6.75555 0.29494 6.62486 0.459002 6.54978 0.65L5.14978 4.1375L1.46228 4.375C1.25634 4.38881 1.05929 4.4641 0.896612 4.59112C0.733932 4.71814 0.613111 4.89106 0.549778 5.0875C0.484741 5.28695 0.480941 5.50131 0.538869 5.70294C0.596796 5.90458 0.713794 6.08423 0.874778 6.21875L3.71228 8.61875L2.86853 11.9375C2.81015 12.162 2.82066 12.3989 2.89868 12.6174C2.9767 12.8358 3.11863 13.0258 3.30603 13.1625C3.48792 13.293 3.70463 13.3664 3.92843 13.373C4.15222 13.3797 4.37292 13.3195 4.56228 13.2L7.49353 11.3438H7.50603L10.6623 13.3375C10.8242 13.4427 11.0129 13.4991 11.206 13.5C11.3637 13.4988 11.519 13.4614 11.6599 13.3908C11.8009 13.3201 11.9237 13.2181 12.0191 13.0926C12.1145 12.967 12.1798 12.8213 12.21 12.6666C12.2403 12.5118 12.2346 12.3522 12.1935 12.2L11.2998 8.56875L14.1248 6.21875C14.2858 6.08423 14.4028 5.90458 14.4607 5.70294C14.5186 5.50131 14.5148 5.28695 14.4498 5.0875Z" fill="#FF8A15"/>
</svg>