<svg width="46" height="40" viewBox="0 0 46 40" fill="none" xmlns="http://www.w3.org/2000/svg">
<path d="M33.9884 24.4192C33.7861 24.0779 33.7153 23.6745 33.7894 23.2847C33.8634 22.8949 34.0772 22.5456 34.3906 22.3022C34.704 22.0589 35.0954 21.9383 35.4914 21.9632C35.8873 21.988 36.2606 22.1565 36.5412 22.437C36.8217 22.7176 36.9902 23.0909 37.015 23.4868C37.0398 23.8828 36.9193 24.2742 36.676 24.5876C36.4326 24.901 36.0833 25.1148 35.6935 25.1888C35.3037 25.2629 34.9003 25.1921 34.559 24.9898V24.9898L33.9952 25.1495C33.9721 25.1562 33.9476 25.1566 33.9242 25.1507C33.9009 25.1447 33.8796 25.1326 33.8626 25.1156C33.8456 25.0985 33.8335 25.0773 33.8275 25.0539C33.8215 25.0306 33.822 25.0061 33.8287 24.983L33.9884 24.4192Z" stroke="white" stroke-width="0.326087" stroke-linecap="round" stroke-linejoin="round"/>
<path d="M18.88 36.1555C18.6777 35.8142 18.6069 35.4108 18.681 35.021C18.755 34.6312 18.9688 34.2819 19.2822 34.0386C19.5956 33.7952 19.987 33.6747 20.383 33.6995C20.7789 33.7243 21.1522 33.8928 21.4328 34.1733C21.7133 34.4539 21.8818 34.8272 21.9066 35.2232C21.9314 35.6191 21.8109 36.0105 21.5676 36.3239C21.3242 36.6373 20.9749 36.8511 20.5851 36.9251C20.1953 36.9992 19.7919 36.9284 19.4506 36.7261V36.7261L18.8868 36.8858C18.8637 36.8925 18.8392 36.893 18.8159 36.887C18.7925 36.881 18.7712 36.8689 18.7542 36.8519C18.7372 36.8349 18.7251 36.8136 18.7191 36.7903C18.7132 36.7669 18.7136 36.7424 18.7203 36.7193L18.88 36.1555Z" stroke="white" stroke-width="0.326087" stroke-linecap="round" stroke-linejoin="round"/>
<path d="M7.64648 22.6357H4.65735C4.58232 22.6357 4.52148 22.6966 4.52148 22.7716V24.9455C4.52148 25.0206 4.58232 25.0814 4.65735 25.0814H7.64648C7.72152 25.0814 7.78235 25.0206 7.78235 24.9455V22.7716C7.78235 22.6966 7.72152 22.6357 7.64648 22.6357Z" stroke="white" stroke-width="0.326087" stroke-linecap="round" stroke-linejoin="round"/>
<path d="M6.83135 25.0819V22.3645C6.83135 22.2924 6.80272 22.2233 6.75176 22.1724C6.7008 22.1214 6.63168 22.0928 6.55961 22.0928H5.7444C5.67233 22.0928 5.60321 22.1214 5.55225 22.1724C5.50129 22.2233 5.47266 22.2924 5.47266 22.3645V25.0819" stroke="white" stroke-width="0.326087" stroke-linecap="round" stroke-linejoin="round"/>
<path d="M36.8857 16.4404H33.8966C33.8216 16.4404 33.7607 16.5013 33.7607 16.5763V18.7502C33.7607 18.8253 33.8216 18.8861 33.8966 18.8861H36.8857C36.9608 18.8861 37.0216 18.8253 37.0216 18.7502V16.5763C37.0216 16.5013 36.9608 16.4404 36.8857 16.4404Z" stroke="white" stroke-width="0.326087" stroke-linecap="round" stroke-linejoin="round"/>
<path d="M36.0706 18.8866V16.1692C36.0706 16.0971 36.042 16.028 35.991 15.9771C35.9401 15.9261 35.8709 15.8975 35.7989 15.8975H34.9837C34.9116 15.8975 34.8425 15.9261 34.7915 15.9771C34.7405 16.028 34.7119 16.0971 34.7119 16.1692V18.8866" stroke="white" stroke-width="0.326087" stroke-linecap="round" stroke-linejoin="round"/>
<path d="M28.829 5.24414H26.0844C26.051 5.2443 26.0188 5.25662 25.9938 5.27882C25.9688 5.30101 25.9527 5.33155 25.9486 5.36472L25.7074 7.53864C25.7053 7.55758 25.7071 7.57676 25.7129 7.59493C25.7186 7.61311 25.7281 7.62987 25.7408 7.64412C25.7535 7.65838 25.769 7.66981 25.7863 7.67768C25.8037 7.68555 25.8225 7.68968 25.8416 7.68979H29.0719C29.0909 7.68968 29.1098 7.68555 29.1271 7.67768C29.1445 7.66981 29.16 7.65838 29.1727 7.64412C29.1853 7.62987 29.1948 7.61311 29.2006 7.59493C29.2063 7.57676 29.2082 7.55758 29.206 7.53864L28.9649 5.36472C28.9608 5.33155 28.9447 5.30101 28.9197 5.27882C28.8947 5.25662 28.8624 5.2443 28.829 5.24414V5.24414Z" stroke="white" stroke-width="0.326087" stroke-linecap="round" stroke-linejoin="round"/>
<path d="M26.7773 5.78826V5.24478C26.7773 5.0646 26.8489 4.89181 26.9763 4.76441C27.1037 4.637 27.2765 4.56543 27.4567 4.56543C27.6369 4.56543 27.8097 4.637 27.9371 4.76441C28.0645 4.89181 28.136 5.0646 28.136 5.24478V5.78826" stroke="white" stroke-width="0.326087" stroke-linecap="round" stroke-linejoin="round"/>
<path d="M34.835 28.4113C34.7894 28.3599 34.7334 28.3188 34.6707 28.2906C34.6079 28.2625 34.5398 28.2479 34.471 28.2479H33.5695V28.041C33.5693 27.8398 33.4889 27.647 33.3459 27.5047C33.2029 27.3625 33.009 27.2825 32.8068 27.2822C32.7682 27.2822 32.7303 27.2929 32.6975 27.3131C32.6646 27.3333 32.6381 27.3622 32.6208 27.3966L31.9847 28.6618H31.2813C31.1893 28.6618 31.1011 28.6982 31.0361 28.7628C30.9711 28.8275 30.9346 28.9153 30.9346 29.0067V30.5243C30.9346 30.6158 30.9711 30.7035 31.0361 30.7682C31.1011 30.8328 31.1893 30.8692 31.2813 30.8692H34.2629C34.3812 30.8692 34.4955 30.8262 34.5841 30.7483C34.6728 30.6704 34.7299 30.5629 34.7445 30.4462L34.9525 28.7906C34.9611 28.7227 34.955 28.6538 34.9348 28.5884C34.9145 28.523 34.8805 28.4626 34.835 28.4113ZM31.3506 29.0757H31.9053V30.4553H31.3506V29.0757ZM34.5403 28.7394L34.3323 30.3949C34.3302 30.4117 34.3219 30.4271 34.3091 30.4382C34.2964 30.4494 34.2799 30.4554 34.2629 30.4553H32.3214V28.9176L32.925 27.7168C32.9919 27.741 33.0498 27.785 33.0907 27.843C33.1315 27.901 33.1535 27.9702 33.1535 28.041V28.4549C33.1535 28.5098 33.1754 28.5624 33.2144 28.6012C33.2534 28.64 33.3063 28.6618 33.3615 28.6618H34.471C34.4808 28.6617 34.4906 28.6638 34.4997 28.6678C34.5087 28.6718 34.5168 28.6776 34.5233 28.685C34.5299 28.6923 34.5348 28.701 34.5377 28.7104C34.5407 28.7198 34.5415 28.7297 34.5403 28.7394Z" fill="white"/>
<path d="M19.1416 4.7627V5.92438C19.1416 5.96041 19.1559 5.99497 19.1814 6.02045C19.2069 6.04593 19.2414 6.06025 19.2775 6.06025H21.7231C21.7592 6.06025 21.7937 6.04593 21.8192 6.02045C21.8447 5.99497 21.859 5.96041 21.859 5.92438V4.7627" stroke="white" stroke-width="0.326087" stroke-linecap="round" stroke-linejoin="round"/>
<path d="M19.2433 3.07129H21.7569C21.7863 3.07153 21.815 3.08124 21.8385 3.09897C21.862 3.1167 21.8793 3.14153 21.8876 3.16979L22.1305 4.02238H18.8696L19.1125 3.16979C19.1209 3.14153 19.1381 3.1167 19.1616 3.09897C19.1852 3.08124 19.2138 3.07153 19.2433 3.07129V3.07129Z" stroke="white" stroke-width="0.326087" stroke-linecap="round" stroke-linejoin="round"/>
<path d="M19.9566 4.02246V4.2942C19.9566 4.43834 19.8993 4.57658 19.7974 4.6785C19.6955 4.78042 19.5572 4.83768 19.4131 4.83768C19.269 4.83768 19.1307 4.78042 19.0288 4.6785C18.9269 4.57658 18.8696 4.43834 18.8696 4.2942V4.02246" stroke="white" stroke-width="0.326087" stroke-linecap="round" stroke-linejoin="round"/>
<path d="M21.0435 4.02246V4.2942C21.0435 4.43834 20.9862 4.57658 20.8843 4.6785C20.7824 4.78042 20.6442 4.83768 20.5 4.83768C20.3559 4.83768 20.2176 4.78042 20.1157 4.6785C20.0138 4.57658 19.9565 4.43834 19.9565 4.2942V4.02246" stroke="white" stroke-width="0.326087" stroke-linecap="round" stroke-linejoin="round"/>
<path d="M22.1304 4.02246V4.2942C22.1304 4.43834 22.0732 4.57658 21.9712 4.6785C21.8693 4.78042 21.7311 4.83768 21.5869 4.83768C21.4428 4.83768 21.3046 4.78042 21.2026 4.6785C21.1007 4.57658 21.0435 4.43834 21.0435 4.2942V4.02246" stroke="white" stroke-width="0.326087" stroke-linecap="round" stroke-linejoin="round"/>
<path d="M27.2393 33.7227C27.5394 33.7227 27.7828 33.4794 27.7828 33.1792C27.7828 32.8791 27.5394 32.6357 27.2393 32.6357C26.9391 32.6357 26.6958 32.8791 26.6958 33.1792C26.6958 33.4794 26.9391 33.7227 27.2393 33.7227Z" stroke="white" stroke-width="0.326087" stroke-linecap="round" stroke-linejoin="round"/>
<path d="M28.5983 33.179C28.5983 34.4018 27.2396 35.3529 27.2396 35.3529C27.2396 35.3529 25.8809 34.4018 25.8809 33.179C25.8809 32.8187 26.024 32.4731 26.2788 32.2183C26.5336 31.9635 26.8792 31.8203 27.2396 31.8203C27.5999 31.8203 27.9455 31.9635 28.2003 32.2183C28.4551 32.4731 28.5983 32.8187 28.5983 33.179V33.179Z" stroke="white" stroke-width="0.326087" stroke-linecap="round" stroke-linejoin="round"/>
<path d="M4.52966 16.0501L5.5249 18.9254C5.56736 19.0494 5.74399 19.046 5.78306 18.9203L6.18387 17.6194C6.18992 17.5981 6.2014 17.5788 6.21718 17.5633C6.23296 17.5478 6.25251 17.5367 6.27388 17.531L7.57314 17.1302C7.69882 17.0912 7.70221 16.9145 7.57823 16.8721L4.70289 15.8768C4.67873 15.8683 4.65267 15.8668 4.6277 15.8725C4.60273 15.8782 4.57987 15.8908 4.56177 15.9089C4.54366 15.927 4.53104 15.9499 4.52536 15.9749C4.51968 15.9998 4.52117 16.0259 4.52966 16.0501V16.0501Z" stroke="white" stroke-width="0.326087" stroke-linecap="round" stroke-linejoin="round"/>
<path d="M14.1413 31.7666H11.424C11.3489 31.7666 11.2881 31.8274 11.2881 31.9025V34.6199C11.2881 34.6949 11.3489 34.7557 11.424 34.7557H14.1413C14.2164 34.7557 14.2772 34.6949 14.2772 34.6199V31.9025C14.2772 31.8274 14.2164 31.7666 14.1413 31.7666Z" stroke="white" stroke-width="0.326087" stroke-linecap="round" stroke-linejoin="round"/>
<path d="M14.2772 33.8039L13.5588 33.0855C13.5462 33.0726 13.5311 33.0624 13.5145 33.0555C13.4979 33.0485 13.48 33.0449 13.462 33.0449C13.444 33.0449 13.4261 33.0485 13.4095 33.0555C13.3929 33.0624 13.3778 33.0726 13.3652 33.0855L12.6077 33.8429C12.5951 33.8558 12.58 33.866 12.5634 33.8729C12.5468 33.8799 12.5289 33.8835 12.5109 33.8835C12.4929 33.8835 12.4751 33.8799 12.4584 33.8729C12.4418 33.866 12.4267 33.8558 12.4141 33.8429L12.0642 33.4931C12.0516 33.4802 12.0365 33.47 12.0199 33.4631C12.0033 33.4561 11.9855 33.4525 11.9674 33.4525C11.9494 33.4525 11.9316 33.4561 11.915 33.4631C11.8983 33.47 11.8833 33.4802 11.8706 33.4931L11.2881 34.0756" stroke="white" stroke-width="0.326087" stroke-linecap="round" stroke-linejoin="round"/>
<path d="M10.4874 10.2599C10.4418 10.2085 10.3858 10.1674 10.323 10.1393C10.2602 10.1111 10.1922 10.0966 10.1233 10.0966H9.22188V9.88964C9.22165 9.68847 9.14121 9.4956 8.99822 9.35335C8.85522 9.2111 8.66135 9.13109 8.45912 9.13086C8.42051 9.13086 8.38265 9.14156 8.3498 9.16175C8.31695 9.18195 8.2904 9.21084 8.27312 9.24519L7.63708 10.5105H6.93362C6.84167 10.5105 6.75348 10.5468 6.68846 10.6115C6.62344 10.6762 6.58691 10.7639 6.58691 10.8554V12.3729C6.58691 12.4644 6.62344 12.5521 6.68846 12.6168C6.75348 12.6815 6.84167 12.7178 6.93362 12.7178H9.91529C10.0336 12.7178 10.1478 12.6748 10.2365 12.5969C10.3252 12.519 10.3822 12.4116 10.3969 12.2948L10.6049 10.6393C10.6134 10.5714 10.6074 10.5024 10.5871 10.437C10.5669 10.3716 10.5329 10.3112 10.4874 10.2599ZM7.00296 10.9243H7.55769V12.3039H7.00296V10.9243ZM10.1927 10.5881L9.98463 12.2436C9.98251 12.2603 9.97427 12.2757 9.96149 12.2869C9.94871 12.298 9.93227 12.3041 9.91529 12.3039H7.97374V10.7662L8.57735 9.56543C8.64429 9.58959 8.70214 9.63367 8.74301 9.69167C8.78389 9.74968 8.80582 9.8188 8.80583 9.88964V10.3035C8.80583 10.3584 8.82775 10.411 8.86676 10.4498C8.90577 10.4887 8.95868 10.5105 9.01385 10.5105H10.1233C10.1332 10.5104 10.143 10.5124 10.152 10.5164C10.161 10.5204 10.1691 10.5263 10.1757 10.5336C10.1822 10.541 10.1872 10.5496 10.1901 10.559C10.193 10.5684 10.1939 10.5783 10.1927 10.5881Z" fill="white"/>
<path d="M32.565 13.0441C33.4655 13.0441 34.1954 12.3141 34.1954 11.4136C34.1954 10.5132 33.4655 9.7832 32.565 9.7832C31.6645 9.7832 30.9346 10.5132 30.9346 11.4136C30.9346 12.3141 31.6645 13.0441 32.565 13.0441Z" stroke="white" stroke-width="0.326087" stroke-linecap="round" stroke-linejoin="round"/>
<path d="M32.9727 11.0732H33.3803" stroke="white" stroke-width="0.326087" stroke-linecap="round" stroke-linejoin="round"/>
<path d="M33.2714 11.8203C33.1996 11.9441 33.0966 12.0468 32.9726 12.1182C32.8486 12.1896 32.708 12.2271 32.5649 12.2271C32.4218 12.2271 32.2813 12.1896 32.1573 12.1182C32.0333 12.0468 31.9302 11.9441 31.8584 11.8203" stroke="white" stroke-width="0.326087" stroke-linecap="round" stroke-linejoin="round"/>
<circle cx="20.5" cy="20" r="11.087" fill="white"/>
<path d="M14.948 21.6199V22.2822H12.3597V21.7218L13.5519 20.4684C13.6572 20.3478 13.7421 20.2399 13.8067 20.1448C13.8712 20.048 13.9179 19.9606 13.9468 19.8824C13.9773 19.8043 13.9926 19.7338 13.9926 19.671C13.9926 19.564 13.9765 19.4748 13.9442 19.4035C13.9137 19.3305 13.8678 19.2753 13.8067 19.2379C13.7472 19.2005 13.6733 19.1819 13.585 19.1819C13.4967 19.1819 13.4194 19.2073 13.3532 19.2583C13.287 19.3092 13.2352 19.3789 13.1978 19.4672C13.1621 19.5555 13.1443 19.6548 13.1443 19.7652H12.2832C12.2832 19.5377 12.3384 19.3296 12.4488 19.1411C12.5609 18.9526 12.7163 18.8023 12.915 18.6902C13.1137 18.5764 13.3439 18.5195 13.6054 18.5195C13.8788 18.5195 14.1081 18.5619 14.2932 18.6469C14.4784 18.7318 14.6176 18.8549 14.711 19.0163C14.8062 19.1759 14.8537 19.3687 14.8537 19.5946C14.8537 19.7236 14.8333 19.8476 14.7926 19.9665C14.7518 20.0854 14.6932 20.2034 14.6168 20.3206C14.5404 20.4361 14.4469 20.555 14.3366 20.6773C14.2279 20.7995 14.1039 20.9295 13.9646 21.067L13.4857 21.6199H14.948ZM18.4738 20.3002V21.8237C18.4109 21.8933 18.3141 21.968 18.1834 22.0479C18.0543 22.126 17.8912 22.1931 17.6942 22.2491C17.4972 22.3052 17.2654 22.3332 16.9987 22.3332C16.7525 22.3332 16.5291 22.2941 16.3287 22.216C16.1283 22.1362 15.9559 22.0198 15.8116 21.867C15.6689 21.7124 15.5585 21.5239 15.4804 21.3014C15.404 21.0772 15.3658 20.8208 15.3658 20.5321V20.3257C15.3658 20.037 15.4048 19.7805 15.483 19.5563C15.5611 19.3322 15.6706 19.1436 15.8116 18.9908C15.9543 18.8362 16.1215 18.719 16.3135 18.6392C16.5071 18.5594 16.7194 18.5195 16.9503 18.5195C17.2917 18.5195 17.5694 18.5738 17.7834 18.6825C17.9974 18.7895 18.1596 18.9381 18.27 19.1284C18.3804 19.3169 18.4475 19.5351 18.4712 19.7831H17.6127C17.5957 19.6608 17.5635 19.5572 17.5159 19.4723C17.47 19.3857 17.4038 19.3203 17.3172 19.2761C17.2306 19.2303 17.1185 19.2073 16.9809 19.2073C16.8739 19.2073 16.7763 19.2303 16.6879 19.2761C16.6013 19.322 16.5275 19.3916 16.4663 19.485C16.4052 19.5767 16.3576 19.6922 16.3236 19.8315C16.2914 19.9707 16.2752 20.1338 16.2752 20.3206V20.5321C16.2752 20.7172 16.2905 20.8794 16.3211 21.0186C16.3534 21.1579 16.4009 21.2742 16.4638 21.3677C16.5283 21.4594 16.6098 21.529 16.7083 21.5766C16.8085 21.6224 16.9266 21.6453 17.0624 21.6453C17.1575 21.6453 17.2391 21.6377 17.307 21.6224C17.3749 21.6054 17.431 21.585 17.4751 21.5613C17.521 21.5358 17.5558 21.512 17.5796 21.4899V20.9142H16.958V20.3002H18.4738ZM21.5487 21.5944V22.2822H19.5718V21.5944H21.5487ZM19.8902 18.573V22.2822H18.996V18.573H19.8902ZM21.2939 20.0455V20.7104H19.5718V20.0455H21.2939ZM21.5563 18.573V19.2634H19.5718V18.573H21.5563ZM23.1205 22.2822H22.2977L22.3028 21.5944H23.1205C23.2904 21.5944 23.4339 21.5536 23.5511 21.4721C23.6699 21.3906 23.76 21.2691 23.8211 21.1078C23.8839 20.9448 23.9154 20.7444 23.9154 20.5066V20.3461C23.9154 20.1678 23.8975 20.0115 23.8619 19.8773C23.8279 19.7415 23.7769 19.6285 23.709 19.5385C23.6411 19.4468 23.5562 19.378 23.4543 19.3322C23.354 19.2863 23.2386 19.2634 23.1078 19.2634H22.2824V18.573H23.1078C23.3591 18.573 23.5893 18.6163 23.7982 18.7029C24.0088 18.7878 24.1905 18.9101 24.3433 19.0698C24.4979 19.2277 24.6168 19.4154 24.7 19.6328C24.7849 19.8485 24.8274 20.0879 24.8274 20.3512V20.5066C24.8274 20.7681 24.7849 21.0076 24.7 21.225C24.6168 21.4424 24.4987 21.6301 24.3459 21.788C24.193 21.9459 24.0122 22.0682 23.8033 22.1548C23.5961 22.2398 23.3685 22.2822 23.1205 22.2822ZM22.8097 18.573V22.2822H21.9155V18.573H22.8097ZM26.8094 19.3525L25.905 22.2822H24.9446L26.3075 18.573H26.9164L26.8094 19.3525ZM27.5584 22.2822L26.6514 19.3525L26.5342 18.573H27.1508L28.5213 22.2822H27.5584ZM27.5227 20.8989V21.5893H25.6197V20.8989H27.5227Z" fill="black"/>
<circle cx="20.5" cy="20" r="19.5652" stroke="white" stroke-width="0.869565"/>
<path d="M8.6411 27.6084C8.3399 27.6084 8.07258 27.7291 7.89147 27.9365C7.71036 27.7291 7.44305 27.6084 7.14185 27.6084C6.87951 27.6087 6.62801 27.7146 6.44251 27.9029C6.25701 28.0912 6.15266 28.3465 6.15234 28.6127C6.15234 29.7135 7.7387 30.5931 7.80617 30.63C7.83238 30.6444 7.8617 30.6519 7.89147 30.6519C7.92125 30.6519 7.95056 30.6444 7.97678 30.63C8.04425 30.5931 9.6306 29.7135 9.6306 28.6127C9.63029 28.3465 9.52593 28.0912 9.34043 27.9029C9.15494 27.7146 8.90343 27.6087 8.6411 27.6084ZM8.55879 29.7747C8.34999 29.9545 8.12677 30.1164 7.89147 30.2586C7.65617 30.1164 7.43296 29.9545 7.22416 29.7747C6.89927 29.4918 6.51216 29.0604 6.51216 28.6127C6.51216 28.4432 6.57851 28.2807 6.69659 28.1608C6.81468 28.0409 6.97485 27.9736 7.14185 27.9736C7.40872 27.9736 7.6321 28.1166 7.72491 28.347C7.73841 28.3806 7.76147 28.4094 7.79114 28.4296C7.8208 28.4498 7.85573 28.4606 7.89147 28.4606C7.92721 28.4606 7.96214 28.4498 7.99181 28.4296C8.02148 28.4094 8.04453 28.3806 8.05804 28.347C8.15084 28.1166 8.37423 27.9736 8.6411 27.9736C8.8081 27.9736 8.96827 28.0409 9.08635 28.1608C9.20444 28.2807 9.27078 28.4432 9.27078 28.6127C9.27078 29.0604 8.88368 29.4918 8.55879 29.7747Z" fill="white"/>
<g clip-path="url(#clip0_2983_20237)">
<path d="M14.6196 4.67383C14.3184 4.67383 14.0511 4.7945 13.87 5.00191C13.6889 4.7945 13.4216 4.67383 13.1204 4.67383C12.858 4.67415 12.6065 4.78007 12.421 4.96834C12.2355 5.15662 12.1312 5.41189 12.1309 5.67815C12.1309 6.77895 13.7172 7.6585 13.7847 7.69547C13.8109 7.7098 13.8402 7.71731 13.87 7.71731C13.8998 7.71731 13.9291 7.7098 13.9553 7.69547C14.0228 7.6585 15.6091 6.77895 15.6091 5.67815C15.6088 5.41189 15.5044 5.15662 15.319 4.96834C15.1335 4.78007 14.882 4.67415 14.6196 4.67383ZM14.5373 6.84012C14.3285 7.01996 14.1053 7.18183 13.87 7.32403C13.6347 7.18183 13.4115 7.01996 13.2027 6.84012C12.8778 6.55724 12.4907 6.12584 12.4907 5.67815C12.4907 5.50865 12.557 5.34609 12.6751 5.22623C12.7932 5.10637 12.9534 5.03904 13.1204 5.03904C13.3872 5.03904 13.6106 5.18208 13.7034 5.41246C13.7169 5.44605 13.74 5.47479 13.7697 5.49502C13.7993 5.51525 13.8342 5.52605 13.87 5.52605C13.9057 5.52605 13.9407 5.51525 13.9703 5.49502C14 5.47479 14.023 5.44605 14.0366 5.41246C14.1294 5.18208 14.3527 5.03904 14.6196 5.03904C14.7866 5.03904 14.9468 5.10637 15.0649 5.22623C15.183 5.34609 15.2493 5.50865 15.2493 5.67815C15.2493 6.12584 14.8622 6.55724 14.5373 6.84012Z" fill="white"/>
</g>
<defs>
<clipPath id="clip0_2983_20237">
<rect width="3.69565" height="3.69565" fill="white" transform="translate(12.022 4.34766)"/>
</clipPath>
</defs>
</svg>
