<svg width="29" height="26" viewBox="0 0 29 26" fill="none" xmlns="http://www.w3.org/2000/svg">
<path d="M28.2142 4.28599H9.35707M5.9285 4.28599H0.785645M28.2142 21.4289H9.35707M5.9285 21.4289H0.785645M19.6428 12.8574H0.785645M28.2142 12.8574H23.0714M7.64279 0.857422C8.09744 0.857422 8.53348 1.03803 8.85497 1.35952C9.17646 1.68102 9.35707 2.11705 9.35707 2.57171V6.00028C9.35707 6.45494 9.17646 6.89097 8.85497 7.21246C8.53348 7.53395 8.09744 7.71456 7.64279 7.71456C7.18813 7.71456 6.7521 7.53395 6.43061 7.21246C6.10911 6.89097 5.9285 6.45494 5.9285 6.00028V2.57171C5.9285 2.11705 6.10911 1.68102 6.43061 1.35952C6.7521 1.03803 7.18813 0.857422 7.64279 0.857422ZM7.64279 18.0003C8.09744 18.0003 8.53348 18.1809 8.85497 18.5024C9.17646 18.8239 9.35707 19.2599 9.35707 19.7146V23.1431C9.35707 23.5978 9.17646 24.0338 8.85497 24.3553C8.53348 24.6768 8.09744 24.8574 7.64279 24.8574C7.18813 24.8574 6.7521 24.6768 6.43061 24.3553C6.10911 24.0338 5.9285 23.5978 5.9285 23.1431V19.7146C5.9285 19.2599 6.10911 18.8239 6.43061 18.5024C6.7521 18.1809 7.18813 18.0003 7.64279 18.0003ZM21.3571 9.42885C21.8117 9.42885 22.2478 9.60946 22.5693 9.93095C22.8907 10.2524 23.0714 10.6885 23.0714 11.1431V14.5717C23.0714 15.0264 22.8907 15.4624 22.5693 15.7839C22.2478 16.1054 21.8117 16.286 21.3571 16.286C20.9024 16.286 20.4664 16.1054 20.1449 15.7839C19.8234 15.4624 19.6428 15.0264 19.6428 14.5717V11.1431C19.6428 10.6885 19.8234 10.2524 20.1449 9.93095C20.4664 9.60946 20.9024 9.42885 21.3571 9.42885Z" stroke="black" stroke-width="0.761905" stroke-linecap="round" stroke-linejoin="round"/>
</svg>
